<svg width="657" height="657" viewBox="0 0 657 657" fill="none" xmlns="http://www.w3.org/2000/svg">
<path d="M328.5 657C509.925 657 657 509.925 657 328.5C657 147.074 509.925 0 328.5 0C147.074 0 0 147.074 0 328.5C0 509.925 147.074 657 328.5 657Z" fill="#097200"/>
<path d="M184.867 490.569L350.546 656.248C513.973 645.415 644.71 515.084 656.166 351.827L435.107 130.767L184.867 490.569Z" fill="#3B8135"/>
<path d="M558.744 293.659H537.466C520.91 249.737 484.972 212.974 437.998 190.331V129.409C437.998 129.409 397.363 124.761 375.295 170.099C360.217 167.365 344.564 165.909 328.5 165.909C244.178 165.909 170.999 205.63 134.402 263.835C131.568 262.811 129.137 261.32 127.111 259.316C119.505 251.804 119.452 239.365 119.454 239.051C119.532 233.578 115.174 229.063 109.697 228.957C104.149 228.806 99.6581 233.215 99.5475 238.712C99.5033 240.84 99.5209 259.887 112.946 273.312C116.375 276.743 120.337 279.4 124.75 281.373C114.908 302.125 109.5 324.739 109.5 348.409C109.5 402.456 137.702 451.007 182.5 484.424V546.025C182.5 557.835 192.074 567.409 203.884 567.409H234.117C245.928 567.409 255.502 557.835 255.502 546.025V520.51C278.338 527.237 302.903 530.909 328.502 530.909C354.101 530.909 378.666 527.237 401.502 520.51V546.025C401.502 557.835 411.076 567.409 422.887 567.409H453.12C464.93 567.409 474.504 557.835 474.504 546.025V484.424C503.492 462.8 525.529 434.846 537.472 403.159H558.751C572.698 403.159 584.007 391.853 584.007 377.903V318.913C584 304.965 572.694 293.659 558.744 293.659Z" fill="#DA768E"/>
<path d="M456.25 311.909C466.328 311.909 474.5 303.738 474.5 293.659C474.5 283.581 466.328 275.409 456.25 275.409C446.172 275.409 438 283.581 438 293.659C438 303.738 446.172 311.909 456.25 311.909Z" fill="#595155"/>
<path d="M352.833 219H290.894C285.397 219 280.939 214.543 280.939 209.046C280.939 203.548 285.397 199.091 290.894 199.091H352.833C358.331 199.091 362.788 203.548 362.788 209.046C362.788 214.543 358.331 219 352.833 219Z" fill="#5E345E"/>
<path d="M328.5 149.318C359.653 149.318 384.909 124.063 384.909 92.9091C384.909 61.7551 359.653 36.5 328.5 36.5C297.347 36.5 272.091 61.7551 272.091 92.9091C272.091 124.063 297.347 149.318 328.5 149.318Z" fill="#3B8135"/>
<path d="M328.5 135.216C351.865 135.216 370.807 116.274 370.807 92.9091C370.807 69.5438 351.865 50.6023 328.5 50.6023C305.136 50.6023 286.193 69.5438 286.193 92.9091C286.193 116.274 305.136 135.216 328.5 135.216Z" fill="#7CBC76"/>
<path d="M314.272 104.456C315.311 109.841 321.629 113.982 329.27 113.982C337.636 113.982 344.418 109.018 344.418 102.895C344.418 96.7715 337.636 91.8075 329.27 91.8075C320.903 91.8075 314.121 86.8435 314.121 80.7203C314.121 74.5972 320.903 69.6332 329.27 69.6332C337.636 69.6332 344.418 74.5972 344.418 80.7203" stroke="#097200" stroke-width="6" stroke-miterlimit="10" stroke-linecap="round" stroke-linejoin="round"/>
<path d="M329.73 113.924V123.879" stroke="#097200" stroke-width="6" stroke-miterlimit="10" stroke-linecap="round" stroke-linejoin="round"/>
<path d="M329.73 59.7273V69.058" stroke="#097200" stroke-width="6" stroke-miterlimit="10" stroke-linecap="round" stroke-linejoin="round"/>
</svg>
