<svg width="334" height="113" viewBox="0 0 334 113" fill="none" xmlns="http://www.w3.org/2000/svg">
<g filter="url(#filter0_d_15_19)">
<path d="M35.848 64.272C35.224 64.8 34.408 65.232 33.4 65.568C32.44 65.856 31.312 66 30.016 66C28.288 66 26.848 65.784 25.696 65.352C24.592 64.92 23.872 64.176 23.536 63.12C22.192 58.896 21.088 55.488 20.224 52.896C19.36 50.256 18.688 47.952 18.208 45.984H17.848C17.704 48.816 17.584 51.408 17.488 53.76C17.44 56.064 17.392 58.32 17.344 60.528C17.344 62.736 17.296 64.968 17.2 67.224C17.152 69.48 17.056 71.976 16.912 74.712C16.288 74.952 15.472 75.144 14.464 75.288C13.456 75.48 12.448 75.576 11.44 75.576C9.328 75.576 7.672 75.24 6.472 74.568C5.32 73.896 4.744 72.672 4.744 70.896L6.832 34.176C7.216 33.552 8.056 32.88 9.352 32.16C10.648 31.44 12.472 31.08 14.824 31.08C17.368 31.08 19.36 31.488 20.8 32.304C22.24 33.072 23.296 34.344 23.968 36.12C24.4 37.272 24.856 38.592 25.336 40.08C25.864 41.568 26.368 43.104 26.848 44.688C27.376 46.272 27.88 47.856 28.36 49.44C28.84 50.976 29.272 52.368 29.656 53.616H30.016C31.168 49.584 32.32 45.696 33.472 41.952C34.624 38.16 35.68 34.992 36.64 32.448C37.36 32.064 38.272 31.752 39.376 31.512C40.528 31.224 41.8 31.08 43.192 31.08C45.544 31.08 47.464 31.44 48.952 32.16C50.44 32.832 51.304 33.816 51.544 35.112C51.736 36.072 51.928 37.56 52.12 39.576C52.36 41.544 52.6 43.776 52.84 46.272C53.08 48.768 53.32 51.408 53.56 54.192C53.8 56.976 54.016 59.664 54.208 62.256C54.448 64.8 54.64 67.152 54.784 69.312C54.928 71.424 55.024 73.056 55.072 74.208C54.256 74.688 53.392 75.024 52.48 75.216C51.616 75.456 50.488 75.576 49.096 75.576C47.272 75.576 45.736 75.264 44.488 74.64C43.24 74.016 42.568 72.792 42.472 70.968C42.184 65.736 41.992 61.032 41.896 56.856C41.848 52.68 41.752 49.176 41.608 46.344H41.248C40.768 48.216 40.072 50.568 39.16 53.4C38.248 56.232 37.144 59.856 35.848 64.272ZM66.5363 66.072C66.0083 64.872 65.4323 63.528 64.8083 62.04C64.2323 60.552 63.6083 58.848 62.9363 56.928C62.3123 55.008 61.6403 52.824 60.9203 50.376C60.2483 47.88 59.5283 45.024 58.7603 41.808C59.4323 41.136 60.3203 40.56 61.4243 40.08C62.5763 39.552 63.8243 39.288 65.1683 39.288C66.8483 39.288 68.2403 39.648 69.3443 40.368C70.4483 41.04 71.2643 42.336 71.7923 44.256L77.4803 64.056H77.7683C78.3443 62.424 78.8963 60.648 79.4243 58.728C80.0003 56.808 80.5523 54.84 81.0803 52.824C81.6083 50.76 82.0883 48.72 82.5203 46.704C83.0003 44.64 83.4083 42.624 83.7443 40.656C85.4723 39.744 87.3683 39.288 89.4323 39.288C91.1123 39.288 92.5043 39.648 93.6083 40.368C94.7123 41.088 95.2643 42.336 95.2643 44.112C95.2643 45.408 95.0963 46.92 94.7603 48.648C94.4243 50.328 93.9683 52.128 93.3923 54.048C92.8643 55.968 92.2163 57.96 91.4483 60.024C90.7283 62.04 89.9603 64.032 89.1443 66C88.3283 67.968 87.4883 69.84 86.6243 71.616C85.7603 73.344 84.9203 74.904 84.1043 76.296C82.7603 78.648 81.5123 80.568 80.3603 82.056C79.2083 83.544 78.1043 84.696 77.0483 85.512C75.9923 86.376 74.9363 86.952 73.8803 87.24C72.8243 87.576 71.7203 87.744 70.5683 87.744C68.5523 87.744 66.9203 87.144 65.6723 85.944C64.4243 84.744 63.6803 83.184 63.4403 81.264C64.9763 80.064 66.5123 78.72 68.0483 77.232C69.5843 75.792 70.9763 74.304 72.2243 72.768C71.4083 72.528 70.5203 71.976 69.5603 71.112C68.6483 70.2 67.6403 68.52 66.5363 66.072ZM146.239 64.272C145.615 64.8 144.799 65.232 143.791 65.568C142.831 65.856 141.703 66 140.407 66C138.679 66 137.239 65.784 136.087 65.352C134.983 64.92 134.263 64.176 133.927 63.12C132.583 58.896 131.479 55.488 130.615 52.896C129.751 50.256 129.079 47.952 128.599 45.984H128.239C128.095 48.816 127.975 51.408 127.879 53.76C127.831 56.064 127.783 58.32 127.735 60.528C127.735 62.736 127.687 64.968 127.591 67.224C127.543 69.48 127.447 71.976 127.303 74.712C126.679 74.952 125.863 75.144 124.855 75.288C123.847 75.48 122.839 75.576 121.831 75.576C119.719 75.576 118.063 75.24 116.863 74.568C115.711 73.896 115.135 72.672 115.135 70.896L117.223 34.176C117.607 33.552 118.447 32.88 119.743 32.16C121.039 31.44 122.863 31.08 125.215 31.08C127.759 31.08 129.751 31.488 131.191 32.304C132.631 33.072 133.687 34.344 134.359 36.12C134.791 37.272 135.247 38.592 135.727 40.08C136.255 41.568 136.759 43.104 137.239 44.688C137.767 46.272 138.271 47.856 138.751 49.44C139.231 50.976 139.663 52.368 140.047 53.616H140.407C141.559 49.584 142.711 45.696 143.863 41.952C145.015 38.16 146.071 34.992 147.031 32.448C147.751 32.064 148.663 31.752 149.767 31.512C150.919 31.224 152.191 31.08 153.583 31.08C155.935 31.08 157.855 31.44 159.343 32.16C160.831 32.832 161.695 33.816 161.935 35.112C162.127 36.072 162.319 37.56 162.511 39.576C162.751 41.544 162.991 43.776 163.231 46.272C163.471 48.768 163.711 51.408 163.951 54.192C164.191 56.976 164.407 59.664 164.599 62.256C164.839 64.8 165.031 67.152 165.175 69.312C165.319 71.424 165.415 73.056 165.463 74.208C164.647 74.688 163.783 75.024 162.871 75.216C162.007 75.456 160.879 75.576 159.487 75.576C157.663 75.576 156.127 75.264 154.879 74.64C153.631 74.016 152.959 72.792 152.863 70.968C152.575 65.736 152.383 61.032 152.287 56.856C152.239 52.68 152.143 49.176 151.999 46.344H151.639C151.159 48.216 150.463 50.568 149.551 53.4C148.639 56.232 147.535 59.856 146.239 64.272ZM208.444 57.504C208.444 60.48 207.988 63.144 207.076 65.496C206.164 67.8 204.868 69.744 203.188 71.328C201.556 72.912 199.588 74.112 197.284 74.928C194.98 75.744 192.412 76.152 189.58 76.152C186.748 76.152 184.18 75.72 181.876 74.856C179.572 73.992 177.58 72.768 175.9 71.184C174.268 69.552 172.996 67.584 172.084 65.28C171.172 62.976 170.716 60.384 170.716 57.504C170.716 54.672 171.172 52.104 172.084 49.8C172.996 47.496 174.268 45.552 175.9 43.968C177.58 42.336 179.572 41.088 181.876 40.224C184.18 39.36 186.748 38.928 189.58 38.928C192.412 38.928 194.98 39.384 197.284 40.296C199.588 41.16 201.556 42.408 203.188 44.04C204.868 45.624 206.164 47.568 207.076 49.872C207.988 52.176 208.444 54.72 208.444 57.504ZM183.244 57.504C183.244 60.432 183.796 62.688 184.9 64.272C186.052 65.808 187.636 66.576 189.652 66.576C191.668 66.576 193.204 65.784 194.26 64.2C195.364 62.616 195.916 60.384 195.916 57.504C195.916 54.624 195.364 52.416 194.26 50.88C193.156 49.296 191.596 48.504 189.58 48.504C187.564 48.504 186.004 49.296 184.9 50.88C183.796 52.416 183.244 54.624 183.244 57.504ZM236.592 52.824C236.592 51.336 236.16 50.256 235.296 49.584C234.48 48.864 233.352 48.504 231.912 48.504C230.952 48.504 229.992 48.624 229.032 48.864C228.12 49.104 227.328 49.464 226.656 49.944V74.928C226.176 75.072 225.408 75.216 224.352 75.36C223.344 75.504 222.288 75.576 221.184 75.576C220.128 75.576 219.168 75.504 218.304 75.36C217.488 75.216 216.792 74.928 216.216 74.496C215.64 74.064 215.184 73.488 214.848 72.768C214.56 72 214.416 71.016 214.416 69.816V48.216C214.416 46.92 214.68 45.864 215.208 45.048C215.784 44.232 216.552 43.488 217.512 42.816C219.144 41.664 221.184 40.728 223.632 40.008C226.128 39.288 228.888 38.928 231.912 38.928C237.336 38.928 241.512 40.128 244.44 42.528C247.368 44.88 248.832 48.168 248.832 52.392V74.928C248.352 75.072 247.584 75.216 246.528 75.36C245.52 75.504 244.464 75.576 243.36 75.576C242.304 75.576 241.344 75.504 240.48 75.36C239.664 75.216 238.968 74.928 238.392 74.496C237.816 74.064 237.36 73.488 237.024 72.768C236.736 72 236.592 71.016 236.592 69.816V52.824ZM274.896 76.152C272.064 76.152 269.424 75.768 266.976 75C264.576 74.184 262.464 72.984 260.64 71.4C258.864 69.816 257.448 67.824 256.392 65.424C255.384 63.024 254.88 60.216 254.88 57C254.88 53.832 255.384 51.12 256.392 48.864C257.448 46.56 258.816 44.688 260.496 43.248C262.176 41.76 264.096 40.68 266.256 40.008C268.416 39.288 270.624 38.928 272.88 38.928C275.424 38.928 277.728 39.312 279.792 40.08C281.904 40.848 283.704 41.904 285.192 43.248C286.728 44.592 287.904 46.2 288.72 48.072C289.584 49.944 290.016 51.984 290.016 54.192C290.016 55.824 289.56 57.072 288.648 57.936C287.736 58.8 286.464 59.352 284.832 59.592L267.048 62.256C267.576 63.84 268.656 65.04 270.288 65.856C271.92 66.624 273.792 67.008 275.904 67.008C277.872 67.008 279.72 66.768 281.448 66.288C283.224 65.76 284.664 65.16 285.768 64.488C286.536 64.968 287.184 65.64 287.712 66.504C288.24 67.368 288.504 68.28 288.504 69.24C288.504 71.4 287.496 73.008 285.48 74.064C283.944 74.88 282.216 75.432 280.296 75.72C278.376 76.008 276.576 76.152 274.896 76.152ZM272.88 47.856C271.728 47.856 270.72 48.048 269.856 48.432C269.04 48.816 268.368 49.32 267.84 49.944C267.312 50.52 266.904 51.192 266.616 51.96C266.376 52.68 266.232 53.424 266.184 54.192L278.496 52.176C278.352 51.216 277.824 50.256 276.912 49.296C276 48.336 274.656 47.856 272.88 47.856ZM301.099 66.072C300.571 64.872 299.995 63.528 299.371 62.04C298.795 60.552 298.171 58.848 297.499 56.928C296.875 55.008 296.203 52.824 295.483 50.376C294.811 47.88 294.091 45.024 293.323 41.808C293.995 41.136 294.883 40.56 295.987 40.08C297.139 39.552 298.387 39.288 299.731 39.288C301.411 39.288 302.803 39.648 303.907 40.368C305.011 41.04 305.827 42.336 306.355 44.256L312.043 64.056H312.331C312.907 62.424 313.459 60.648 313.987 58.728C314.563 56.808 315.115 54.84 315.643 52.824C316.171 50.76 316.651 48.72 317.083 46.704C317.563 44.64 317.971 42.624 318.307 40.656C320.035 39.744 321.931 39.288 323.995 39.288C325.675 39.288 327.067 39.648 328.171 40.368C329.275 41.088 329.827 42.336 329.827 44.112C329.827 45.408 329.659 46.92 329.323 48.648C328.987 50.328 328.531 52.128 327.955 54.048C327.427 55.968 326.779 57.96 326.011 60.024C325.291 62.04 324.523 64.032 323.707 66C322.891 67.968 322.051 69.84 321.187 71.616C320.323 73.344 319.483 74.904 318.667 76.296C317.323 78.648 316.075 80.568 314.923 82.056C313.771 83.544 312.667 84.696 311.611 85.512C310.555 86.376 309.499 86.952 308.443 87.24C307.387 87.576 306.283 87.744 305.131 87.744C303.115 87.744 301.483 87.144 300.235 85.944C298.987 84.744 298.243 83.184 298.003 81.264C299.539 80.064 301.075 78.72 302.611 77.232C304.147 75.792 305.539 74.304 306.787 72.768C305.971 72.528 305.083 71.976 304.123 71.112C303.211 70.2 302.203 68.52 301.099 66.072Z" fill="url(#paint0_linear_15_19)" shape-rendering="crispEdges"/>
</g>
<path d="M173.153 67.128C167.916 57.6277 171.372 45.6804 180.872 40.4438C190.372 35.2072 202.32 38.6632 207.556 48.1636C212.793 57.6639 209.337 69.61 199.837 74.8478C190.336 80.0844 178.39 76.6284 173.153 67.128Z" fill="#456B41"/>
<path d="M198.866 76.0018C198.624 76.1564 198.378 76.3051 198.128 76.4491C198.044 76.4975 197.959 76.5459 197.874 76.592C197.68 76.7006 197.487 76.8033 197.291 76.9048C187.938 81.6985 176.529 78.0191 171.444 68.3939C166.594 59.2138 169.201 47.8427 177.159 41.8721C177.794 41.3953 178.462 40.9538 179.163 40.5501C179.415 40.4049 179.669 40.2668 179.924 40.1346C180.172 40.0059 180.422 39.8831 180.673 39.7674C181.441 39.4098 182.223 39.1088 183.012 38.8621C184.185 38.4926 185.375 38.2447 186.568 38.1137C190.268 37.7041 193.991 38.41 197.291 40.0944C200.794 41.8816 203.822 44.7724 205.848 48.6053C210.947 58.2576 207.804 70.3298 198.866 76.0018Z" fill="#639C5E"/>
<path d="M198.866 76.0018C198.624 76.1564 198.378 76.3051 198.128 76.4491C198.044 76.4975 197.959 76.5459 197.874 76.592C197.68 76.7006 197.487 76.8033 197.291 76.9048C187.938 81.6985 176.529 78.0191 171.444 68.3939C166.594 59.2138 169.201 47.8427 177.159 41.8721C177.794 41.3953 178.462 40.9538 179.163 40.5501C179.415 40.4049 179.669 40.2668 179.924 40.1346C180.172 40.0059 180.422 39.8831 180.673 39.7674C181.441 39.4098 182.223 39.1088 183.012 38.8621C184.185 38.4926 185.375 38.2447 186.568 38.1137C190.268 37.7041 193.991 38.41 197.291 40.0944C200.794 41.8816 203.822 44.7724 205.848 48.6053C210.947 58.2576 207.804 70.3298 198.866 76.0018Z" fill="#639C5E"/>
<path d="M197.615 60.2744C197.578 60.183 197.536 60.0959 197.495 60.0088C197.182 59.3524 196.79 58.8192 196.321 58.4114C195.791 57.9504 195.175 57.6052 194.473 57.3757C193.772 57.1453 192.988 57.0051 192.125 56.9551C191.261 56.9041 190.32 56.8925 189.305 56.9201C188.677 56.9381 188.14 56.9275 187.695 56.8893C187.249 56.85 186.871 56.7714 186.561 56.6524C186.25 56.5335 185.998 56.3709 185.804 56.1638C185.61 55.9578 185.45 55.706 185.323 55.4086C185.196 55.1102 185.124 54.8149 185.105 54.5217C185.086 54.2296 185.132 53.9524 185.242 53.6879C185.353 53.4256 185.532 53.1823 185.782 52.9593C186.031 52.7362 186.36 52.545 186.769 52.3868C187.524 52.0947 188.229 52.1021 188.884 52.4059C189.538 52.7118 190.071 53.347 190.482 54.3125L194.425 52.7872C194.082 51.9832 193.652 51.3023 193.135 50.7479C192.618 50.1934 192.035 49.7643 191.387 49.4616C190.738 49.1589 190.033 48.9826 189.269 48.9305C188.506 48.8795 187.712 48.956 186.889 49.1621L185.772 46.5417L183.59 47.3861L184.691 49.9704C183.903 50.3602 183.235 50.8127 182.687 51.3289C182.139 51.8461 181.718 52.4059 181.424 53.0071C181.129 53.6093 180.975 54.2402 180.96 54.902C180.945 55.5648 181.083 56.2382 181.375 56.9211C181.711 57.7103 182.145 58.3359 182.675 58.7959C183.205 59.2568 183.82 59.5999 184.521 59.8261C185.221 60.0524 186.004 60.1883 186.87 60.2319C187.737 60.2765 188.679 60.2754 189.697 60.2287C190.288 60.1968 190.801 60.2 191.236 60.2393C191.67 60.2765 192.046 60.3562 192.363 60.4773C192.679 60.5994 192.942 60.7693 193.152 60.9882C193.361 61.207 193.539 61.4852 193.684 61.823C193.811 62.1215 193.873 62.4178 193.872 62.7142C193.871 63.0094 193.801 63.293 193.661 63.5618C193.522 63.8316 193.312 64.0812 193.035 64.3106C192.756 64.5411 192.404 64.7376 191.976 64.9033C191.602 65.0477 191.218 65.1423 190.819 65.1901C190.42 65.2357 190.031 65.1986 189.65 65.0785C189.27 64.9574 188.915 64.7386 188.585 64.4221C188.253 64.1056 187.966 63.6605 187.722 63.0891L183.78 64.6144C184.191 65.5799 184.708 66.3468 185.331 66.9108C185.953 67.4769 186.634 67.8826 187.373 68.1248C188.113 68.3691 188.887 68.4764 189.694 68.4445C190.502 68.4127 191.299 68.2884 192.085 68.0675L193.104 70.4584L195.273 69.6193L194.249 67.2177C195.037 66.8279 195.711 66.3786 196.273 65.8709C196.794 65.4004 197.201 64.8948 197.495 64.351C197.52 64.3063 197.542 64.2628 197.564 64.2182C197.862 63.6244 198.021 62.9967 198.04 62.3318C198.059 61.669 197.918 60.9828 197.615 60.2744" fill="#097200"/>
<path d="M188.622 41.8999C185.776 41.8999 182.891 42.5973 180.227 44.0659C176.145 46.3162 173.183 50.0213 171.888 54.4987C170.593 58.9761 171.118 63.691 173.369 67.773C175.619 71.8551 179.324 74.8166 183.802 76.1123C188.28 77.4069 192.993 76.8812 197.077 74.631C205.504 69.9853 208.579 59.3508 203.935 50.9239C200.757 45.1611 194.779 41.8999 188.622 41.8999ZM188.677 77.2916C187.003 77.2916 185.32 77.0542 183.668 76.5769C179.066 75.2454 175.258 72.2021 172.945 68.0059C170.632 63.8109 170.092 58.9657 171.423 54.365C172.754 49.763 175.798 45.9542 179.993 43.6417C188.654 38.868 199.584 42.0301 204.358 50.6899C209.133 59.3508 205.97 70.2804 197.309 75.0541C194.621 76.5365 191.664 77.2916 188.677 77.2916Z" fill="#437A3E"/>
<g filter="url(#filter1_i_15_19)">
<path d="M8.856 12.304C8.93067 12.4213 8.99467 12.5813 9.048 12.784C9.112 12.976 9.144 13.1787 9.144 13.392C9.144 13.808 9.05333 14.1067 8.872 14.288C8.70133 14.4587 8.46667 14.544 8.168 14.544H4.808V16.352H8.312C8.39733 16.4693 8.46667 16.624 8.52 16.816C8.584 17.008 8.616 17.2107 8.616 17.424C8.616 17.8293 8.52533 18.1227 8.344 18.304C8.17333 18.4747 7.93867 18.56 7.64 18.56H4.84V21.936C4.72267 21.968 4.536 22 4.28 22.032C4.03467 22.064 3.78933 22.08 3.544 22.08C3.29867 22.08 3.08 22.0587 2.888 22.016C2.70667 21.984 2.552 21.92 2.424 21.824C2.296 21.728 2.2 21.5947 2.136 21.424C2.072 21.2533 2.04 21.0293 2.04 20.752V13.792C2.04 13.3333 2.17333 12.9707 2.44 12.704C2.70667 12.4373 3.06933 12.304 3.528 12.304H8.856ZM13.3006 20.272C13.482 20.272 13.6793 20.256 13.8926 20.224C14.1166 20.1813 14.282 20.128 14.3886 20.064V18.784L13.2366 18.88C12.938 18.9013 12.6926 18.9653 12.5006 19.072C12.3086 19.1787 12.2126 19.3387 12.2126 19.552C12.2126 19.7653 12.2926 19.9413 12.4526 20.08C12.6233 20.208 12.906 20.272 13.3006 20.272ZM13.1726 13.984C13.7486 13.984 14.2713 14.0427 14.7406 14.16C15.2206 14.2773 15.626 14.4587 15.9566 14.704C16.298 14.9387 16.5593 15.2427 16.7406 15.616C16.922 15.9787 17.0126 16.4107 17.0126 16.912V20.496C17.0126 20.7733 16.9326 21.0027 16.7726 21.184C16.6233 21.3547 16.442 21.504 16.2286 21.632C15.5353 22.048 14.5593 22.256 13.3006 22.256C12.7353 22.256 12.2233 22.2027 11.7646 22.096C11.3166 21.9893 10.9273 21.8293 10.5966 21.616C10.2766 21.4027 10.026 21.1307 9.84463 20.8C9.67396 20.4693 9.58863 20.0853 9.58863 19.648C9.58863 18.912 9.80729 18.3467 10.2446 17.952C10.682 17.5573 11.3593 17.312 12.2766 17.216L14.3726 16.992V16.88C14.3726 16.5707 14.234 16.352 13.9566 16.224C13.69 16.0853 13.3006 16.016 12.7886 16.016C12.3833 16.016 11.9886 16.0587 11.6046 16.144C11.2206 16.2293 10.874 16.336 10.5646 16.464C10.426 16.368 10.3086 16.224 10.2126 16.032C10.1166 15.8293 10.0686 15.6213 10.0686 15.408C10.0686 15.1307 10.1326 14.912 10.2606 14.752C10.3993 14.5813 10.6073 14.4373 10.8846 14.32C11.194 14.2027 11.5566 14.1173 11.9726 14.064C12.3993 14.0107 12.7993 13.984 13.1726 13.984ZM21.5398 22.112C21.0491 22.0053 20.6064 21.8347 20.2118 21.6C19.8171 21.3653 19.4811 21.0773 19.2038 20.736C18.9264 20.3947 18.7131 20.0107 18.5638 19.584C18.4144 19.1467 18.3398 18.672 18.3398 18.16C18.3398 17.456 18.4518 16.8427 18.6758 16.32C18.9104 15.7867 19.2251 15.3493 19.6198 15.008C20.0144 14.6667 20.4678 14.4107 20.9798 14.24C21.5024 14.0693 22.0518 13.984 22.6278 13.984C23.3958 13.984 23.9878 14.1227 24.4038 14.4C24.8198 14.6773 25.0278 15.0347 25.0278 15.472C25.0278 15.6747 24.9798 15.8667 24.8838 16.048C24.7878 16.2187 24.6758 16.368 24.5478 16.496C24.3664 16.4107 24.1478 16.3307 23.8918 16.256C23.6358 16.1707 23.3584 16.128 23.0598 16.128C22.7931 16.128 22.5371 16.1707 22.2918 16.256C22.0571 16.3413 21.8491 16.4693 21.6678 16.64C21.4971 16.8 21.3584 17.0027 21.2518 17.248C21.1451 17.4933 21.0918 17.7813 21.0918 18.112C21.0918 18.7733 21.2784 19.2693 21.6518 19.6C22.0358 19.9307 22.4998 20.096 23.0438 20.096C23.3638 20.096 23.6411 20.0587 23.8758 19.984C24.1104 19.9093 24.3184 19.8293 24.4998 19.744C24.7131 19.8933 24.8731 20.0587 24.9798 20.24C25.0864 20.4107 25.1398 20.6187 25.1398 20.864C25.1398 21.1947 25.0118 21.472 24.7558 21.696C24.5104 21.92 24.1584 22.0747 23.6998 22.16C23.7851 22.3093 23.8491 22.5067 23.8918 22.752C23.9344 22.9973 23.9558 23.2107 23.9558 23.392C23.9558 23.936 23.7851 24.384 23.4438 24.736C23.1024 25.0987 22.6278 25.28 22.0198 25.28C21.5824 25.28 21.2251 25.168 20.9478 24.944C20.6704 24.7307 20.5318 24.4213 20.5318 24.016C20.5318 23.8347 20.5531 23.6747 20.5958 23.536C20.9371 23.5147 21.2038 23.4293 21.3958 23.28C21.5878 23.1413 21.6838 22.9493 21.6838 22.704C21.6838 22.5973 21.6678 22.4907 21.6358 22.384C21.6144 22.288 21.5824 22.1973 21.5398 22.112ZM29.91 20.272C30.0913 20.272 30.2887 20.256 30.502 20.224C30.726 20.1813 30.8913 20.128 30.998 20.064V18.784L29.846 18.88C29.5473 18.9013 29.302 18.9653 29.11 19.072C28.918 19.1787 28.822 19.3387 28.822 19.552C28.822 19.7653 28.902 19.9413 29.062 20.08C29.2327 20.208 29.5153 20.272 29.91 20.272ZM29.782 13.984C30.358 13.984 30.8807 14.0427 31.35 14.16C31.83 14.2773 32.2353 14.4587 32.566 14.704C32.9073 14.9387 33.1687 15.2427 33.35 15.616C33.5313 15.9787 33.622 16.4107 33.622 16.912V20.496C33.622 20.7733 33.542 21.0027 33.382 21.184C33.2327 21.3547 33.0513 21.504 32.838 21.632C32.1447 22.048 31.1687 22.256 29.91 22.256C29.3447 22.256 28.8327 22.2027 28.374 22.096C27.926 21.9893 27.5367 21.8293 27.206 21.616C26.886 21.4027 26.6353 21.1307 26.454 20.8C26.2833 20.4693 26.198 20.0853 26.198 19.648C26.198 18.912 26.4167 18.3467 26.854 17.952C27.2913 17.5573 27.9687 17.312 28.886 17.216L30.982 16.992V16.88C30.982 16.5707 30.8433 16.352 30.566 16.224C30.2993 16.0853 29.91 16.016 29.398 16.016C28.9927 16.016 28.598 16.0587 28.214 16.144C27.83 16.2293 27.4833 16.336 27.174 16.464C27.0353 16.368 26.918 16.224 26.822 16.032C26.726 15.8293 26.678 15.6213 26.678 15.408C26.678 15.1307 26.742 14.912 26.87 14.752C27.0087 14.5813 27.2167 14.4373 27.494 14.32C27.8033 14.2027 28.166 14.1173 28.582 14.064C29.0087 14.0107 29.4087 13.984 29.782 13.984ZM38.5043 12.064C38.5043 11.6587 38.6376 11.3173 38.9043 11.04C39.1816 10.7627 39.5443 10.624 39.9923 10.624C40.4403 10.624 40.7976 10.7627 41.0643 11.04C41.3416 11.3173 41.4803 11.6587 41.4803 12.064C41.4803 12.4693 41.3416 12.8107 41.0643 13.088C40.7976 13.3653 40.4403 13.504 39.9923 13.504C39.5443 13.504 39.1816 13.3653 38.9043 13.088C38.6376 12.8107 38.5043 12.4693 38.5043 12.064ZM37.9603 23.088C38.1949 22.9387 38.3656 22.7307 38.4723 22.464C38.5789 22.208 38.6323 21.92 38.6323 21.6V14.336C38.7496 14.3147 38.9203 14.288 39.1443 14.256C39.3789 14.2133 39.6136 14.192 39.8483 14.192C40.0829 14.192 40.2909 14.208 40.4723 14.24C40.6643 14.272 40.8243 14.336 40.9523 14.432C41.0803 14.528 41.1763 14.6613 41.2403 14.832C41.3149 14.992 41.3523 15.2053 41.3523 15.472V21.856C41.3523 22.304 41.2989 22.7093 41.1923 23.072C41.0856 23.4347 40.9309 23.744 40.7283 24C40.5363 24.2667 40.2963 24.4693 40.0082 24.608C39.7309 24.7573 39.4163 24.832 39.0643 24.832C38.5949 24.832 38.2269 24.688 37.9603 24.4C37.6936 24.1227 37.5549 23.7707 37.5442 23.344L37.9603 23.088ZM46.41 20.272C46.5913 20.272 46.7887 20.256 47.002 20.224C47.226 20.1813 47.3913 20.128 47.498 20.064V18.784L46.346 18.88C46.0473 18.9013 45.802 18.9653 45.61 19.072C45.418 19.1787 45.322 19.3387 45.322 19.552C45.322 19.7653 45.402 19.9413 45.562 20.08C45.7327 20.208 46.0153 20.272 46.41 20.272ZM46.282 13.984C46.858 13.984 47.3807 14.0427 47.85 14.16C48.33 14.2773 48.7353 14.4587 49.066 14.704C49.4073 14.9387 49.6687 15.2427 49.85 15.616C50.0313 15.9787 50.122 16.4107 50.122 16.912V20.496C50.122 20.7733 50.042 21.0027 49.882 21.184C49.7327 21.3547 49.5513 21.504 49.338 21.632C48.6447 22.048 47.6687 22.256 46.41 22.256C45.8447 22.256 45.3327 22.2027 44.874 22.096C44.426 21.9893 44.0367 21.8293 43.706 21.616C43.386 21.4027 43.1353 21.1307 42.954 20.8C42.7833 20.4693 42.698 20.0853 42.698 19.648C42.698 18.912 42.9167 18.3467 43.354 17.952C43.7913 17.5573 44.4687 17.312 45.386 17.216L47.482 16.992V16.88C47.482 16.5707 47.3433 16.352 47.066 16.224C46.7993 16.0853 46.41 16.016 45.898 16.016C45.4927 16.016 45.098 16.0587 44.714 16.144C44.33 16.2293 43.9833 16.336 43.674 16.464C43.5353 16.368 43.418 16.224 43.322 16.032C43.226 15.8293 43.178 15.6213 43.178 15.408C43.178 15.1307 43.242 14.912 43.37 14.752C43.5087 14.5813 43.7167 14.4373 43.994 14.32C44.3033 14.2027 44.666 14.1173 45.082 14.064C45.5087 14.0107 45.9087 13.984 46.282 13.984ZM46.858 10.096C47.4127 10.096 47.8127 10.2027 48.058 10.416C48.314 10.6293 48.442 10.8853 48.442 11.184C48.442 11.4613 48.3673 11.696 48.218 11.888C48.0687 12.0693 47.8233 12.2507 47.482 12.432L45.418 13.52C45.098 13.488 44.826 13.36 44.602 13.136C44.378 12.912 44.266 12.672 44.266 12.416C44.266 12.288 44.298 12.16 44.362 12.032C44.426 11.904 44.5327 11.7867 44.682 11.68L46.858 10.096ZM63.0363 18.112C63.0363 18.7733 62.9349 19.3653 62.7323 19.888C62.5296 20.4 62.2416 20.832 61.8683 21.184C61.5056 21.536 61.0683 21.8027 60.5563 21.984C60.0443 22.1653 59.4736 22.256 58.8443 22.256C58.2149 22.256 57.6443 22.16 57.1323 21.968C56.6203 21.776 56.1776 21.504 55.8043 21.152C55.4416 20.7893 55.1589 20.352 54.9563 19.84C54.7536 19.328 54.6523 18.752 54.6523 18.112C54.6523 17.4827 54.7536 16.912 54.9563 16.4C55.1589 15.888 55.4416 15.456 55.8043 15.104C56.1776 14.7413 56.6203 14.464 57.1323 14.272C57.6443 14.08 58.2149 13.984 58.8443 13.984C59.4736 13.984 60.0443 14.0853 60.5563 14.288C61.0683 14.48 61.5056 14.7573 61.8683 15.12C62.2416 15.472 62.5296 15.904 62.7323 16.416C62.9349 16.928 63.0363 17.4933 63.0363 18.112ZM57.4363 18.112C57.4363 18.7627 57.5589 19.264 57.8043 19.616C58.0603 19.9573 58.4123 20.128 58.8602 20.128C59.3083 20.128 59.6496 19.952 59.8843 19.6C60.1296 19.248 60.2523 18.752 60.2523 18.112C60.2523 17.472 60.1296 16.9813 59.8843 16.64C59.6389 16.288 59.2923 16.112 58.8443 16.112C58.3963 16.112 58.0496 16.288 57.8043 16.64C57.5589 16.9813 57.4363 17.472 57.4363 18.112ZM71.3584 13.984C71.9664 13.984 72.5157 14.064 73.0064 14.224C73.5077 14.3733 73.929 14.5707 74.2704 14.816C74.4837 14.9653 74.649 15.1307 74.7664 15.312C74.8944 15.4933 74.9584 15.728 74.9584 16.016V21.616C74.9584 22.1813 74.8517 22.6667 74.6384 23.072C74.425 23.488 74.1317 23.8293 73.7584 24.096C73.3957 24.3733 72.9637 24.576 72.4624 24.704C71.9717 24.832 71.4437 24.896 70.8784 24.896C69.9077 24.896 69.145 24.7627 68.5904 24.496C68.0357 24.24 67.7584 23.8187 67.7584 23.232C67.7584 22.9867 67.8064 22.768 67.9024 22.576C68.009 22.3947 68.1264 22.256 68.2544 22.16C68.5637 22.3307 68.9104 22.4747 69.2944 22.592C69.689 22.7093 70.0944 22.768 70.5104 22.768C71.0864 22.768 71.545 22.672 71.8864 22.48C72.2277 22.288 72.3984 21.9787 72.3984 21.552V21.296C71.961 21.488 71.4277 21.584 70.7984 21.584C70.3184 21.584 69.8597 21.5147 69.4224 21.376C68.9957 21.2267 68.617 21.0027 68.2864 20.704C67.9664 20.3947 67.705 20 67.5024 19.52C67.3104 19.04 67.2144 18.4693 67.2144 17.808C67.2144 17.1573 67.3157 16.592 67.5184 16.112C67.7317 15.632 68.0197 15.2373 68.3824 14.928C68.7557 14.608 69.193 14.3733 69.6944 14.224C70.2064 14.064 70.761 13.984 71.3584 13.984ZM72.3504 16.304C72.2757 16.2613 72.1637 16.2187 72.0144 16.176C71.8757 16.1333 71.6997 16.112 71.4864 16.112C70.9637 16.112 70.569 16.2613 70.3024 16.56C70.0464 16.848 69.9184 17.264 69.9184 17.808C69.9184 18.4267 70.0464 18.8747 70.3024 19.152C70.569 19.4187 70.905 19.552 71.3104 19.552C71.7477 19.552 72.0944 19.4507 72.3504 19.248V16.304ZM80.7565 22.256C80.1272 22.256 79.5405 22.1707 78.9965 22C78.4632 21.8187 77.9938 21.552 77.5885 21.2C77.1938 20.848 76.8792 20.4053 76.6445 19.872C76.4205 19.3387 76.3085 18.7147 76.3085 18C76.3085 17.296 76.4205 16.6933 76.6445 16.192C76.8792 15.68 77.1832 15.264 77.5565 14.944C77.9298 14.6133 78.3565 14.3733 78.8365 14.224C79.3165 14.064 79.8072 13.984 80.3085 13.984C80.8738 13.984 81.3858 14.0693 81.8445 14.24C82.3138 14.4107 82.7138 14.6453 83.0445 14.944C83.3858 15.2427 83.6472 15.6 83.8285 16.016C84.0205 16.432 84.1165 16.8853 84.1165 17.376C84.1165 17.7387 84.0152 18.016 83.8125 18.208C83.6098 18.4 83.3272 18.5227 82.9645 18.576L79.0125 19.168C79.1298 19.52 79.3698 19.7867 79.7325 19.968C80.0952 20.1387 80.5112 20.224 80.9805 20.224C81.4178 20.224 81.8285 20.1707 82.2125 20.064C82.6072 19.9467 82.9272 19.8133 83.1725 19.664C83.3432 19.7707 83.4872 19.92 83.6045 20.112C83.7218 20.304 83.7805 20.5067 83.7805 20.72C83.7805 21.2 83.5565 21.5573 83.1085 21.792C82.7672 21.9733 82.3832 22.096 81.9565 22.16C81.5298 22.224 81.1298 22.256 80.7565 22.256ZM80.3085 15.968C80.0525 15.968 79.8285 16.0107 79.6365 16.096C79.4552 16.1813 79.3058 16.2933 79.1885 16.432C79.0712 16.56 78.9805 16.7093 78.9165 16.88C78.8632 17.04 78.8312 17.2053 78.8205 17.376L81.5565 16.928C81.5245 16.7147 81.4072 16.5013 81.2045 16.288C81.0018 16.0747 80.7032 15.968 80.3085 15.968ZM88.1458 21.984C88.0391 22.016 87.8684 22.048 87.6338 22.08C87.4098 22.112 87.1751 22.128 86.9298 22.128C86.6951 22.128 86.4818 22.112 86.2898 22.08C86.1084 22.048 85.9538 21.984 85.8258 21.888C85.6978 21.792 85.5964 21.664 85.5218 21.504C85.4578 21.3333 85.4258 21.1147 85.4258 20.848V16.048C85.4258 15.8027 85.4684 15.5947 85.5538 15.424C85.6498 15.2427 85.7831 15.0827 85.9538 14.944C86.1244 14.8053 86.3324 14.6827 86.5778 14.576C86.8338 14.4587 87.1058 14.3573 87.3938 14.272C87.6818 14.1867 87.9804 14.1227 88.2898 14.08C88.5991 14.0267 88.9084 14 89.2178 14C89.7298 14 90.1351 14.1013 90.4338 14.304C90.7324 14.496 90.8818 14.816 90.8818 15.264C90.8818 15.4133 90.8604 15.5627 90.8178 15.712C90.7751 15.8507 90.7218 15.9787 90.6578 16.096C90.4338 16.096 90.2044 16.1067 89.9698 16.128C89.7351 16.1493 89.5058 16.1813 89.2818 16.224C89.0578 16.2667 88.8444 16.3147 88.6418 16.368C88.4498 16.4107 88.2844 16.464 88.1458 16.528V21.984ZM95.819 22.256C95.1897 22.256 94.603 22.1707 94.059 22C93.5257 21.8187 93.0563 21.552 92.651 21.2C92.2563 20.848 91.9417 20.4053 91.707 19.872C91.483 19.3387 91.371 18.7147 91.371 18C91.371 17.296 91.483 16.6933 91.707 16.192C91.9417 15.68 92.2457 15.264 92.619 14.944C92.9923 14.6133 93.419 14.3733 93.899 14.224C94.379 14.064 94.8697 13.984 95.371 13.984C95.9363 13.984 96.4483 14.0693 96.907 14.24C97.3763 14.4107 97.7763 14.6453 98.107 14.944C98.4483 15.2427 98.7097 15.6 98.891 16.016C99.083 16.432 99.179 16.8853 99.179 17.376C99.179 17.7387 99.0777 18.016 98.875 18.208C98.6723 18.4 98.3897 18.5227 98.027 18.576L94.075 19.168C94.1923 19.52 94.4323 19.7867 94.795 19.968C95.1577 20.1387 95.5737 20.224 96.043 20.224C96.4803 20.224 96.891 20.1707 97.275 20.064C97.6697 19.9467 97.9897 19.8133 98.235 19.664C98.4057 19.7707 98.5497 19.92 98.667 20.112C98.7843 20.304 98.843 20.5067 98.843 20.72C98.843 21.2 98.619 21.5573 98.171 21.792C97.8297 21.9733 97.4457 22.096 97.019 22.16C96.5923 22.224 96.1923 22.256 95.819 22.256ZM95.371 15.968C95.115 15.968 94.891 16.0107 94.699 16.096C94.5177 16.1813 94.3683 16.2933 94.251 16.432C94.1337 16.56 94.043 16.7093 93.979 16.88C93.9257 17.04 93.8937 17.2053 93.883 17.376L96.619 16.928C96.587 16.7147 96.4697 16.5013 96.267 16.288C96.0643 16.0747 95.7657 15.968 95.371 15.968ZM105.416 17.072C105.416 16.7413 105.32 16.5013 105.128 16.352C104.947 16.192 104.696 16.112 104.376 16.112C104.163 16.112 103.95 16.1387 103.736 16.192C103.534 16.2453 103.358 16.3253 103.208 16.432V21.984C103.102 22.016 102.931 22.048 102.696 22.08C102.472 22.112 102.238 22.128 101.992 22.128C101.758 22.128 101.544 22.112 101.352 22.08C101.171 22.048 101.016 21.984 100.888 21.888C100.76 21.792 100.659 21.664 100.584 21.504C100.52 21.3333 100.488 21.1147 100.488 20.848V16.048C100.488 15.76 100.547 15.5253 100.664 15.344C100.792 15.1627 100.963 14.9973 101.176 14.848C101.539 14.592 101.992 14.384 102.536 14.224C103.091 14.064 103.704 13.984 104.376 13.984C105.582 13.984 106.51 14.2507 107.16 14.784C107.811 15.3067 108.136 16.0373 108.136 16.976V21.984C108.03 22.016 107.859 22.048 107.624 22.08C107.4 22.112 107.166 22.128 106.92 22.128C106.686 22.128 106.472 22.112 106.28 22.08C106.099 22.048 105.944 21.984 105.816 21.888C105.688 21.792 105.587 21.664 105.512 21.504C105.448 21.3333 105.416 21.1147 105.416 20.848V17.072ZM114.2 16.128C113.934 16.128 113.678 16.1707 113.432 16.256C113.198 16.3413 112.99 16.4693 112.808 16.64C112.638 16.8 112.499 17.0027 112.392 17.248C112.286 17.4933 112.232 17.7813 112.232 18.112C112.232 18.7733 112.419 19.2693 112.792 19.6C113.176 19.9307 113.64 20.096 114.184 20.096C114.504 20.096 114.782 20.0587 115.016 19.984C115.251 19.9093 115.459 19.8293 115.64 19.744C115.854 19.8933 116.014 20.0587 116.12 20.24C116.227 20.4107 116.28 20.6187 116.28 20.864C116.28 21.3013 116.072 21.6427 115.656 21.888C115.24 22.1227 114.664 22.24 113.928 22.24C113.256 22.24 112.648 22.144 112.104 21.952C111.56 21.7493 111.091 21.472 110.696 21.12C110.312 20.7573 110.014 20.3253 109.8 19.824C109.587 19.3227 109.48 18.768 109.48 18.16C109.48 17.456 109.592 16.8427 109.816 16.32C110.051 15.7867 110.366 15.3493 110.76 15.008C111.155 14.6667 111.608 14.4107 112.12 14.24C112.643 14.0693 113.192 13.984 113.768 13.984C114.536 13.984 115.128 14.1227 115.544 14.4C115.96 14.6773 116.168 15.0347 116.168 15.472C116.168 15.6747 116.12 15.8667 116.024 16.048C115.928 16.2187 115.816 16.368 115.688 16.496C115.507 16.4107 115.288 16.3307 115.032 16.256C114.776 16.1707 114.499 16.128 114.2 16.128ZM117.581 12.064C117.581 11.6587 117.714 11.3173 117.981 11.04C118.258 10.7627 118.621 10.624 119.069 10.624C119.517 10.624 119.874 10.7627 120.141 11.04C120.418 11.3173 120.557 11.6587 120.557 12.064C120.557 12.4693 120.418 12.8107 120.141 13.088C119.874 13.3653 119.517 13.504 119.069 13.504C118.621 13.504 118.258 13.3653 117.981 13.088C117.714 12.8107 117.581 12.4693 117.581 12.064ZM120.429 21.984C120.311 22.0053 120.135 22.032 119.901 22.064C119.677 22.1067 119.447 22.128 119.213 22.128C118.978 22.128 118.765 22.112 118.573 22.08C118.391 22.048 118.237 21.984 118.109 21.888C117.981 21.792 117.879 21.664 117.805 21.504C117.741 21.3333 117.709 21.1147 117.709 20.848V14.336C117.826 14.3147 117.997 14.288 118.221 14.256C118.455 14.2133 118.69 14.192 118.924 14.192C119.159 14.192 119.367 14.208 119.549 14.24C119.741 14.272 119.901 14.336 120.029 14.432C120.157 14.528 120.253 14.6613 120.317 14.832C120.391 14.992 120.429 15.2053 120.429 15.472V21.984ZM125.888 13.984C126.325 13.984 126.752 14.048 127.168 14.176C127.595 14.2933 127.963 14.4747 128.272 14.72C128.592 14.5067 128.949 14.3307 129.344 14.192C129.749 14.0533 130.235 13.984 130.8 13.984C131.205 13.984 131.6 14.0373 131.984 14.144C132.379 14.2507 132.725 14.4213 133.024 14.656C133.333 14.88 133.579 15.184 133.76 15.568C133.941 15.9413 134.032 16.4 134.032 16.944V21.984C133.925 22.016 133.755 22.048 133.52 22.08C133.296 22.112 133.061 22.128 132.816 22.128C132.581 22.128 132.368 22.112 132.176 22.08C131.995 22.048 131.84 21.984 131.712 21.888C131.584 21.792 131.483 21.664 131.408 21.504C131.344 21.3333 131.312 21.1147 131.312 20.848V17.024C131.312 16.704 131.221 16.4747 131.04 16.336C130.859 16.1867 130.613 16.112 130.304 16.112C130.155 16.112 129.995 16.1493 129.824 16.224C129.653 16.288 129.525 16.3573 129.44 16.432C129.451 16.4747 129.456 16.5173 129.456 16.56C129.456 16.592 129.456 16.624 129.456 16.656V21.984C129.339 22.016 129.163 22.048 128.928 22.08C128.704 22.112 128.475 22.128 128.24 22.128C128.005 22.128 127.792 22.112 127.6 22.08C127.419 22.048 127.264 21.984 127.136 21.888C127.008 21.792 126.907 21.664 126.832 21.504C126.768 21.3333 126.736 21.1147 126.736 20.848V17.024C126.736 16.704 126.635 16.4747 126.432 16.336C126.24 16.1867 126.005 16.112 125.728 16.112C125.536 16.112 125.371 16.144 125.232 16.208C125.093 16.2613 124.976 16.3147 124.88 16.368V21.984C124.773 22.016 124.603 22.048 124.368 22.08C124.144 22.112 123.909 22.128 123.664 22.128C123.429 22.128 123.216 22.112 123.024 22.08C122.843 22.048 122.688 21.984 122.56 21.888C122.432 21.792 122.331 21.664 122.256 21.504C122.192 21.3333 122.16 21.1147 122.16 20.848V16.016C122.16 15.728 122.219 15.4987 122.336 15.328C122.464 15.1573 122.635 14.9973 122.848 14.848C123.211 14.592 123.659 14.384 124.192 14.224C124.736 14.064 125.301 13.984 125.888 13.984ZM139.803 22.256C139.174 22.256 138.587 22.1707 138.043 22C137.51 21.8187 137.041 21.552 136.635 21.2C136.241 20.848 135.926 20.4053 135.691 19.872C135.467 19.3387 135.355 18.7147 135.355 18C135.355 17.296 135.467 16.6933 135.691 16.192C135.926 15.68 136.23 15.264 136.603 14.944C136.977 14.6133 137.403 14.3733 137.883 14.224C138.363 14.064 138.854 13.984 139.355 13.984C139.921 13.984 140.433 14.0693 140.891 14.24C141.361 14.4107 141.761 14.6453 142.091 14.944C142.433 15.2427 142.694 15.6 142.875 16.016C143.067 16.432 143.163 16.8853 143.163 17.376C143.163 17.7387 143.062 18.016 142.859 18.208C142.657 18.4 142.374 18.5227 142.011 18.576L138.059 19.168C138.177 19.52 138.417 19.7867 138.779 19.968C139.142 20.1387 139.558 20.224 140.027 20.224C140.465 20.224 140.875 20.1707 141.259 20.064C141.654 19.9467 141.974 19.8133 142.219 19.664C142.39 19.7707 142.534 19.92 142.651 20.112C142.769 20.304 142.827 20.5067 142.827 20.72C142.827 21.2 142.603 21.5573 142.155 21.792C141.814 21.9733 141.43 22.096 141.003 22.16C140.577 22.224 140.177 22.256 139.803 22.256ZM139.355 15.968C139.099 15.968 138.875 16.0107 138.683 16.096C138.502 16.1813 138.353 16.2933 138.235 16.432C138.118 16.56 138.027 16.7093 137.963 16.88C137.91 17.04 137.878 17.2053 137.867 17.376L140.603 16.928C140.571 16.7147 140.454 16.5013 140.251 16.288C140.049 16.0747 139.75 15.968 139.355 15.968ZM149.401 17.072C149.401 16.7413 149.305 16.5013 149.113 16.352C148.931 16.192 148.681 16.112 148.361 16.112C148.147 16.112 147.934 16.1387 147.721 16.192C147.518 16.2453 147.342 16.3253 147.193 16.432V21.984C147.086 22.016 146.915 22.048 146.681 22.08C146.457 22.112 146.222 22.128 145.977 22.128C145.742 22.128 145.529 22.112 145.337 22.08C145.155 22.048 145.001 21.984 144.873 21.888C144.745 21.792 144.643 21.664 144.569 21.504C144.505 21.3333 144.473 21.1147 144.473 20.848V16.048C144.473 15.76 144.531 15.5253 144.649 15.344C144.777 15.1627 144.947 14.9973 145.161 14.848C145.523 14.592 145.977 14.384 146.521 14.224C147.075 14.064 147.689 13.984 148.361 13.984C149.566 13.984 150.494 14.2507 151.145 14.784C151.795 15.3067 152.121 16.0373 152.121 16.976V21.984C152.014 22.016 151.843 22.048 151.609 22.08C151.385 22.112 151.15 22.128 150.905 22.128C150.67 22.128 150.457 22.112 150.265 22.08C150.083 22.048 149.929 21.984 149.801 21.888C149.673 21.792 149.571 21.664 149.497 21.504C149.433 21.3333 149.401 21.1147 149.401 20.848V17.072ZM156.521 19.328C156.521 19.6053 156.606 19.8027 156.777 19.92C156.958 20.0373 157.209 20.096 157.529 20.096C157.689 20.096 157.854 20.0853 158.025 20.064C158.195 20.032 158.345 19.9947 158.473 19.952C158.569 20.0693 158.649 20.2027 158.713 20.352C158.787 20.4907 158.825 20.6613 158.825 20.864C158.825 21.2693 158.67 21.6 158.361 21.856C158.062 22.112 157.529 22.24 156.761 22.24C155.822 22.24 155.097 22.0267 154.585 21.6C154.083 21.1733 153.833 20.48 153.833 19.52V12.672C153.95 12.64 154.115 12.608 154.329 12.576C154.553 12.5333 154.787 12.512 155.033 12.512C155.502 12.512 155.865 12.5973 156.121 12.768C156.387 12.928 156.521 13.2747 156.521 13.808V14.832H158.617C158.681 14.9493 158.739 15.0987 158.793 15.28C158.857 15.4507 158.889 15.6427 158.889 15.856C158.889 16.2293 158.803 16.5013 158.633 16.672C158.473 16.832 158.254 16.912 157.977 16.912H156.521V19.328ZM168.161 18.112C168.161 18.7733 168.06 19.3653 167.857 19.888C167.655 20.4 167.367 20.832 166.993 21.184C166.631 21.536 166.193 21.8027 165.681 21.984C165.169 22.1653 164.599 22.256 163.969 22.256C163.34 22.256 162.769 22.16 162.257 21.968C161.745 21.776 161.303 21.504 160.929 21.152C160.567 20.7893 160.284 20.352 160.081 19.84C159.879 19.328 159.777 18.752 159.777 18.112C159.777 17.4827 159.879 16.912 160.081 16.4C160.284 15.888 160.567 15.456 160.929 15.104C161.303 14.7413 161.745 14.464 162.257 14.272C162.769 14.08 163.34 13.984 163.969 13.984C164.599 13.984 165.169 14.0853 165.681 14.288C166.193 14.48 166.631 14.7573 166.993 15.12C167.367 15.472 167.655 15.904 167.857 16.416C168.06 16.928 168.161 17.4933 168.161 18.112ZM162.561 18.112C162.561 18.7627 162.684 19.264 162.929 19.616C163.185 19.9573 163.537 20.128 163.985 20.128C164.433 20.128 164.775 19.952 165.009 19.6C165.255 19.248 165.377 18.752 165.377 18.112C165.377 17.472 165.255 16.9813 165.009 16.64C164.764 16.288 164.417 16.112 163.969 16.112C163.521 16.112 163.175 16.288 162.929 16.64C162.684 16.9813 162.561 17.472 162.561 18.112ZM172.355 18.112C172.355 17.408 172.462 16.8 172.675 16.288C172.889 15.7653 173.182 15.3333 173.555 14.992C173.939 14.6507 174.382 14.4 174.883 14.24C175.395 14.0693 175.945 13.984 176.531 13.984C176.745 13.984 176.953 14.0053 177.155 14.048C177.358 14.08 177.523 14.1227 177.651 14.176V11.584C177.758 11.552 177.929 11.52 178.163 11.488C178.398 11.4453 178.638 11.424 178.883 11.424C179.118 11.424 179.326 11.44 179.507 11.472C179.699 11.504 179.859 11.568 179.987 11.664C180.115 11.76 180.211 11.8933 180.275 12.064C180.339 12.224 180.371 12.4373 180.371 12.704V20.288C180.371 20.7893 180.137 21.1893 179.667 21.488C179.358 21.6907 178.958 21.8667 178.467 22.016C177.977 22.176 177.411 22.256 176.771 22.256C176.078 22.256 175.454 22.16 174.899 21.968C174.355 21.776 173.891 21.4987 173.507 21.136C173.134 20.7733 172.846 20.3413 172.643 19.84C172.451 19.328 172.355 18.752 172.355 18.112ZM176.899 16.112C176.323 16.112 175.881 16.2773 175.571 16.608C175.262 16.9387 175.107 17.44 175.107 18.112C175.107 18.7733 175.251 19.2747 175.539 19.616C175.827 19.9467 176.243 20.112 176.787 20.112C176.979 20.112 177.15 20.0853 177.299 20.032C177.459 19.968 177.582 19.8987 177.667 19.824V16.304C177.454 16.176 177.198 16.112 176.899 16.112ZM186.178 22.256C185.549 22.256 184.962 22.1707 184.418 22C183.885 21.8187 183.416 21.552 183.01 21.2C182.616 20.848 182.301 20.4053 182.066 19.872C181.842 19.3387 181.73 18.7147 181.73 18C181.73 17.296 181.842 16.6933 182.066 16.192C182.301 15.68 182.605 15.264 182.978 14.944C183.352 14.6133 183.778 14.3733 184.258 14.224C184.738 14.064 185.229 13.984 185.73 13.984C186.296 13.984 186.808 14.0693 187.266 14.24C187.736 14.4107 188.136 14.6453 188.466 14.944C188.808 15.2427 189.069 15.6 189.25 16.016C189.442 16.432 189.538 16.8853 189.538 17.376C189.538 17.7387 189.437 18.016 189.234 18.208C189.032 18.4 188.749 18.5227 188.386 18.576L184.434 19.168C184.552 19.52 184.792 19.7867 185.154 19.968C185.517 20.1387 185.933 20.224 186.402 20.224C186.84 20.224 187.25 20.1707 187.634 20.064C188.029 19.9467 188.349 19.8133 188.594 19.664C188.765 19.7707 188.909 19.92 189.026 20.112C189.144 20.304 189.202 20.5067 189.202 20.72C189.202 21.2 188.978 21.5573 188.53 21.792C188.189 21.9733 187.805 22.096 187.378 22.16C186.952 22.224 186.552 22.256 186.178 22.256ZM185.73 15.968C185.474 15.968 185.25 16.0107 185.058 16.096C184.877 16.1813 184.728 16.2933 184.61 16.432C184.493 16.56 184.402 16.7093 184.338 16.88C184.285 17.04 184.253 17.2053 184.242 17.376L186.978 16.928C186.946 16.7147 186.829 16.5013 186.626 16.288C186.424 16.0747 186.125 15.968 185.73 15.968ZM200.611 19.68C200.611 20.4907 200.307 21.1253 199.699 21.584C199.091 22.0427 198.195 22.272 197.011 22.272C196.563 22.272 196.147 22.24 195.763 22.176C195.379 22.112 195.048 22.016 194.771 21.888C194.504 21.7493 194.291 21.5787 194.131 21.376C193.981 21.1733 193.907 20.9333 193.907 20.656C193.907 20.4 193.96 20.1867 194.067 20.016C194.173 19.8347 194.301 19.6853 194.451 19.568C194.76 19.7387 195.112 19.8933 195.507 20.032C195.912 20.16 196.376 20.224 196.899 20.224C197.229 20.224 197.48 20.176 197.651 20.08C197.832 19.984 197.923 19.856 197.923 19.696C197.923 19.5467 197.859 19.4293 197.731 19.344C197.603 19.2587 197.389 19.1893 197.091 19.136L196.611 19.04C195.683 18.8587 194.989 18.576 194.531 18.192C194.083 17.7973 193.859 17.2373 193.859 16.512C193.859 16.1173 193.944 15.76 194.115 15.44C194.285 15.12 194.525 14.8533 194.835 14.64C195.144 14.4267 195.512 14.2613 195.939 14.144C196.376 14.0267 196.856 13.968 197.379 13.968C197.773 13.968 198.141 14 198.483 14.064C198.835 14.1173 199.139 14.2027 199.395 14.32C199.651 14.4373 199.853 14.592 200.003 14.784C200.152 14.9653 200.227 15.184 200.227 15.44C200.227 15.6853 200.179 15.8987 200.083 16.08C199.997 16.2507 199.885 16.3947 199.747 16.512C199.661 16.4587 199.533 16.4053 199.363 16.352C199.192 16.288 199.005 16.2347 198.803 16.192C198.6 16.1387 198.392 16.096 198.179 16.064C197.976 16.032 197.789 16.016 197.619 16.016C197.267 16.016 196.995 16.0587 196.803 16.144C196.611 16.2187 196.515 16.3413 196.515 16.512C196.515 16.6293 196.568 16.7253 196.675 16.8C196.781 16.8747 196.984 16.944 197.283 17.008L197.779 17.12C198.803 17.3547 199.528 17.68 199.955 18.096C200.392 18.5013 200.611 19.0293 200.611 19.68ZM201.926 14.336C202.032 14.304 202.198 14.272 202.422 14.24C202.656 14.208 202.896 14.192 203.142 14.192C203.376 14.192 203.584 14.208 203.766 14.24C203.958 14.272 204.118 14.336 204.246 14.432C204.374 14.528 204.47 14.6613 204.534 14.832C204.608 14.992 204.646 15.2053 204.646 15.472V18.912C204.646 19.3493 204.752 19.664 204.966 19.856C205.179 20.0373 205.488 20.128 205.894 20.128C206.139 20.128 206.336 20.1067 206.486 20.064C206.646 20.0213 206.768 19.9787 206.854 19.936V14.336C206.96 14.304 207.126 14.272 207.35 14.24C207.584 14.208 207.824 14.192 208.07 14.192C208.304 14.192 208.512 14.208 208.694 14.24C208.886 14.272 209.046 14.336 209.174 14.432C209.302 14.528 209.398 14.6613 209.462 14.832C209.536 14.992 209.574 15.2053 209.574 15.472V20.336C209.574 20.8693 209.35 21.2693 208.902 21.536C208.528 21.7707 208.08 21.9467 207.558 22.064C207.046 22.192 206.486 22.256 205.878 22.256C205.302 22.256 204.768 22.192 204.278 22.064C203.798 21.936 203.382 21.7387 203.03 21.472C202.678 21.2053 202.406 20.864 202.214 20.448C202.022 20.0213 201.926 19.5093 201.926 18.912V14.336ZM214.566 20.272C214.748 20.272 214.945 20.256 215.158 20.224C215.382 20.1813 215.548 20.128 215.654 20.064V18.784L214.502 18.88C214.204 18.9013 213.958 18.9653 213.766 19.072C213.574 19.1787 213.478 19.3387 213.478 19.552C213.478 19.7653 213.558 19.9413 213.718 20.08C213.889 20.208 214.172 20.272 214.566 20.272ZM214.438 13.984C215.014 13.984 215.537 14.0427 216.006 14.16C216.486 14.2773 216.892 14.4587 217.222 14.704C217.564 14.9387 217.825 15.2427 218.006 15.616C218.188 15.9787 218.278 16.4107 218.278 16.912V20.496C218.278 20.7733 218.198 21.0027 218.038 21.184C217.889 21.3547 217.708 21.504 217.494 21.632C216.801 22.048 215.825 22.256 214.566 22.256C214.001 22.256 213.489 22.2027 213.03 22.096C212.582 21.9893 212.193 21.8293 211.862 21.616C211.542 21.4027 211.292 21.1307 211.11 20.8C210.94 20.4693 210.854 20.0853 210.854 19.648C210.854 18.912 211.073 18.3467 211.51 17.952C211.948 17.5573 212.625 17.312 213.542 17.216L215.638 16.992V16.88C215.638 16.5707 215.5 16.352 215.222 16.224C214.956 16.0853 214.566 16.016 214.054 16.016C213.649 16.016 213.254 16.0587 212.87 16.144C212.486 16.2293 212.14 16.336 211.83 16.464C211.692 16.368 211.574 16.224 211.478 16.032C211.382 15.8293 211.334 15.6213 211.334 15.408C211.334 15.1307 211.398 14.912 211.526 14.752C211.665 14.5813 211.873 14.4373 212.15 14.32C212.46 14.2027 212.822 14.1173 213.238 14.064C213.665 14.0107 214.065 13.984 214.438 13.984ZM226.501 19.68C226.501 20.4907 226.197 21.1253 225.589 21.584C224.981 22.0427 224.085 22.272 222.901 22.272C222.453 22.272 222.037 22.24 221.653 22.176C221.269 22.112 220.939 22.016 220.661 21.888C220.395 21.7493 220.181 21.5787 220.021 21.376C219.872 21.1733 219.797 20.9333 219.797 20.656C219.797 20.4 219.851 20.1867 219.957 20.016C220.064 19.8347 220.192 19.6853 220.341 19.568C220.651 19.7387 221.003 19.8933 221.397 20.032C221.803 20.16 222.267 20.224 222.789 20.224C223.12 20.224 223.371 20.176 223.541 20.08C223.723 19.984 223.813 19.856 223.813 19.696C223.813 19.5467 223.749 19.4293 223.621 19.344C223.493 19.2587 223.28 19.1893 222.981 19.136L222.501 19.04C221.573 18.8587 220.88 18.576 220.421 18.192C219.973 17.7973 219.749 17.2373 219.749 16.512C219.749 16.1173 219.835 15.76 220.005 15.44C220.176 15.12 220.416 14.8533 220.725 14.64C221.035 14.4267 221.403 14.2613 221.829 14.144C222.267 14.0267 222.747 13.968 223.269 13.968C223.664 13.968 224.032 14 224.373 14.064C224.725 14.1173 225.029 14.2027 225.285 14.32C225.541 14.4373 225.744 14.592 225.893 14.784C226.043 14.9653 226.117 15.184 226.117 15.44C226.117 15.6853 226.069 15.8987 225.973 16.08C225.888 16.2507 225.776 16.3947 225.637 16.512C225.552 16.4587 225.424 16.4053 225.253 16.352C225.083 16.288 224.896 16.2347 224.693 16.192C224.491 16.1387 224.283 16.096 224.069 16.064C223.867 16.032 223.68 16.016 223.509 16.016C223.157 16.016 222.885 16.0587 222.693 16.144C222.501 16.2187 222.405 16.3413 222.405 16.512C222.405 16.6293 222.459 16.7253 222.565 16.8C222.672 16.8747 222.875 16.944 223.173 17.008L223.669 17.12C224.693 17.3547 225.419 17.68 225.845 18.096C226.283 18.5013 226.501 19.0293 226.501 19.68ZM235.132 22.256C234.502 22.256 233.916 22.1707 233.372 22C232.838 21.8187 232.369 21.552 231.964 21.2C231.569 20.848 231.254 20.4053 231.02 19.872C230.796 19.3387 230.684 18.7147 230.684 18C230.684 17.296 230.796 16.6933 231.02 16.192C231.254 15.68 231.558 15.264 231.932 14.944C232.305 14.6133 232.732 14.3733 233.212 14.224C233.692 14.064 234.182 13.984 234.684 13.984C235.249 13.984 235.761 14.0693 236.22 14.24C236.689 14.4107 237.089 14.6453 237.42 14.944C237.761 15.2427 238.022 15.6 238.204 16.016C238.396 16.432 238.492 16.8853 238.492 17.376C238.492 17.7387 238.39 18.016 238.188 18.208C237.985 18.4 237.702 18.5227 237.34 18.576L233.388 19.168C233.505 19.52 233.745 19.7867 234.108 19.968C234.47 20.1387 234.886 20.224 235.356 20.224C235.793 20.224 236.204 20.1707 236.588 20.064C236.982 19.9467 237.302 19.8133 237.548 19.664C237.718 19.7707 237.862 19.92 237.98 20.112C238.097 20.304 238.156 20.5067 238.156 20.72C238.156 21.2 237.932 21.5573 237.484 21.792C237.142 21.9733 236.758 22.096 236.332 22.16C235.905 22.224 235.505 22.256 235.132 22.256ZM234.684 15.968C234.428 15.968 234.204 16.0107 234.012 16.096C233.83 16.1813 233.681 16.2933 233.564 16.432C233.446 16.56 233.356 16.7093 233.292 16.88C233.238 17.04 233.206 17.2053 233.196 17.376L235.932 16.928C235.9 16.7147 235.782 16.5013 235.58 16.288C235.377 16.0747 235.078 15.968 234.684 15.968ZM244.185 16.128C243.918 16.128 243.662 16.1707 243.417 16.256C243.182 16.3413 242.974 16.4693 242.793 16.64C242.622 16.8 242.483 17.0027 242.377 17.248C242.27 17.4933 242.217 17.7813 242.217 18.112C242.217 18.7733 242.403 19.2693 242.777 19.6C243.161 19.9307 243.625 20.096 244.169 20.096C244.489 20.096 244.766 20.0587 245.001 19.984C245.235 19.9093 245.443 19.8293 245.625 19.744C245.838 19.8933 245.998 20.0587 246.105 20.24C246.211 20.4107 246.265 20.6187 246.265 20.864C246.265 21.3013 246.057 21.6427 245.641 21.888C245.225 22.1227 244.649 22.24 243.913 22.24C243.241 22.24 242.633 22.144 242.089 21.952C241.545 21.7493 241.075 21.472 240.681 21.12C240.297 20.7573 239.998 20.3253 239.785 19.824C239.571 19.3227 239.465 18.768 239.465 18.16C239.465 17.456 239.577 16.8427 239.801 16.32C240.035 15.7867 240.35 15.3493 240.745 15.008C241.139 14.6667 241.593 14.4107 242.105 14.24C242.627 14.0693 243.177 13.984 243.753 13.984C244.521 13.984 245.113 14.1227 245.529 14.4C245.945 14.6773 246.153 15.0347 246.153 15.472C246.153 15.6747 246.105 15.8667 246.009 16.048C245.913 16.2187 245.801 16.368 245.673 16.496C245.491 16.4107 245.273 16.3307 245.017 16.256C244.761 16.1707 244.483 16.128 244.185 16.128ZM255.443 18.112C255.443 18.7733 255.341 19.3653 255.139 19.888C254.936 20.4 254.648 20.832 254.275 21.184C253.912 21.536 253.475 21.8027 252.963 21.984C252.451 22.1653 251.88 22.256 251.251 22.256C250.621 22.256 250.051 22.16 249.539 21.968C249.027 21.776 248.584 21.504 248.211 21.152C247.848 20.7893 247.565 20.352 247.363 19.84C247.16 19.328 247.059 18.752 247.059 18.112C247.059 17.4827 247.16 16.912 247.363 16.4C247.565 15.888 247.848 15.456 248.211 15.104C248.584 14.7413 249.027 14.464 249.539 14.272C250.051 14.08 250.621 13.984 251.251 13.984C251.88 13.984 252.451 14.0853 252.963 14.288C253.475 14.48 253.912 14.7573 254.275 15.12C254.648 15.472 254.936 15.904 255.139 16.416C255.341 16.928 255.443 17.4933 255.443 18.112ZM249.843 18.112C249.843 18.7627 249.965 19.264 250.211 19.616C250.467 19.9573 250.819 20.128 251.266 20.128C251.715 20.128 252.056 19.952 252.291 19.6C252.536 19.248 252.659 18.752 252.659 18.112C252.659 17.472 252.536 16.9813 252.291 16.64C252.045 16.288 251.699 16.112 251.251 16.112C250.803 16.112 250.456 16.288 250.211 16.64C249.965 16.9813 249.843 17.472 249.843 18.112ZM261.698 17.072C261.698 16.7413 261.602 16.5013 261.41 16.352C261.228 16.192 260.978 16.112 260.658 16.112C260.444 16.112 260.231 16.1387 260.018 16.192C259.815 16.2453 259.639 16.3253 259.49 16.432V21.984C259.383 22.016 259.212 22.048 258.978 22.08C258.754 22.112 258.519 22.128 258.274 22.128C258.039 22.128 257.826 22.112 257.634 22.08C257.452 22.048 257.298 21.984 257.17 21.888C257.042 21.792 256.94 21.664 256.866 21.504C256.802 21.3333 256.77 21.1147 256.77 20.848V16.048C256.77 15.76 256.828 15.5253 256.946 15.344C257.074 15.1627 257.244 14.9973 257.458 14.848C257.82 14.592 258.274 14.384 258.818 14.224C259.372 14.064 259.986 13.984 260.658 13.984C261.863 13.984 262.791 14.2507 263.442 14.784C264.092 15.3067 264.418 16.0373 264.418 16.976V21.984C264.311 22.016 264.14 22.048 263.906 22.08C263.682 22.112 263.447 22.128 263.202 22.128C262.967 22.128 262.754 22.112 262.562 22.08C262.38 22.048 262.226 21.984 262.098 21.888C261.97 21.792 261.868 21.664 261.794 21.504C261.73 21.3333 261.698 21.1147 261.698 20.848V17.072ZM274.146 18.112C274.146 18.7733 274.044 19.3653 273.842 19.888C273.639 20.4 273.351 20.832 272.978 21.184C272.615 21.536 272.178 21.8027 271.666 21.984C271.154 22.1653 270.583 22.256 269.954 22.256C269.324 22.256 268.754 22.16 268.242 21.968C267.73 21.776 267.287 21.504 266.914 21.152C266.551 20.7893 266.268 20.352 266.066 19.84C265.863 19.328 265.762 18.752 265.762 18.112C265.762 17.4827 265.863 16.912 266.066 16.4C266.268 15.888 266.551 15.456 266.914 15.104C267.287 14.7413 267.73 14.464 268.242 14.272C268.754 14.08 269.324 13.984 269.954 13.984C270.583 13.984 271.154 14.0853 271.666 14.288C272.178 14.48 272.615 14.7573 272.978 15.12C273.351 15.472 273.639 15.904 273.842 16.416C274.044 16.928 274.146 17.4933 274.146 18.112ZM268.546 18.112C268.546 18.7627 268.668 19.264 268.914 19.616C269.17 19.9573 269.522 20.128 269.97 20.128C270.418 20.128 270.759 19.952 270.994 19.6C271.239 19.248 271.362 18.752 271.362 18.112C271.362 17.472 271.239 16.9813 270.994 16.64C270.748 16.288 270.402 16.112 269.954 16.112C269.506 16.112 269.159 16.288 268.914 16.64C268.668 16.9813 268.546 17.472 268.546 18.112ZM279.201 13.984C279.638 13.984 280.065 14.048 280.481 14.176C280.907 14.2933 281.275 14.4747 281.585 14.72C281.905 14.5067 282.262 14.3307 282.657 14.192C283.062 14.0533 283.547 13.984 284.113 13.984C284.518 13.984 284.913 14.0373 285.297 14.144C285.691 14.2507 286.038 14.4213 286.337 14.656C286.646 14.88 286.891 15.184 287.073 15.568C287.254 15.9413 287.345 16.4 287.345 16.944V21.984C287.238 22.016 287.067 22.048 286.833 22.08C286.609 22.112 286.374 22.128 286.129 22.128C285.894 22.128 285.681 22.112 285.489 22.08C285.307 22.048 285.153 21.984 285.025 21.888C284.897 21.792 284.795 21.664 284.721 21.504C284.657 21.3333 284.625 21.1147 284.625 20.848V17.024C284.625 16.704 284.534 16.4747 284.353 16.336C284.171 16.1867 283.926 16.112 283.617 16.112C283.467 16.112 283.307 16.1493 283.137 16.224C282.966 16.288 282.838 16.3573 282.753 16.432C282.763 16.4747 282.769 16.5173 282.769 16.56C282.769 16.592 282.769 16.624 282.769 16.656V21.984C282.651 22.016 282.475 22.048 282.241 22.08C282.017 22.112 281.787 22.128 281.553 22.128C281.318 22.128 281.105 22.112 280.913 22.08C280.731 22.048 280.577 21.984 280.449 21.888C280.321 21.792 280.219 21.664 280.145 21.504C280.081 21.3333 280.049 21.1147 280.049 20.848V17.024C280.049 16.704 279.947 16.4747 279.745 16.336C279.553 16.1867 279.318 16.112 279.041 16.112C278.849 16.112 278.683 16.144 278.545 16.208C278.406 16.2613 278.289 16.3147 278.193 16.368V21.984C278.086 22.016 277.915 22.048 277.681 22.08C277.457 22.112 277.222 22.128 276.977 22.128C276.742 22.128 276.529 22.112 276.337 22.08C276.155 22.048 276.001 21.984 275.873 21.888C275.745 21.792 275.643 21.664 275.569 21.504C275.505 21.3333 275.473 21.1147 275.473 20.848V16.016C275.473 15.728 275.531 15.4987 275.649 15.328C275.777 15.1573 275.947 14.9973 276.161 14.848C276.523 14.592 276.971 14.384 277.505 14.224C278.049 14.064 278.614 13.984 279.201 13.984ZM288.94 12.064C288.94 11.6587 289.073 11.3173 289.34 11.04C289.617 10.7627 289.98 10.624 290.428 10.624C290.876 10.624 291.233 10.7627 291.5 11.04C291.777 11.3173 291.916 11.6587 291.916 12.064C291.916 12.4693 291.777 12.8107 291.5 13.088C291.233 13.3653 290.876 13.504 290.428 13.504C289.98 13.504 289.617 13.3653 289.34 13.088C289.073 12.8107 288.94 12.4693 288.94 12.064ZM291.788 21.984C291.671 22.0053 291.495 22.032 291.26 22.064C291.036 22.1067 290.807 22.128 290.572 22.128C290.337 22.128 290.124 22.112 289.932 22.08C289.751 22.048 289.596 21.984 289.468 21.888C289.34 21.792 289.239 21.664 289.164 21.504C289.1 21.3333 289.068 21.1147 289.068 20.848V14.336C289.185 14.3147 289.356 14.288 289.58 14.256C289.815 14.2133 290.049 14.192 290.284 14.192C290.519 14.192 290.727 14.208 290.908 14.24C291.1 14.272 291.26 14.336 291.388 14.432C291.516 14.528 291.612 14.6613 291.676 14.832C291.751 14.992 291.788 15.2053 291.788 15.472V21.984ZM296.848 20.272C297.029 20.272 297.226 20.256 297.44 20.224C297.664 20.1813 297.829 20.128 297.936 20.064V18.784L296.784 18.88C296.485 18.9013 296.24 18.9653 296.048 19.072C295.856 19.1787 295.76 19.3387 295.76 19.552C295.76 19.7653 295.84 19.9413 296 20.08C296.17 20.208 296.453 20.272 296.848 20.272ZM296.72 13.984C297.296 13.984 297.818 14.0427 298.288 14.16C298.768 14.2773 299.173 14.4587 299.504 14.704C299.845 14.9387 300.106 15.2427 300.288 15.616C300.469 15.9787 300.56 16.4107 300.56 16.912V20.496C300.56 20.7733 300.48 21.0027 300.32 21.184C300.17 21.3547 299.989 21.504 299.776 21.632C299.082 22.048 298.106 22.256 296.848 22.256C296.282 22.256 295.77 22.2027 295.312 22.096C294.864 21.9893 294.474 21.8293 294.144 21.616C293.824 21.4027 293.573 21.1307 293.392 20.8C293.221 20.4693 293.136 20.0853 293.136 19.648C293.136 18.912 293.354 18.3467 293.792 17.952C294.229 17.5573 294.906 17.312 295.824 17.216L297.92 16.992V16.88C297.92 16.5707 297.781 16.352 297.504 16.224C297.237 16.0853 296.848 16.016 296.336 16.016C295.93 16.016 295.536 16.0587 295.152 16.144C294.768 16.2293 294.421 16.336 294.112 16.464C293.973 16.368 293.856 16.224 293.76 16.032C293.664 15.8293 293.616 15.6213 293.616 15.408C293.616 15.1307 293.68 14.912 293.808 14.752C293.946 14.5813 294.154 14.4373 294.432 14.32C294.741 14.2027 295.104 14.1173 295.52 14.064C295.946 14.0107 296.346 13.984 296.72 13.984ZM308.783 19.68C308.783 20.4907 308.479 21.1253 307.871 21.584C307.263 22.0427 306.367 22.272 305.183 22.272C304.735 22.272 304.319 22.24 303.935 22.176C303.551 22.112 303.22 22.016 302.943 21.888C302.676 21.7493 302.463 21.5787 302.303 21.376C302.153 21.1733 302.079 20.9333 302.079 20.656C302.079 20.4 302.132 20.1867 302.239 20.016C302.345 19.8347 302.473 19.6853 302.623 19.568C302.932 19.7387 303.284 19.8933 303.679 20.032C304.084 20.16 304.548 20.224 305.071 20.224C305.401 20.224 305.652 20.176 305.823 20.08C306.004 19.984 306.095 19.856 306.095 19.696C306.095 19.5467 306.031 19.4293 305.903 19.344C305.775 19.2587 305.561 19.1893 305.263 19.136L304.783 19.04C303.855 18.8587 303.161 18.576 302.703 18.192C302.255 17.7973 302.031 17.2373 302.031 16.512C302.031 16.1173 302.116 15.76 302.287 15.44C302.457 15.12 302.697 14.8533 303.007 14.64C303.316 14.4267 303.684 14.2613 304.111 14.144C304.548 14.0267 305.028 13.968 305.551 13.968C305.945 13.968 306.313 14 306.655 14.064C307.007 14.1173 307.311 14.2027 307.567 14.32C307.823 14.4373 308.025 14.592 308.175 14.784C308.324 14.9653 308.399 15.184 308.399 15.44C308.399 15.6853 308.351 15.8987 308.255 16.08C308.169 16.2507 308.057 16.3947 307.919 16.512C307.833 16.4587 307.705 16.4053 307.535 16.352C307.364 16.288 307.177 16.2347 306.975 16.192C306.772 16.1387 306.564 16.096 306.351 16.064C306.148 16.032 305.961 16.016 305.791 16.016C305.439 16.016 305.167 16.0587 304.975 16.144C304.783 16.2187 304.687 16.3413 304.687 16.512C304.687 16.6293 304.74 16.7253 304.847 16.8C304.953 16.8747 305.156 16.944 305.455 17.008L305.951 17.12C306.975 17.3547 307.7 17.68 308.127 18.096C308.564 18.5013 308.783 19.0293 308.783 19.68ZM318.229 17.072C318.229 16.7413 318.133 16.5013 317.941 16.352C317.759 16.192 317.509 16.112 317.189 16.112C316.975 16.112 316.762 16.1387 316.549 16.192C316.346 16.2453 316.17 16.3253 316.021 16.432V21.984C315.914 22.016 315.743 22.048 315.509 22.08C315.285 22.112 315.05 22.128 314.805 22.128C314.57 22.128 314.357 22.112 314.165 22.08C313.983 22.048 313.829 21.984 313.701 21.888C313.573 21.792 313.471 21.664 313.397 21.504C313.333 21.3333 313.301 21.1147 313.301 20.848V16.048C313.301 15.76 313.359 15.5253 313.477 15.344C313.605 15.1627 313.775 14.9973 313.989 14.848C314.351 14.592 314.805 14.384 315.349 14.224C315.903 14.064 316.517 13.984 317.189 13.984C318.394 13.984 319.322 14.2507 319.973 14.784C320.623 15.3067 320.949 16.0373 320.949 16.976V21.984C320.842 22.016 320.671 22.048 320.437 22.08C320.213 22.112 319.978 22.128 319.733 22.128C319.498 22.128 319.285 22.112 319.093 22.08C318.911 22.048 318.757 21.984 318.629 21.888C318.501 21.792 318.399 21.664 318.325 21.504C318.261 21.3333 318.229 21.1147 318.229 20.848V17.072ZM330.677 18.112C330.677 18.7733 330.576 19.3653 330.373 19.888C330.17 20.4 329.882 20.832 329.509 21.184C329.146 21.536 328.709 21.8027 328.197 21.984C327.685 22.1653 327.114 22.256 326.485 22.256C325.856 22.256 325.285 22.16 324.773 21.968C324.261 21.776 323.818 21.504 323.445 21.152C323.082 20.7893 322.8 20.352 322.597 19.84C322.394 19.328 322.293 18.752 322.293 18.112C322.293 17.4827 322.394 16.912 322.597 16.4C322.8 15.888 323.082 15.456 323.445 15.104C323.818 14.7413 324.261 14.464 324.773 14.272C325.285 14.08 325.856 13.984 326.485 13.984C327.114 13.984 327.685 14.0853 328.197 14.288C328.709 14.48 329.146 14.7573 329.509 15.12C329.882 15.472 330.17 15.904 330.373 16.416C330.576 16.928 330.677 17.4933 330.677 18.112ZM325.077 18.112C325.077 18.7627 325.2 19.264 325.445 19.616C325.701 19.9573 326.053 20.128 326.501 20.128C326.949 20.128 327.29 19.952 327.525 19.6C327.77 19.248 327.893 18.752 327.893 18.112C327.893 17.472 327.77 16.9813 327.525 16.64C327.28 16.288 326.933 16.112 326.485 16.112C326.037 16.112 325.69 16.288 325.445 16.64C325.2 16.9813 325.077 17.472 325.077 18.112Z" fill="url(#paint1_linear_15_19)"/>
</g>
<defs>
<filter id="filter0_d_15_19" x="0.743896" y="31.08" width="333.083" height="64.6641" filterUnits="userSpaceOnUse" color-interpolation-filters="sRGB">
<feFlood flood-opacity="0" result="BackgroundImageFix"/>
<feColorMatrix in="SourceAlpha" type="matrix" values="0 0 0 0 0 0 0 0 0 0 0 0 0 0 0 0 0 0 127 0" result="hardAlpha"/>
<feOffset dy="4"/>
<feGaussianBlur stdDeviation="2"/>
<feComposite in2="hardAlpha" operator="out"/>
<feColorMatrix type="matrix" values="0 0 0 0 0 0 0 0 0 0 0 0 0 0 0 0 0 0 0.25 0"/>
<feBlend mode="normal" in2="BackgroundImageFix" result="effect1_dropShadow_15_19"/>
<feBlend mode="normal" in="SourceGraphic" in2="effect1_dropShadow_15_19" result="shape"/>
</filter>
<filter id="filter1_i_15_19" x="-5.95996" y="10.0959" width="336.637" height="21.1841" filterUnits="userSpaceOnUse" color-interpolation-filters="sRGB">
<feFlood flood-opacity="0" result="BackgroundImageFix"/>
<feBlend mode="normal" in="SourceGraphic" in2="BackgroundImageFix" result="shape"/>
<feColorMatrix in="SourceAlpha" type="matrix" values="0 0 0 0 0 0 0 0 0 0 0 0 0 0 0 0 0 0 127 0" result="hardAlpha"/>
<feOffset dx="-8" dy="6"/>
<feGaussianBlur stdDeviation="6"/>
<feComposite in2="hardAlpha" operator="arithmetic" k2="-1" k3="1"/>
<feColorMatrix type="matrix" values="0 0 0 0 0 0 0 0 0 0 0 0 0 0 0 0 0 0 0.25 0"/>
<feBlend mode="normal" in2="shape" result="effect1_innerShadow_15_19"/>
</filter>
<linearGradient id="paint0_linear_15_19" x1="1" y1="0" x2="333.827" y2="5.66574" gradientUnits="userSpaceOnUse">
<stop stop-color="#0E6607"/>
<stop offset="0.255208" stop-color="#053D00" stop-opacity="0.744792"/>
<stop offset="1" stop-color="#097000"/>
</linearGradient>
<linearGradient id="paint1_linear_15_19" x1="1" y1="5" x2="331.964" y2="30.4658" gradientUnits="userSpaceOnUse">
<stop stop-color="#097200"/>
<stop offset="0.255208" stop-color="#097200" stop-opacity="0.744792"/>
<stop offset="1" stop-color="#3B8135"/>
</linearGradient>
</defs>
</svg>
