<svg width="334" height="113" viewBox="0 0 334 113" fill="none" xmlns="http://www.w3.org/2000/svg">
<g filter="url(#filter0_i_7_643)">
<path d="M8.856 8.304C8.93067 8.42133 8.99467 8.58133 9.048 8.784C9.112 8.976 9.144 9.17867 9.144 9.392C9.144 9.808 9.05333 10.1067 8.872 10.288C8.70133 10.4587 8.46667 10.544 8.168 10.544H4.808V12.352H8.312C8.39733 12.4693 8.46667 12.624 8.52 12.816C8.584 13.008 8.616 13.2107 8.616 13.424C8.616 13.8293 8.52533 14.1227 8.344 14.304C8.17333 14.4747 7.93867 14.56 7.64 14.56H4.84V17.936C4.72267 17.968 4.536 18 4.28 18.032C4.03467 18.064 3.78933 18.08 3.544 18.08C3.29867 18.08 3.08 18.0587 2.888 18.016C2.70667 17.984 2.552 17.92 2.424 17.824C2.296 17.728 2.2 17.5947 2.136 17.424C2.072 17.2533 2.04 17.0293 2.04 16.752V9.792C2.04 9.33333 2.17333 8.97067 2.44 8.704C2.70667 8.43733 3.06933 8.304 3.528 8.304H8.856ZM13.3006 16.272C13.482 16.272 13.6793 16.256 13.8926 16.224C14.1166 16.1813 14.282 16.128 14.3886 16.064V14.784L13.2366 14.88C12.938 14.9013 12.6926 14.9653 12.5006 15.072C12.3086 15.1787 12.2126 15.3387 12.2126 15.552C12.2126 15.7653 12.2926 15.9413 12.4526 16.08C12.6233 16.208 12.906 16.272 13.3006 16.272ZM13.1726 9.984C13.7486 9.984 14.2713 10.0427 14.7406 10.16C15.2206 10.2773 15.626 10.4587 15.9566 10.704C16.298 10.9387 16.5593 11.2427 16.7406 11.616C16.922 11.9787 17.0126 12.4107 17.0126 12.912V16.496C17.0126 16.7733 16.9326 17.0027 16.7726 17.184C16.6233 17.3547 16.442 17.504 16.2286 17.632C15.5353 18.048 14.5593 18.256 13.3006 18.256C12.7353 18.256 12.2233 18.2027 11.7646 18.096C11.3166 17.9893 10.9273 17.8293 10.5966 17.616C10.2766 17.4027 10.026 17.1307 9.84463 16.8C9.67396 16.4693 9.58863 16.0853 9.58863 15.648C9.58863 14.912 9.80729 14.3467 10.2446 13.952C10.682 13.5573 11.3593 13.312 12.2766 13.216L14.3726 12.992V12.88C14.3726 12.5707 14.234 12.352 13.9566 12.224C13.69 12.0853 13.3006 12.016 12.7886 12.016C12.3833 12.016 11.9886 12.0587 11.6046 12.144C11.2206 12.2293 10.874 12.336 10.5646 12.464C10.426 12.368 10.3086 12.224 10.2126 12.032C10.1166 11.8293 10.0686 11.6213 10.0686 11.408C10.0686 11.1307 10.1326 10.912 10.2606 10.752C10.3993 10.5813 10.6073 10.4373 10.8846 10.32C11.194 10.2027 11.5566 10.1173 11.9726 10.064C12.3993 10.0107 12.7993 9.984 13.1726 9.984ZM21.5398 18.112C21.0491 18.0053 20.6064 17.8347 20.2118 17.6C19.8171 17.3653 19.4811 17.0773 19.2038 16.736C18.9264 16.3947 18.7131 16.0107 18.5638 15.584C18.4144 15.1467 18.3398 14.672 18.3398 14.16C18.3398 13.456 18.4518 12.8427 18.6758 12.32C18.9104 11.7867 19.2251 11.3493 19.6198 11.008C20.0144 10.6667 20.4678 10.4107 20.9798 10.24C21.5024 10.0693 22.0518 9.984 22.6278 9.984C23.3958 9.984 23.9878 10.1227 24.4038 10.4C24.8198 10.6773 25.0278 11.0347 25.0278 11.472C25.0278 11.6747 24.9798 11.8667 24.8838 12.048C24.7878 12.2187 24.6758 12.368 24.5478 12.496C24.3664 12.4107 24.1478 12.3307 23.8918 12.256C23.6358 12.1707 23.3584 12.128 23.0598 12.128C22.7931 12.128 22.5371 12.1707 22.2918 12.256C22.0571 12.3413 21.8491 12.4693 21.6678 12.64C21.4971 12.8 21.3584 13.0027 21.2518 13.248C21.1451 13.4933 21.0918 13.7813 21.0918 14.112C21.0918 14.7733 21.2784 15.2693 21.6518 15.6C22.0358 15.9307 22.4998 16.096 23.0438 16.096C23.3638 16.096 23.6411 16.0587 23.8758 15.984C24.1104 15.9093 24.3184 15.8293 24.4998 15.744C24.7131 15.8933 24.8731 16.0587 24.9798 16.24C25.0864 16.4107 25.1398 16.6187 25.1398 16.864C25.1398 17.1947 25.0118 17.472 24.7558 17.696C24.5104 17.92 24.1584 18.0747 23.6998 18.16C23.7851 18.3093 23.8491 18.5067 23.8918 18.752C23.9344 18.9973 23.9558 19.2107 23.9558 19.392C23.9558 19.936 23.7851 20.384 23.4438 20.736C23.1024 21.0987 22.6278 21.28 22.0198 21.28C21.5824 21.28 21.2251 21.168 20.9478 20.944C20.6704 20.7307 20.5318 20.4213 20.5318 20.016C20.5318 19.8347 20.5531 19.6747 20.5958 19.536C20.9371 19.5147 21.2038 19.4293 21.3958 19.28C21.5878 19.1413 21.6838 18.9493 21.6838 18.704C21.6838 18.5973 21.6678 18.4907 21.6358 18.384C21.6144 18.288 21.5824 18.1973 21.5398 18.112ZM29.91 16.272C30.0913 16.272 30.2887 16.256 30.502 16.224C30.726 16.1813 30.8913 16.128 30.998 16.064V14.784L29.846 14.88C29.5473 14.9013 29.302 14.9653 29.11 15.072C28.918 15.1787 28.822 15.3387 28.822 15.552C28.822 15.7653 28.902 15.9413 29.062 16.08C29.2327 16.208 29.5153 16.272 29.91 16.272ZM29.782 9.984C30.358 9.984 30.8807 10.0427 31.35 10.16C31.83 10.2773 32.2353 10.4587 32.566 10.704C32.9073 10.9387 33.1687 11.2427 33.35 11.616C33.5313 11.9787 33.622 12.4107 33.622 12.912V16.496C33.622 16.7733 33.542 17.0027 33.382 17.184C33.2327 17.3547 33.0513 17.504 32.838 17.632C32.1447 18.048 31.1687 18.256 29.91 18.256C29.3447 18.256 28.8327 18.2027 28.374 18.096C27.926 17.9893 27.5367 17.8293 27.206 17.616C26.886 17.4027 26.6353 17.1307 26.454 16.8C26.2833 16.4693 26.198 16.0853 26.198 15.648C26.198 14.912 26.4167 14.3467 26.854 13.952C27.2913 13.5573 27.9687 13.312 28.886 13.216L30.982 12.992V12.88C30.982 12.5707 30.8433 12.352 30.566 12.224C30.2993 12.0853 29.91 12.016 29.398 12.016C28.9927 12.016 28.598 12.0587 28.214 12.144C27.83 12.2293 27.4833 12.336 27.174 12.464C27.0353 12.368 26.918 12.224 26.822 12.032C26.726 11.8293 26.678 11.6213 26.678 11.408C26.678 11.1307 26.742 10.912 26.87 10.752C27.0087 10.5813 27.2167 10.4373 27.494 10.32C27.8033 10.2027 28.166 10.1173 28.582 10.064C29.0087 10.0107 29.4087 9.984 29.782 9.984ZM38.5043 8.064C38.5043 7.65867 38.6376 7.31733 38.9043 7.04C39.1816 6.76267 39.5443 6.624 39.9923 6.624C40.4403 6.624 40.7976 6.76267 41.0643 7.04C41.3416 7.31733 41.4803 7.65867 41.4803 8.064C41.4803 8.46933 41.3416 8.81067 41.0643 9.088C40.7976 9.36533 40.4403 9.504 39.9923 9.504C39.5443 9.504 39.1816 9.36533 38.9043 9.088C38.6376 8.81067 38.5043 8.46933 38.5043 8.064ZM37.9603 19.088C38.1949 18.9387 38.3656 18.7307 38.4723 18.464C38.5789 18.208 38.6323 17.92 38.6323 17.6V10.336C38.7496 10.3147 38.9203 10.288 39.1443 10.256C39.3789 10.2133 39.6136 10.192 39.8483 10.192C40.0829 10.192 40.2909 10.208 40.4723 10.24C40.6643 10.272 40.8243 10.336 40.9523 10.432C41.0803 10.528 41.1763 10.6613 41.2403 10.832C41.3149 10.992 41.3523 11.2053 41.3523 11.472V17.856C41.3523 18.304 41.2989 18.7093 41.1923 19.072C41.0856 19.4347 40.9309 19.744 40.7283 20C40.5363 20.2667 40.2963 20.4693 40.0082 20.608C39.7309 20.7573 39.4163 20.832 39.0643 20.832C38.5949 20.832 38.2269 20.688 37.9603 20.4C37.6936 20.1227 37.5549 19.7707 37.5442 19.344L37.9603 19.088ZM46.41 16.272C46.5913 16.272 46.7887 16.256 47.002 16.224C47.226 16.1813 47.3913 16.128 47.498 16.064V14.784L46.346 14.88C46.0473 14.9013 45.802 14.9653 45.61 15.072C45.418 15.1787 45.322 15.3387 45.322 15.552C45.322 15.7653 45.402 15.9413 45.562 16.08C45.7327 16.208 46.0153 16.272 46.41 16.272ZM46.282 9.984C46.858 9.984 47.3807 10.0427 47.85 10.16C48.33 10.2773 48.7353 10.4587 49.066 10.704C49.4073 10.9387 49.6687 11.2427 49.85 11.616C50.0313 11.9787 50.122 12.4107 50.122 12.912V16.496C50.122 16.7733 50.042 17.0027 49.882 17.184C49.7327 17.3547 49.5513 17.504 49.338 17.632C48.6447 18.048 47.6687 18.256 46.41 18.256C45.8447 18.256 45.3327 18.2027 44.874 18.096C44.426 17.9893 44.0367 17.8293 43.706 17.616C43.386 17.4027 43.1353 17.1307 42.954 16.8C42.7833 16.4693 42.698 16.0853 42.698 15.648C42.698 14.912 42.9167 14.3467 43.354 13.952C43.7913 13.5573 44.4687 13.312 45.386 13.216L47.482 12.992V12.88C47.482 12.5707 47.3433 12.352 47.066 12.224C46.7993 12.0853 46.41 12.016 45.898 12.016C45.4927 12.016 45.098 12.0587 44.714 12.144C44.33 12.2293 43.9833 12.336 43.674 12.464C43.5353 12.368 43.418 12.224 43.322 12.032C43.226 11.8293 43.178 11.6213 43.178 11.408C43.178 11.1307 43.242 10.912 43.37 10.752C43.5087 10.5813 43.7167 10.4373 43.994 10.32C44.3033 10.2027 44.666 10.1173 45.082 10.064C45.5087 10.0107 45.9087 9.984 46.282 9.984ZM46.858 6.096C47.4127 6.096 47.8127 6.20267 48.058 6.416C48.314 6.62933 48.442 6.88533 48.442 7.184C48.442 7.46133 48.3673 7.696 48.218 7.888C48.0687 8.06933 47.8233 8.25067 47.482 8.432L45.418 9.52C45.098 9.488 44.826 9.36 44.602 9.136C44.378 8.912 44.266 8.672 44.266 8.416C44.266 8.288 44.298 8.16 44.362 8.032C44.426 7.904 44.5327 7.78667 44.682 7.68L46.858 6.096ZM63.0363 14.112C63.0363 14.7733 62.9349 15.3653 62.7323 15.888C62.5296 16.4 62.2416 16.832 61.8683 17.184C61.5056 17.536 61.0683 17.8027 60.5563 17.984C60.0443 18.1653 59.4736 18.256 58.8443 18.256C58.2149 18.256 57.6443 18.16 57.1323 17.968C56.6203 17.776 56.1776 17.504 55.8043 17.152C55.4416 16.7893 55.1589 16.352 54.9563 15.84C54.7536 15.328 54.6523 14.752 54.6523 14.112C54.6523 13.4827 54.7536 12.912 54.9563 12.4C55.1589 11.888 55.4416 11.456 55.8043 11.104C56.1776 10.7413 56.6203 10.464 57.1323 10.272C57.6443 10.08 58.2149 9.984 58.8443 9.984C59.4736 9.984 60.0443 10.0853 60.5563 10.288C61.0683 10.48 61.5056 10.7573 61.8683 11.12C62.2416 11.472 62.5296 11.904 62.7323 12.416C62.9349 12.928 63.0363 13.4933 63.0363 14.112ZM57.4363 14.112C57.4363 14.7627 57.5589 15.264 57.8043 15.616C58.0603 15.9573 58.4123 16.128 58.8602 16.128C59.3083 16.128 59.6496 15.952 59.8843 15.6C60.1296 15.248 60.2523 14.752 60.2523 14.112C60.2523 13.472 60.1296 12.9813 59.8843 12.64C59.6389 12.288 59.2923 12.112 58.8443 12.112C58.3963 12.112 58.0496 12.288 57.8043 12.64C57.5589 12.9813 57.4363 13.472 57.4363 14.112ZM71.3584 9.984C71.9664 9.984 72.5157 10.064 73.0064 10.224C73.5077 10.3733 73.929 10.5707 74.2704 10.816C74.4837 10.9653 74.649 11.1307 74.7664 11.312C74.8944 11.4933 74.9584 11.728 74.9584 12.016V17.616C74.9584 18.1813 74.8517 18.6667 74.6384 19.072C74.425 19.488 74.1317 19.8293 73.7584 20.096C73.3957 20.3733 72.9637 20.576 72.4624 20.704C71.9717 20.832 71.4437 20.896 70.8784 20.896C69.9077 20.896 69.145 20.7627 68.5904 20.496C68.0357 20.24 67.7584 19.8187 67.7584 19.232C67.7584 18.9867 67.8064 18.768 67.9024 18.576C68.009 18.3947 68.1264 18.256 68.2544 18.16C68.5637 18.3307 68.9104 18.4747 69.2944 18.592C69.689 18.7093 70.0944 18.768 70.5104 18.768C71.0864 18.768 71.545 18.672 71.8864 18.48C72.2277 18.288 72.3984 17.9787 72.3984 17.552V17.296C71.961 17.488 71.4277 17.584 70.7984 17.584C70.3184 17.584 69.8597 17.5147 69.4224 17.376C68.9957 17.2267 68.617 17.0027 68.2864 16.704C67.9664 16.3947 67.705 16 67.5024 15.52C67.3104 15.04 67.2144 14.4693 67.2144 13.808C67.2144 13.1573 67.3157 12.592 67.5184 12.112C67.7317 11.632 68.0197 11.2373 68.3824 10.928C68.7557 10.608 69.193 10.3733 69.6944 10.224C70.2064 10.064 70.761 9.984 71.3584 9.984ZM72.3504 12.304C72.2757 12.2613 72.1637 12.2187 72.0144 12.176C71.8757 12.1333 71.6997 12.112 71.4864 12.112C70.9637 12.112 70.569 12.2613 70.3024 12.56C70.0464 12.848 69.9184 13.264 69.9184 13.808C69.9184 14.4267 70.0464 14.8747 70.3024 15.152C70.569 15.4187 70.905 15.552 71.3104 15.552C71.7477 15.552 72.0944 15.4507 72.3504 15.248V12.304ZM80.7565 18.256C80.1272 18.256 79.5405 18.1707 78.9965 18C78.4632 17.8187 77.9938 17.552 77.5885 17.2C77.1938 16.848 76.8792 16.4053 76.6445 15.872C76.4205 15.3387 76.3085 14.7147 76.3085 14C76.3085 13.296 76.4205 12.6933 76.6445 12.192C76.8792 11.68 77.1832 11.264 77.5565 10.944C77.9298 10.6133 78.3565 10.3733 78.8365 10.224C79.3165 10.064 79.8072 9.984 80.3085 9.984C80.8738 9.984 81.3858 10.0693 81.8445 10.24C82.3138 10.4107 82.7138 10.6453 83.0445 10.944C83.3858 11.2427 83.6472 11.6 83.8285 12.016C84.0205 12.432 84.1165 12.8853 84.1165 13.376C84.1165 13.7387 84.0152 14.016 83.8125 14.208C83.6098 14.4 83.3272 14.5227 82.9645 14.576L79.0125 15.168C79.1298 15.52 79.3698 15.7867 79.7325 15.968C80.0952 16.1387 80.5112 16.224 80.9805 16.224C81.4178 16.224 81.8285 16.1707 82.2125 16.064C82.6072 15.9467 82.9272 15.8133 83.1725 15.664C83.3432 15.7707 83.4872 15.92 83.6045 16.112C83.7218 16.304 83.7805 16.5067 83.7805 16.72C83.7805 17.2 83.5565 17.5573 83.1085 17.792C82.7672 17.9733 82.3832 18.096 81.9565 18.16C81.5298 18.224 81.1298 18.256 80.7565 18.256ZM80.3085 11.968C80.0525 11.968 79.8285 12.0107 79.6365 12.096C79.4552 12.1813 79.3058 12.2933 79.1885 12.432C79.0712 12.56 78.9805 12.7093 78.9165 12.88C78.8632 13.04 78.8312 13.2053 78.8205 13.376L81.5565 12.928C81.5245 12.7147 81.4072 12.5013 81.2045 12.288C81.0018 12.0747 80.7032 11.968 80.3085 11.968ZM88.1458 17.984C88.0391 18.016 87.8684 18.048 87.6338 18.08C87.4098 18.112 87.1751 18.128 86.9298 18.128C86.6951 18.128 86.4818 18.112 86.2898 18.08C86.1084 18.048 85.9538 17.984 85.8258 17.888C85.6978 17.792 85.5964 17.664 85.5218 17.504C85.4578 17.3333 85.4258 17.1147 85.4258 16.848V12.048C85.4258 11.8027 85.4684 11.5947 85.5538 11.424C85.6498 11.2427 85.7831 11.0827 85.9538 10.944C86.1244 10.8053 86.3324 10.6827 86.5778 10.576C86.8338 10.4587 87.1058 10.3573 87.3938 10.272C87.6818 10.1867 87.9804 10.1227 88.2898 10.08C88.5991 10.0267 88.9084 10 89.2178 10C89.7298 10 90.1351 10.1013 90.4338 10.304C90.7324 10.496 90.8818 10.816 90.8818 11.264C90.8818 11.4133 90.8604 11.5627 90.8178 11.712C90.7751 11.8507 90.7218 11.9787 90.6578 12.096C90.4338 12.096 90.2044 12.1067 89.9698 12.128C89.7351 12.1493 89.5058 12.1813 89.2818 12.224C89.0578 12.2667 88.8444 12.3147 88.6418 12.368C88.4498 12.4107 88.2844 12.464 88.1458 12.528V17.984ZM95.819 18.256C95.1897 18.256 94.603 18.1707 94.059 18C93.5257 17.8187 93.0563 17.552 92.651 17.2C92.2563 16.848 91.9417 16.4053 91.707 15.872C91.483 15.3387 91.371 14.7147 91.371 14C91.371 13.296 91.483 12.6933 91.707 12.192C91.9417 11.68 92.2457 11.264 92.619 10.944C92.9923 10.6133 93.419 10.3733 93.899 10.224C94.379 10.064 94.8697 9.984 95.371 9.984C95.9363 9.984 96.4483 10.0693 96.907 10.24C97.3763 10.4107 97.7763 10.6453 98.107 10.944C98.4483 11.2427 98.7097 11.6 98.891 12.016C99.083 12.432 99.179 12.8853 99.179 13.376C99.179 13.7387 99.0777 14.016 98.875 14.208C98.6723 14.4 98.3897 14.5227 98.027 14.576L94.075 15.168C94.1923 15.52 94.4323 15.7867 94.795 15.968C95.1577 16.1387 95.5737 16.224 96.043 16.224C96.4803 16.224 96.891 16.1707 97.275 16.064C97.6697 15.9467 97.9897 15.8133 98.235 15.664C98.4057 15.7707 98.5497 15.92 98.667 16.112C98.7843 16.304 98.843 16.5067 98.843 16.72C98.843 17.2 98.619 17.5573 98.171 17.792C97.8297 17.9733 97.4457 18.096 97.019 18.16C96.5923 18.224 96.1923 18.256 95.819 18.256ZM95.371 11.968C95.115 11.968 94.891 12.0107 94.699 12.096C94.5177 12.1813 94.3683 12.2933 94.251 12.432C94.1337 12.56 94.043 12.7093 93.979 12.88C93.9257 13.04 93.8937 13.2053 93.883 13.376L96.619 12.928C96.587 12.7147 96.4697 12.5013 96.267 12.288C96.0643 12.0747 95.7657 11.968 95.371 11.968ZM105.416 13.072C105.416 12.7413 105.32 12.5013 105.128 12.352C104.947 12.192 104.696 12.112 104.376 12.112C104.163 12.112 103.95 12.1387 103.736 12.192C103.534 12.2453 103.358 12.3253 103.208 12.432V17.984C103.102 18.016 102.931 18.048 102.696 18.08C102.472 18.112 102.238 18.128 101.992 18.128C101.758 18.128 101.544 18.112 101.352 18.08C101.171 18.048 101.016 17.984 100.888 17.888C100.76 17.792 100.659 17.664 100.584 17.504C100.52 17.3333 100.488 17.1147 100.488 16.848V12.048C100.488 11.76 100.547 11.5253 100.664 11.344C100.792 11.1627 100.963 10.9973 101.176 10.848C101.539 10.592 101.992 10.384 102.536 10.224C103.091 10.064 103.704 9.984 104.376 9.984C105.582 9.984 106.51 10.2507 107.16 10.784C107.811 11.3067 108.136 12.0373 108.136 12.976V17.984C108.03 18.016 107.859 18.048 107.624 18.08C107.4 18.112 107.166 18.128 106.92 18.128C106.686 18.128 106.472 18.112 106.28 18.08C106.099 18.048 105.944 17.984 105.816 17.888C105.688 17.792 105.587 17.664 105.512 17.504C105.448 17.3333 105.416 17.1147 105.416 16.848V13.072ZM114.2 12.128C113.934 12.128 113.678 12.1707 113.432 12.256C113.198 12.3413 112.99 12.4693 112.808 12.64C112.638 12.8 112.499 13.0027 112.392 13.248C112.286 13.4933 112.232 13.7813 112.232 14.112C112.232 14.7733 112.419 15.2693 112.792 15.6C113.176 15.9307 113.64 16.096 114.184 16.096C114.504 16.096 114.782 16.0587 115.016 15.984C115.251 15.9093 115.459 15.8293 115.64 15.744C115.854 15.8933 116.014 16.0587 116.12 16.24C116.227 16.4107 116.28 16.6187 116.28 16.864C116.28 17.3013 116.072 17.6427 115.656 17.888C115.24 18.1227 114.664 18.24 113.928 18.24C113.256 18.24 112.648 18.144 112.104 17.952C111.56 17.7493 111.091 17.472 110.696 17.12C110.312 16.7573 110.014 16.3253 109.8 15.824C109.587 15.3227 109.48 14.768 109.48 14.16C109.48 13.456 109.592 12.8427 109.816 12.32C110.051 11.7867 110.366 11.3493 110.76 11.008C111.155 10.6667 111.608 10.4107 112.12 10.24C112.643 10.0693 113.192 9.984 113.768 9.984C114.536 9.984 115.128 10.1227 115.544 10.4C115.96 10.6773 116.168 11.0347 116.168 11.472C116.168 11.6747 116.12 11.8667 116.024 12.048C115.928 12.2187 115.816 12.368 115.688 12.496C115.507 12.4107 115.288 12.3307 115.032 12.256C114.776 12.1707 114.499 12.128 114.2 12.128ZM117.581 8.064C117.581 7.65867 117.714 7.31733 117.981 7.04C118.258 6.76267 118.621 6.624 119.069 6.624C119.517 6.624 119.874 6.76267 120.141 7.04C120.418 7.31733 120.557 7.65867 120.557 8.064C120.557 8.46933 120.418 8.81067 120.141 9.088C119.874 9.36533 119.517 9.504 119.069 9.504C118.621 9.504 118.258 9.36533 117.981 9.088C117.714 8.81067 117.581 8.46933 117.581 8.064ZM120.429 17.984C120.311 18.0053 120.135 18.032 119.901 18.064C119.677 18.1067 119.447 18.128 119.213 18.128C118.978 18.128 118.765 18.112 118.573 18.08C118.391 18.048 118.237 17.984 118.109 17.888C117.981 17.792 117.879 17.664 117.805 17.504C117.741 17.3333 117.709 17.1147 117.709 16.848V10.336C117.826 10.3147 117.997 10.288 118.221 10.256C118.455 10.2133 118.69 10.192 118.924 10.192C119.159 10.192 119.367 10.208 119.549 10.24C119.741 10.272 119.901 10.336 120.029 10.432C120.157 10.528 120.253 10.6613 120.317 10.832C120.391 10.992 120.429 11.2053 120.429 11.472V17.984ZM125.888 9.984C126.325 9.984 126.752 10.048 127.168 10.176C127.595 10.2933 127.963 10.4747 128.272 10.72C128.592 10.5067 128.949 10.3307 129.344 10.192C129.749 10.0533 130.235 9.984 130.8 9.984C131.205 9.984 131.6 10.0373 131.984 10.144C132.379 10.2507 132.725 10.4213 133.024 10.656C133.333 10.88 133.579 11.184 133.76 11.568C133.941 11.9413 134.032 12.4 134.032 12.944V17.984C133.925 18.016 133.755 18.048 133.52 18.08C133.296 18.112 133.061 18.128 132.816 18.128C132.581 18.128 132.368 18.112 132.176 18.08C131.995 18.048 131.84 17.984 131.712 17.888C131.584 17.792 131.483 17.664 131.408 17.504C131.344 17.3333 131.312 17.1147 131.312 16.848V13.024C131.312 12.704 131.221 12.4747 131.04 12.336C130.859 12.1867 130.613 12.112 130.304 12.112C130.155 12.112 129.995 12.1493 129.824 12.224C129.653 12.288 129.525 12.3573 129.44 12.432C129.451 12.4747 129.456 12.5173 129.456 12.56C129.456 12.592 129.456 12.624 129.456 12.656V17.984C129.339 18.016 129.163 18.048 128.928 18.08C128.704 18.112 128.475 18.128 128.24 18.128C128.005 18.128 127.792 18.112 127.6 18.08C127.419 18.048 127.264 17.984 127.136 17.888C127.008 17.792 126.907 17.664 126.832 17.504C126.768 17.3333 126.736 17.1147 126.736 16.848V13.024C126.736 12.704 126.635 12.4747 126.432 12.336C126.24 12.1867 126.005 12.112 125.728 12.112C125.536 12.112 125.371 12.144 125.232 12.208C125.093 12.2613 124.976 12.3147 124.88 12.368V17.984C124.773 18.016 124.603 18.048 124.368 18.08C124.144 18.112 123.909 18.128 123.664 18.128C123.429 18.128 123.216 18.112 123.024 18.08C122.843 18.048 122.688 17.984 122.56 17.888C122.432 17.792 122.331 17.664 122.256 17.504C122.192 17.3333 122.16 17.1147 122.16 16.848V12.016C122.16 11.728 122.219 11.4987 122.336 11.328C122.464 11.1573 122.635 10.9973 122.848 10.848C123.211 10.592 123.659 10.384 124.192 10.224C124.736 10.064 125.301 9.984 125.888 9.984ZM139.803 18.256C139.174 18.256 138.587 18.1707 138.043 18C137.51 17.8187 137.041 17.552 136.635 17.2C136.241 16.848 135.926 16.4053 135.691 15.872C135.467 15.3387 135.355 14.7147 135.355 14C135.355 13.296 135.467 12.6933 135.691 12.192C135.926 11.68 136.23 11.264 136.603 10.944C136.977 10.6133 137.403 10.3733 137.883 10.224C138.363 10.064 138.854 9.984 139.355 9.984C139.921 9.984 140.433 10.0693 140.891 10.24C141.361 10.4107 141.761 10.6453 142.091 10.944C142.433 11.2427 142.694 11.6 142.875 12.016C143.067 12.432 143.163 12.8853 143.163 13.376C143.163 13.7387 143.062 14.016 142.859 14.208C142.657 14.4 142.374 14.5227 142.011 14.576L138.059 15.168C138.177 15.52 138.417 15.7867 138.779 15.968C139.142 16.1387 139.558 16.224 140.027 16.224C140.465 16.224 140.875 16.1707 141.259 16.064C141.654 15.9467 141.974 15.8133 142.219 15.664C142.39 15.7707 142.534 15.92 142.651 16.112C142.769 16.304 142.827 16.5067 142.827 16.72C142.827 17.2 142.603 17.5573 142.155 17.792C141.814 17.9733 141.43 18.096 141.003 18.16C140.577 18.224 140.177 18.256 139.803 18.256ZM139.355 11.968C139.099 11.968 138.875 12.0107 138.683 12.096C138.502 12.1813 138.353 12.2933 138.235 12.432C138.118 12.56 138.027 12.7093 137.963 12.88C137.91 13.04 137.878 13.2053 137.867 13.376L140.603 12.928C140.571 12.7147 140.454 12.5013 140.251 12.288C140.049 12.0747 139.75 11.968 139.355 11.968ZM149.401 13.072C149.401 12.7413 149.305 12.5013 149.113 12.352C148.931 12.192 148.681 12.112 148.361 12.112C148.147 12.112 147.934 12.1387 147.721 12.192C147.518 12.2453 147.342 12.3253 147.193 12.432V17.984C147.086 18.016 146.915 18.048 146.681 18.08C146.457 18.112 146.222 18.128 145.977 18.128C145.742 18.128 145.529 18.112 145.337 18.08C145.155 18.048 145.001 17.984 144.873 17.888C144.745 17.792 144.643 17.664 144.569 17.504C144.505 17.3333 144.473 17.1147 144.473 16.848V12.048C144.473 11.76 144.531 11.5253 144.649 11.344C144.777 11.1627 144.947 10.9973 145.161 10.848C145.523 10.592 145.977 10.384 146.521 10.224C147.075 10.064 147.689 9.984 148.361 9.984C149.566 9.984 150.494 10.2507 151.145 10.784C151.795 11.3067 152.121 12.0373 152.121 12.976V17.984C152.014 18.016 151.843 18.048 151.609 18.08C151.385 18.112 151.15 18.128 150.905 18.128C150.67 18.128 150.457 18.112 150.265 18.08C150.083 18.048 149.929 17.984 149.801 17.888C149.673 17.792 149.571 17.664 149.497 17.504C149.433 17.3333 149.401 17.1147 149.401 16.848V13.072ZM156.521 15.328C156.521 15.6053 156.606 15.8027 156.777 15.92C156.958 16.0373 157.209 16.096 157.529 16.096C157.689 16.096 157.854 16.0853 158.025 16.064C158.195 16.032 158.345 15.9947 158.473 15.952C158.569 16.0693 158.649 16.2027 158.713 16.352C158.787 16.4907 158.825 16.6613 158.825 16.864C158.825 17.2693 158.67 17.6 158.361 17.856C158.062 18.112 157.529 18.24 156.761 18.24C155.822 18.24 155.097 18.0267 154.585 17.6C154.083 17.1733 153.833 16.48 153.833 15.52V8.672C153.95 8.64 154.115 8.608 154.329 8.576C154.553 8.53333 154.787 8.512 155.033 8.512C155.502 8.512 155.865 8.59733 156.121 8.768C156.387 8.928 156.521 9.27467 156.521 9.808V10.832H158.617C158.681 10.9493 158.739 11.0987 158.793 11.28C158.857 11.4507 158.889 11.6427 158.889 11.856C158.889 12.2293 158.803 12.5013 158.633 12.672C158.473 12.832 158.254 12.912 157.977 12.912H156.521V15.328ZM168.161 14.112C168.161 14.7733 168.06 15.3653 167.857 15.888C167.655 16.4 167.367 16.832 166.993 17.184C166.631 17.536 166.193 17.8027 165.681 17.984C165.169 18.1653 164.599 18.256 163.969 18.256C163.34 18.256 162.769 18.16 162.257 17.968C161.745 17.776 161.303 17.504 160.929 17.152C160.567 16.7893 160.284 16.352 160.081 15.84C159.879 15.328 159.777 14.752 159.777 14.112C159.777 13.4827 159.879 12.912 160.081 12.4C160.284 11.888 160.567 11.456 160.929 11.104C161.303 10.7413 161.745 10.464 162.257 10.272C162.769 10.08 163.34 9.984 163.969 9.984C164.599 9.984 165.169 10.0853 165.681 10.288C166.193 10.48 166.631 10.7573 166.993 11.12C167.367 11.472 167.655 11.904 167.857 12.416C168.06 12.928 168.161 13.4933 168.161 14.112ZM162.561 14.112C162.561 14.7627 162.684 15.264 162.929 15.616C163.185 15.9573 163.537 16.128 163.985 16.128C164.433 16.128 164.775 15.952 165.009 15.6C165.255 15.248 165.377 14.752 165.377 14.112C165.377 13.472 165.255 12.9813 165.009 12.64C164.764 12.288 164.417 12.112 163.969 12.112C163.521 12.112 163.175 12.288 162.929 12.64C162.684 12.9813 162.561 13.472 162.561 14.112ZM172.355 14.112C172.355 13.408 172.462 12.8 172.675 12.288C172.889 11.7653 173.182 11.3333 173.555 10.992C173.939 10.6507 174.382 10.4 174.883 10.24C175.395 10.0693 175.945 9.984 176.531 9.984C176.745 9.984 176.953 10.0053 177.155 10.048C177.358 10.08 177.523 10.1227 177.651 10.176V7.584C177.758 7.552 177.929 7.52 178.163 7.488C178.398 7.44533 178.638 7.424 178.883 7.424C179.118 7.424 179.326 7.44 179.507 7.472C179.699 7.504 179.859 7.568 179.987 7.664C180.115 7.76 180.211 7.89333 180.275 8.064C180.339 8.224 180.371 8.43733 180.371 8.704V16.288C180.371 16.7893 180.137 17.1893 179.667 17.488C179.358 17.6907 178.958 17.8667 178.467 18.016C177.977 18.176 177.411 18.256 176.771 18.256C176.078 18.256 175.454 18.16 174.899 17.968C174.355 17.776 173.891 17.4987 173.507 17.136C173.134 16.7733 172.846 16.3413 172.643 15.84C172.451 15.328 172.355 14.752 172.355 14.112ZM176.899 12.112C176.323 12.112 175.881 12.2773 175.571 12.608C175.262 12.9387 175.107 13.44 175.107 14.112C175.107 14.7733 175.251 15.2747 175.539 15.616C175.827 15.9467 176.243 16.112 176.787 16.112C176.979 16.112 177.15 16.0853 177.299 16.032C177.459 15.968 177.582 15.8987 177.667 15.824V12.304C177.454 12.176 177.198 12.112 176.899 12.112ZM186.178 18.256C185.549 18.256 184.962 18.1707 184.418 18C183.885 17.8187 183.416 17.552 183.01 17.2C182.616 16.848 182.301 16.4053 182.066 15.872C181.842 15.3387 181.73 14.7147 181.73 14C181.73 13.296 181.842 12.6933 182.066 12.192C182.301 11.68 182.605 11.264 182.978 10.944C183.352 10.6133 183.778 10.3733 184.258 10.224C184.738 10.064 185.229 9.984 185.73 9.984C186.296 9.984 186.808 10.0693 187.266 10.24C187.736 10.4107 188.136 10.6453 188.466 10.944C188.808 11.2427 189.069 11.6 189.25 12.016C189.442 12.432 189.538 12.8853 189.538 13.376C189.538 13.7387 189.437 14.016 189.234 14.208C189.032 14.4 188.749 14.5227 188.386 14.576L184.434 15.168C184.552 15.52 184.792 15.7867 185.154 15.968C185.517 16.1387 185.933 16.224 186.402 16.224C186.84 16.224 187.25 16.1707 187.634 16.064C188.029 15.9467 188.349 15.8133 188.594 15.664C188.765 15.7707 188.909 15.92 189.026 16.112C189.144 16.304 189.202 16.5067 189.202 16.72C189.202 17.2 188.978 17.5573 188.53 17.792C188.189 17.9733 187.805 18.096 187.378 18.16C186.952 18.224 186.552 18.256 186.178 18.256ZM185.73 11.968C185.474 11.968 185.25 12.0107 185.058 12.096C184.877 12.1813 184.728 12.2933 184.61 12.432C184.493 12.56 184.402 12.7093 184.338 12.88C184.285 13.04 184.253 13.2053 184.242 13.376L186.978 12.928C186.946 12.7147 186.829 12.5013 186.626 12.288C186.424 12.0747 186.125 11.968 185.73 11.968ZM200.611 15.68C200.611 16.4907 200.307 17.1253 199.699 17.584C199.091 18.0427 198.195 18.272 197.011 18.272C196.563 18.272 196.147 18.24 195.763 18.176C195.379 18.112 195.048 18.016 194.771 17.888C194.504 17.7493 194.291 17.5787 194.131 17.376C193.981 17.1733 193.907 16.9333 193.907 16.656C193.907 16.4 193.96 16.1867 194.067 16.016C194.173 15.8347 194.301 15.6853 194.451 15.568C194.76 15.7387 195.112 15.8933 195.507 16.032C195.912 16.16 196.376 16.224 196.899 16.224C197.229 16.224 197.48 16.176 197.651 16.08C197.832 15.984 197.923 15.856 197.923 15.696C197.923 15.5467 197.859 15.4293 197.731 15.344C197.603 15.2587 197.389 15.1893 197.091 15.136L196.611 15.04C195.683 14.8587 194.989 14.576 194.531 14.192C194.083 13.7973 193.859 13.2373 193.859 12.512C193.859 12.1173 193.944 11.76 194.115 11.44C194.285 11.12 194.525 10.8533 194.835 10.64C195.144 10.4267 195.512 10.2613 195.939 10.144C196.376 10.0267 196.856 9.968 197.379 9.968C197.773 9.968 198.141 10 198.483 10.064C198.835 10.1173 199.139 10.2027 199.395 10.32C199.651 10.4373 199.853 10.592 200.003 10.784C200.152 10.9653 200.227 11.184 200.227 11.44C200.227 11.6853 200.179 11.8987 200.083 12.08C199.997 12.2507 199.885 12.3947 199.747 12.512C199.661 12.4587 199.533 12.4053 199.363 12.352C199.192 12.288 199.005 12.2347 198.803 12.192C198.6 12.1387 198.392 12.096 198.179 12.064C197.976 12.032 197.789 12.016 197.619 12.016C197.267 12.016 196.995 12.0587 196.803 12.144C196.611 12.2187 196.515 12.3413 196.515 12.512C196.515 12.6293 196.568 12.7253 196.675 12.8C196.781 12.8747 196.984 12.944 197.283 13.008L197.779 13.12C198.803 13.3547 199.528 13.68 199.955 14.096C200.392 14.5013 200.611 15.0293 200.611 15.68ZM201.926 10.336C202.032 10.304 202.198 10.272 202.422 10.24C202.656 10.208 202.896 10.192 203.142 10.192C203.376 10.192 203.584 10.208 203.766 10.24C203.958 10.272 204.118 10.336 204.246 10.432C204.374 10.528 204.47 10.6613 204.534 10.832C204.608 10.992 204.646 11.2053 204.646 11.472V14.912C204.646 15.3493 204.752 15.664 204.966 15.856C205.179 16.0373 205.488 16.128 205.894 16.128C206.139 16.128 206.336 16.1067 206.486 16.064C206.646 16.0213 206.768 15.9787 206.854 15.936V10.336C206.96 10.304 207.126 10.272 207.35 10.24C207.584 10.208 207.824 10.192 208.07 10.192C208.304 10.192 208.512 10.208 208.694 10.24C208.886 10.272 209.046 10.336 209.174 10.432C209.302 10.528 209.398 10.6613 209.462 10.832C209.536 10.992 209.574 11.2053 209.574 11.472V16.336C209.574 16.8693 209.35 17.2693 208.902 17.536C208.528 17.7707 208.08 17.9467 207.558 18.064C207.046 18.192 206.486 18.256 205.878 18.256C205.302 18.256 204.768 18.192 204.278 18.064C203.798 17.936 203.382 17.7387 203.03 17.472C202.678 17.2053 202.406 16.864 202.214 16.448C202.022 16.0213 201.926 15.5093 201.926 14.912V10.336ZM214.566 16.272C214.748 16.272 214.945 16.256 215.158 16.224C215.382 16.1813 215.548 16.128 215.654 16.064V14.784L214.502 14.88C214.204 14.9013 213.958 14.9653 213.766 15.072C213.574 15.1787 213.478 15.3387 213.478 15.552C213.478 15.7653 213.558 15.9413 213.718 16.08C213.889 16.208 214.172 16.272 214.566 16.272ZM214.438 9.984C215.014 9.984 215.537 10.0427 216.006 10.16C216.486 10.2773 216.892 10.4587 217.222 10.704C217.564 10.9387 217.825 11.2427 218.006 11.616C218.188 11.9787 218.278 12.4107 218.278 12.912V16.496C218.278 16.7733 218.198 17.0027 218.038 17.184C217.889 17.3547 217.708 17.504 217.494 17.632C216.801 18.048 215.825 18.256 214.566 18.256C214.001 18.256 213.489 18.2027 213.03 18.096C212.582 17.9893 212.193 17.8293 211.862 17.616C211.542 17.4027 211.292 17.1307 211.11 16.8C210.94 16.4693 210.854 16.0853 210.854 15.648C210.854 14.912 211.073 14.3467 211.51 13.952C211.948 13.5573 212.625 13.312 213.542 13.216L215.638 12.992V12.88C215.638 12.5707 215.5 12.352 215.222 12.224C214.956 12.0853 214.566 12.016 214.054 12.016C213.649 12.016 213.254 12.0587 212.87 12.144C212.486 12.2293 212.14 12.336 211.83 12.464C211.692 12.368 211.574 12.224 211.478 12.032C211.382 11.8293 211.334 11.6213 211.334 11.408C211.334 11.1307 211.398 10.912 211.526 10.752C211.665 10.5813 211.873 10.4373 212.15 10.32C212.46 10.2027 212.822 10.1173 213.238 10.064C213.665 10.0107 214.065 9.984 214.438 9.984ZM226.501 15.68C226.501 16.4907 226.197 17.1253 225.589 17.584C224.981 18.0427 224.085 18.272 222.901 18.272C222.453 18.272 222.037 18.24 221.653 18.176C221.269 18.112 220.939 18.016 220.661 17.888C220.395 17.7493 220.181 17.5787 220.021 17.376C219.872 17.1733 219.797 16.9333 219.797 16.656C219.797 16.4 219.851 16.1867 219.957 16.016C220.064 15.8347 220.192 15.6853 220.341 15.568C220.651 15.7387 221.003 15.8933 221.397 16.032C221.803 16.16 222.267 16.224 222.789 16.224C223.12 16.224 223.371 16.176 223.541 16.08C223.723 15.984 223.813 15.856 223.813 15.696C223.813 15.5467 223.749 15.4293 223.621 15.344C223.493 15.2587 223.28 15.1893 222.981 15.136L222.501 15.04C221.573 14.8587 220.88 14.576 220.421 14.192C219.973 13.7973 219.749 13.2373 219.749 12.512C219.749 12.1173 219.835 11.76 220.005 11.44C220.176 11.12 220.416 10.8533 220.725 10.64C221.035 10.4267 221.403 10.2613 221.829 10.144C222.267 10.0267 222.747 9.968 223.269 9.968C223.664 9.968 224.032 10 224.373 10.064C224.725 10.1173 225.029 10.2027 225.285 10.32C225.541 10.4373 225.744 10.592 225.893 10.784C226.043 10.9653 226.117 11.184 226.117 11.44C226.117 11.6853 226.069 11.8987 225.973 12.08C225.888 12.2507 225.776 12.3947 225.637 12.512C225.552 12.4587 225.424 12.4053 225.253 12.352C225.083 12.288 224.896 12.2347 224.693 12.192C224.491 12.1387 224.283 12.096 224.069 12.064C223.867 12.032 223.68 12.016 223.509 12.016C223.157 12.016 222.885 12.0587 222.693 12.144C222.501 12.2187 222.405 12.3413 222.405 12.512C222.405 12.6293 222.459 12.7253 222.565 12.8C222.672 12.8747 222.875 12.944 223.173 13.008L223.669 13.12C224.693 13.3547 225.419 13.68 225.845 14.096C226.283 14.5013 226.501 15.0293 226.501 15.68ZM235.132 18.256C234.502 18.256 233.916 18.1707 233.372 18C232.838 17.8187 232.369 17.552 231.964 17.2C231.569 16.848 231.254 16.4053 231.02 15.872C230.796 15.3387 230.684 14.7147 230.684 14C230.684 13.296 230.796 12.6933 231.02 12.192C231.254 11.68 231.558 11.264 231.932 10.944C232.305 10.6133 232.732 10.3733 233.212 10.224C233.692 10.064 234.182 9.984 234.684 9.984C235.249 9.984 235.761 10.0693 236.22 10.24C236.689 10.4107 237.089 10.6453 237.42 10.944C237.761 11.2427 238.022 11.6 238.204 12.016C238.396 12.432 238.492 12.8853 238.492 13.376C238.492 13.7387 238.39 14.016 238.188 14.208C237.985 14.4 237.702 14.5227 237.34 14.576L233.388 15.168C233.505 15.52 233.745 15.7867 234.108 15.968C234.47 16.1387 234.886 16.224 235.356 16.224C235.793 16.224 236.204 16.1707 236.588 16.064C236.982 15.9467 237.302 15.8133 237.548 15.664C237.718 15.7707 237.862 15.92 237.98 16.112C238.097 16.304 238.156 16.5067 238.156 16.72C238.156 17.2 237.932 17.5573 237.484 17.792C237.142 17.9733 236.758 18.096 236.332 18.16C235.905 18.224 235.505 18.256 235.132 18.256ZM234.684 11.968C234.428 11.968 234.204 12.0107 234.012 12.096C233.83 12.1813 233.681 12.2933 233.564 12.432C233.446 12.56 233.356 12.7093 233.292 12.88C233.238 13.04 233.206 13.2053 233.196 13.376L235.932 12.928C235.9 12.7147 235.782 12.5013 235.58 12.288C235.377 12.0747 235.078 11.968 234.684 11.968ZM244.185 12.128C243.918 12.128 243.662 12.1707 243.417 12.256C243.182 12.3413 242.974 12.4693 242.793 12.64C242.622 12.8 242.483 13.0027 242.377 13.248C242.27 13.4933 242.217 13.7813 242.217 14.112C242.217 14.7733 242.403 15.2693 242.777 15.6C243.161 15.9307 243.625 16.096 244.169 16.096C244.489 16.096 244.766 16.0587 245.001 15.984C245.235 15.9093 245.443 15.8293 245.625 15.744C245.838 15.8933 245.998 16.0587 246.105 16.24C246.211 16.4107 246.265 16.6187 246.265 16.864C246.265 17.3013 246.057 17.6427 245.641 17.888C245.225 18.1227 244.649 18.24 243.913 18.24C243.241 18.24 242.633 18.144 242.089 17.952C241.545 17.7493 241.075 17.472 240.681 17.12C240.297 16.7573 239.998 16.3253 239.785 15.824C239.571 15.3227 239.465 14.768 239.465 14.16C239.465 13.456 239.577 12.8427 239.801 12.32C240.035 11.7867 240.35 11.3493 240.745 11.008C241.139 10.6667 241.593 10.4107 242.105 10.24C242.627 10.0693 243.177 9.984 243.753 9.984C244.521 9.984 245.113 10.1227 245.529 10.4C245.945 10.6773 246.153 11.0347 246.153 11.472C246.153 11.6747 246.105 11.8667 246.009 12.048C245.913 12.2187 245.801 12.368 245.673 12.496C245.491 12.4107 245.273 12.3307 245.017 12.256C244.761 12.1707 244.483 12.128 244.185 12.128ZM255.443 14.112C255.443 14.7733 255.341 15.3653 255.139 15.888C254.936 16.4 254.648 16.832 254.275 17.184C253.912 17.536 253.475 17.8027 252.963 17.984C252.451 18.1653 251.88 18.256 251.251 18.256C250.621 18.256 250.051 18.16 249.539 17.968C249.027 17.776 248.584 17.504 248.211 17.152C247.848 16.7893 247.565 16.352 247.363 15.84C247.16 15.328 247.059 14.752 247.059 14.112C247.059 13.4827 247.16 12.912 247.363 12.4C247.565 11.888 247.848 11.456 248.211 11.104C248.584 10.7413 249.027 10.464 249.539 10.272C250.051 10.08 250.621 9.984 251.251 9.984C251.88 9.984 252.451 10.0853 252.963 10.288C253.475 10.48 253.912 10.7573 254.275 11.12C254.648 11.472 254.936 11.904 255.139 12.416C255.341 12.928 255.443 13.4933 255.443 14.112ZM249.843 14.112C249.843 14.7627 249.965 15.264 250.211 15.616C250.467 15.9573 250.819 16.128 251.266 16.128C251.715 16.128 252.056 15.952 252.291 15.6C252.536 15.248 252.659 14.752 252.659 14.112C252.659 13.472 252.536 12.9813 252.291 12.64C252.045 12.288 251.699 12.112 251.251 12.112C250.803 12.112 250.456 12.288 250.211 12.64C249.965 12.9813 249.843 13.472 249.843 14.112ZM261.698 13.072C261.698 12.7413 261.602 12.5013 261.41 12.352C261.228 12.192 260.978 12.112 260.658 12.112C260.444 12.112 260.231 12.1387 260.018 12.192C259.815 12.2453 259.639 12.3253 259.49 12.432V17.984C259.383 18.016 259.212 18.048 258.978 18.08C258.754 18.112 258.519 18.128 258.274 18.128C258.039 18.128 257.826 18.112 257.634 18.08C257.452 18.048 257.298 17.984 257.17 17.888C257.042 17.792 256.94 17.664 256.866 17.504C256.802 17.3333 256.77 17.1147 256.77 16.848V12.048C256.77 11.76 256.828 11.5253 256.946 11.344C257.074 11.1627 257.244 10.9973 257.458 10.848C257.82 10.592 258.274 10.384 258.818 10.224C259.372 10.064 259.986 9.984 260.658 9.984C261.863 9.984 262.791 10.2507 263.442 10.784C264.092 11.3067 264.418 12.0373 264.418 12.976V17.984C264.311 18.016 264.14 18.048 263.906 18.08C263.682 18.112 263.447 18.128 263.202 18.128C262.967 18.128 262.754 18.112 262.562 18.08C262.38 18.048 262.226 17.984 262.098 17.888C261.97 17.792 261.868 17.664 261.794 17.504C261.73 17.3333 261.698 17.1147 261.698 16.848V13.072ZM274.146 14.112C274.146 14.7733 274.044 15.3653 273.842 15.888C273.639 16.4 273.351 16.832 272.978 17.184C272.615 17.536 272.178 17.8027 271.666 17.984C271.154 18.1653 270.583 18.256 269.954 18.256C269.324 18.256 268.754 18.16 268.242 17.968C267.73 17.776 267.287 17.504 266.914 17.152C266.551 16.7893 266.268 16.352 266.066 15.84C265.863 15.328 265.762 14.752 265.762 14.112C265.762 13.4827 265.863 12.912 266.066 12.4C266.268 11.888 266.551 11.456 266.914 11.104C267.287 10.7413 267.73 10.464 268.242 10.272C268.754 10.08 269.324 9.984 269.954 9.984C270.583 9.984 271.154 10.0853 271.666 10.288C272.178 10.48 272.615 10.7573 272.978 11.12C273.351 11.472 273.639 11.904 273.842 12.416C274.044 12.928 274.146 13.4933 274.146 14.112ZM268.546 14.112C268.546 14.7627 268.668 15.264 268.914 15.616C269.17 15.9573 269.522 16.128 269.97 16.128C270.418 16.128 270.759 15.952 270.994 15.6C271.239 15.248 271.362 14.752 271.362 14.112C271.362 13.472 271.239 12.9813 270.994 12.64C270.748 12.288 270.402 12.112 269.954 12.112C269.506 12.112 269.159 12.288 268.914 12.64C268.668 12.9813 268.546 13.472 268.546 14.112ZM279.201 9.984C279.638 9.984 280.065 10.048 280.481 10.176C280.907 10.2933 281.275 10.4747 281.585 10.72C281.905 10.5067 282.262 10.3307 282.657 10.192C283.062 10.0533 283.547 9.984 284.113 9.984C284.518 9.984 284.913 10.0373 285.297 10.144C285.691 10.2507 286.038 10.4213 286.337 10.656C286.646 10.88 286.891 11.184 287.073 11.568C287.254 11.9413 287.345 12.4 287.345 12.944V17.984C287.238 18.016 287.067 18.048 286.833 18.08C286.609 18.112 286.374 18.128 286.129 18.128C285.894 18.128 285.681 18.112 285.489 18.08C285.307 18.048 285.153 17.984 285.025 17.888C284.897 17.792 284.795 17.664 284.721 17.504C284.657 17.3333 284.625 17.1147 284.625 16.848V13.024C284.625 12.704 284.534 12.4747 284.353 12.336C284.171 12.1867 283.926 12.112 283.617 12.112C283.467 12.112 283.307 12.1493 283.137 12.224C282.966 12.288 282.838 12.3573 282.753 12.432C282.763 12.4747 282.769 12.5173 282.769 12.56C282.769 12.592 282.769 12.624 282.769 12.656V17.984C282.651 18.016 282.475 18.048 282.241 18.08C282.017 18.112 281.787 18.128 281.553 18.128C281.318 18.128 281.105 18.112 280.913 18.08C280.731 18.048 280.577 17.984 280.449 17.888C280.321 17.792 280.219 17.664 280.145 17.504C280.081 17.3333 280.049 17.1147 280.049 16.848V13.024C280.049 12.704 279.947 12.4747 279.745 12.336C279.553 12.1867 279.318 12.112 279.041 12.112C278.849 12.112 278.683 12.144 278.545 12.208C278.406 12.2613 278.289 12.3147 278.193 12.368V17.984C278.086 18.016 277.915 18.048 277.681 18.08C277.457 18.112 277.222 18.128 276.977 18.128C276.742 18.128 276.529 18.112 276.337 18.08C276.155 18.048 276.001 17.984 275.873 17.888C275.745 17.792 275.643 17.664 275.569 17.504C275.505 17.3333 275.473 17.1147 275.473 16.848V12.016C275.473 11.728 275.531 11.4987 275.649 11.328C275.777 11.1573 275.947 10.9973 276.161 10.848C276.523 10.592 276.971 10.384 277.505 10.224C278.049 10.064 278.614 9.984 279.201 9.984ZM288.94 8.064C288.94 7.65867 289.073 7.31733 289.34 7.04C289.617 6.76267 289.98 6.624 290.428 6.624C290.876 6.624 291.233 6.76267 291.5 7.04C291.777 7.31733 291.916 7.65867 291.916 8.064C291.916 8.46933 291.777 8.81067 291.5 9.088C291.233 9.36533 290.876 9.504 290.428 9.504C289.98 9.504 289.617 9.36533 289.34 9.088C289.073 8.81067 288.94 8.46933 288.94 8.064ZM291.788 17.984C291.671 18.0053 291.495 18.032 291.26 18.064C291.036 18.1067 290.807 18.128 290.572 18.128C290.337 18.128 290.124 18.112 289.932 18.08C289.751 18.048 289.596 17.984 289.468 17.888C289.34 17.792 289.239 17.664 289.164 17.504C289.1 17.3333 289.068 17.1147 289.068 16.848V10.336C289.185 10.3147 289.356 10.288 289.58 10.256C289.815 10.2133 290.049 10.192 290.284 10.192C290.519 10.192 290.727 10.208 290.908 10.24C291.1 10.272 291.26 10.336 291.388 10.432C291.516 10.528 291.612 10.6613 291.676 10.832C291.751 10.992 291.788 11.2053 291.788 11.472V17.984ZM296.848 16.272C297.029 16.272 297.226 16.256 297.44 16.224C297.664 16.1813 297.829 16.128 297.936 16.064V14.784L296.784 14.88C296.485 14.9013 296.24 14.9653 296.048 15.072C295.856 15.1787 295.76 15.3387 295.76 15.552C295.76 15.7653 295.84 15.9413 296 16.08C296.17 16.208 296.453 16.272 296.848 16.272ZM296.72 9.984C297.296 9.984 297.818 10.0427 298.288 10.16C298.768 10.2773 299.173 10.4587 299.504 10.704C299.845 10.9387 300.106 11.2427 300.288 11.616C300.469 11.9787 300.56 12.4107 300.56 12.912V16.496C300.56 16.7733 300.48 17.0027 300.32 17.184C300.17 17.3547 299.989 17.504 299.776 17.632C299.082 18.048 298.106 18.256 296.848 18.256C296.282 18.256 295.77 18.2027 295.312 18.096C294.864 17.9893 294.474 17.8293 294.144 17.616C293.824 17.4027 293.573 17.1307 293.392 16.8C293.221 16.4693 293.136 16.0853 293.136 15.648C293.136 14.912 293.354 14.3467 293.792 13.952C294.229 13.5573 294.906 13.312 295.824 13.216L297.92 12.992V12.88C297.92 12.5707 297.781 12.352 297.504 12.224C297.237 12.0853 296.848 12.016 296.336 12.016C295.93 12.016 295.536 12.0587 295.152 12.144C294.768 12.2293 294.421 12.336 294.112 12.464C293.973 12.368 293.856 12.224 293.76 12.032C293.664 11.8293 293.616 11.6213 293.616 11.408C293.616 11.1307 293.68 10.912 293.808 10.752C293.946 10.5813 294.154 10.4373 294.432 10.32C294.741 10.2027 295.104 10.1173 295.52 10.064C295.946 10.0107 296.346 9.984 296.72 9.984ZM308.783 15.68C308.783 16.4907 308.479 17.1253 307.871 17.584C307.263 18.0427 306.367 18.272 305.183 18.272C304.735 18.272 304.319 18.24 303.935 18.176C303.551 18.112 303.22 18.016 302.943 17.888C302.676 17.7493 302.463 17.5787 302.303 17.376C302.153 17.1733 302.079 16.9333 302.079 16.656C302.079 16.4 302.132 16.1867 302.239 16.016C302.345 15.8347 302.473 15.6853 302.623 15.568C302.932 15.7387 303.284 15.8933 303.679 16.032C304.084 16.16 304.548 16.224 305.071 16.224C305.401 16.224 305.652 16.176 305.823 16.08C306.004 15.984 306.095 15.856 306.095 15.696C306.095 15.5467 306.031 15.4293 305.903 15.344C305.775 15.2587 305.561 15.1893 305.263 15.136L304.783 15.04C303.855 14.8587 303.161 14.576 302.703 14.192C302.255 13.7973 302.031 13.2373 302.031 12.512C302.031 12.1173 302.116 11.76 302.287 11.44C302.457 11.12 302.697 10.8533 303.007 10.64C303.316 10.4267 303.684 10.2613 304.111 10.144C304.548 10.0267 305.028 9.968 305.551 9.968C305.945 9.968 306.313 10 306.655 10.064C307.007 10.1173 307.311 10.2027 307.567 10.32C307.823 10.4373 308.025 10.592 308.175 10.784C308.324 10.9653 308.399 11.184 308.399 11.44C308.399 11.6853 308.351 11.8987 308.255 12.08C308.169 12.2507 308.057 12.3947 307.919 12.512C307.833 12.4587 307.705 12.4053 307.535 12.352C307.364 12.288 307.177 12.2347 306.975 12.192C306.772 12.1387 306.564 12.096 306.351 12.064C306.148 12.032 305.961 12.016 305.791 12.016C305.439 12.016 305.167 12.0587 304.975 12.144C304.783 12.2187 304.687 12.3413 304.687 12.512C304.687 12.6293 304.74 12.7253 304.847 12.8C304.953 12.8747 305.156 12.944 305.455 13.008L305.951 13.12C306.975 13.3547 307.7 13.68 308.127 14.096C308.564 14.5013 308.783 15.0293 308.783 15.68ZM318.229 13.072C318.229 12.7413 318.133 12.5013 317.941 12.352C317.759 12.192 317.509 12.112 317.189 12.112C316.975 12.112 316.762 12.1387 316.549 12.192C316.346 12.2453 316.17 12.3253 316.021 12.432V17.984C315.914 18.016 315.743 18.048 315.509 18.08C315.285 18.112 315.05 18.128 314.805 18.128C314.57 18.128 314.357 18.112 314.165 18.08C313.983 18.048 313.829 17.984 313.701 17.888C313.573 17.792 313.471 17.664 313.397 17.504C313.333 17.3333 313.301 17.1147 313.301 16.848V12.048C313.301 11.76 313.359 11.5253 313.477 11.344C313.605 11.1627 313.775 10.9973 313.989 10.848C314.351 10.592 314.805 10.384 315.349 10.224C315.903 10.064 316.517 9.984 317.189 9.984C318.394 9.984 319.322 10.2507 319.973 10.784C320.623 11.3067 320.949 12.0373 320.949 12.976V17.984C320.842 18.016 320.671 18.048 320.437 18.08C320.213 18.112 319.978 18.128 319.733 18.128C319.498 18.128 319.285 18.112 319.093 18.08C318.911 18.048 318.757 17.984 318.629 17.888C318.501 17.792 318.399 17.664 318.325 17.504C318.261 17.3333 318.229 17.1147 318.229 16.848V13.072ZM330.677 14.112C330.677 14.7733 330.576 15.3653 330.373 15.888C330.17 16.4 329.882 16.832 329.509 17.184C329.146 17.536 328.709 17.8027 328.197 17.984C327.685 18.1653 327.114 18.256 326.485 18.256C325.856 18.256 325.285 18.16 324.773 17.968C324.261 17.776 323.818 17.504 323.445 17.152C323.082 16.7893 322.8 16.352 322.597 15.84C322.394 15.328 322.293 14.752 322.293 14.112C322.293 13.4827 322.394 12.912 322.597 12.4C322.8 11.888 323.082 11.456 323.445 11.104C323.818 10.7413 324.261 10.464 324.773 10.272C325.285 10.08 325.856 9.984 326.485 9.984C327.114 9.984 327.685 10.0853 328.197 10.288C328.709 10.48 329.146 10.7573 329.509 11.12C329.882 11.472 330.17 11.904 330.373 12.416C330.576 12.928 330.677 13.4933 330.677 14.112ZM325.077 14.112C325.077 14.7627 325.2 15.264 325.445 15.616C325.701 15.9573 326.053 16.128 326.501 16.128C326.949 16.128 327.29 15.952 327.525 15.6C327.77 15.248 327.893 14.752 327.893 14.112C327.893 13.472 327.77 12.9813 327.525 12.64C327.28 12.288 326.933 12.112 326.485 12.112C326.037 12.112 325.69 12.288 325.445 12.64C325.2 12.9813 325.077 13.472 325.077 14.112Z" fill="url(#paint0_linear_7_643)"/>
</g>
<g filter="url(#filter1_d_7_643)">
<path d="M35.848 64.272C35.224 64.8 34.408 65.232 33.4 65.568C32.44 65.856 31.312 66 30.016 66C28.288 66 26.848 65.784 25.696 65.352C24.592 64.92 23.872 64.176 23.536 63.12C22.192 58.896 21.088 55.488 20.224 52.896C19.36 50.256 18.688 47.952 18.208 45.984H17.848C17.704 48.816 17.584 51.408 17.488 53.76C17.44 56.064 17.392 58.32 17.344 60.528C17.344 62.736 17.296 64.968 17.2 67.224C17.152 69.48 17.056 71.976 16.912 74.712C16.288 74.952 15.472 75.144 14.464 75.288C13.456 75.48 12.448 75.576 11.44 75.576C9.328 75.576 7.672 75.24 6.472 74.568C5.32 73.896 4.744 72.672 4.744 70.896L6.832 34.176C7.216 33.552 8.056 32.88 9.352 32.16C10.648 31.44 12.472 31.08 14.824 31.08C17.368 31.08 19.36 31.488 20.8 32.304C22.24 33.072 23.296 34.344 23.968 36.12C24.4 37.272 24.856 38.592 25.336 40.08C25.864 41.568 26.368 43.104 26.848 44.688C27.376 46.272 27.88 47.856 28.36 49.44C28.84 50.976 29.272 52.368 29.656 53.616H30.016C31.168 49.584 32.32 45.696 33.472 41.952C34.624 38.16 35.68 34.992 36.64 32.448C37.36 32.064 38.272 31.752 39.376 31.512C40.528 31.224 41.8 31.08 43.192 31.08C45.544 31.08 47.464 31.44 48.952 32.16C50.44 32.832 51.304 33.816 51.544 35.112C51.736 36.072 51.928 37.56 52.12 39.576C52.36 41.544 52.6 43.776 52.84 46.272C53.08 48.768 53.32 51.408 53.56 54.192C53.8 56.976 54.016 59.664 54.208 62.256C54.448 64.8 54.64 67.152 54.784 69.312C54.928 71.424 55.024 73.056 55.072 74.208C54.256 74.688 53.392 75.024 52.48 75.216C51.616 75.456 50.488 75.576 49.096 75.576C47.272 75.576 45.736 75.264 44.488 74.64C43.24 74.016 42.568 72.792 42.472 70.968C42.184 65.736 41.992 61.032 41.896 56.856C41.848 52.68 41.752 49.176 41.608 46.344H41.248C40.768 48.216 40.072 50.568 39.16 53.4C38.248 56.232 37.144 59.856 35.848 64.272ZM66.5363 66.072C66.0083 64.872 65.4323 63.528 64.8083 62.04C64.2323 60.552 63.6083 58.848 62.9363 56.928C62.3123 55.008 61.6403 52.824 60.9203 50.376C60.2483 47.88 59.5283 45.024 58.7603 41.808C59.4323 41.136 60.3203 40.56 61.4243 40.08C62.5763 39.552 63.8243 39.288 65.1683 39.288C66.8483 39.288 68.2403 39.648 69.3443 40.368C70.4483 41.04 71.2643 42.336 71.7923 44.256L77.4803 64.056H77.7683C78.3443 62.424 78.8963 60.648 79.4243 58.728C80.0003 56.808 80.5523 54.84 81.0803 52.824C81.6083 50.76 82.0883 48.72 82.5203 46.704C83.0003 44.64 83.4083 42.624 83.7443 40.656C85.4723 39.744 87.3683 39.288 89.4323 39.288C91.1123 39.288 92.5043 39.648 93.6083 40.368C94.7123 41.088 95.2643 42.336 95.2643 44.112C95.2643 45.408 95.0963 46.92 94.7603 48.648C94.4243 50.328 93.9683 52.128 93.3923 54.048C92.8643 55.968 92.2163 57.96 91.4483 60.024C90.7283 62.04 89.9603 64.032 89.1443 66C88.3283 67.968 87.4883 69.84 86.6243 71.616C85.7603 73.344 84.9203 74.904 84.1043 76.296C82.7603 78.648 81.5123 80.568 80.3603 82.056C79.2083 83.544 78.1043 84.696 77.0483 85.512C75.9923 86.376 74.9363 86.952 73.8803 87.24C72.8243 87.576 71.7203 87.744 70.5683 87.744C68.5523 87.744 66.9203 87.144 65.6723 85.944C64.4243 84.744 63.6803 83.184 63.4403 81.264C64.9763 80.064 66.5123 78.72 68.0483 77.232C69.5843 75.792 70.9763 74.304 72.2243 72.768C71.4083 72.528 70.5203 71.976 69.5603 71.112C68.6483 70.2 67.6403 68.52 66.5363 66.072ZM146.239 64.272C145.615 64.8 144.799 65.232 143.791 65.568C142.831 65.856 141.703 66 140.407 66C138.679 66 137.239 65.784 136.087 65.352C134.983 64.92 134.263 64.176 133.927 63.12C132.583 58.896 131.479 55.488 130.615 52.896C129.751 50.256 129.079 47.952 128.599 45.984H128.239C128.095 48.816 127.975 51.408 127.879 53.76C127.831 56.064 127.783 58.32 127.735 60.528C127.735 62.736 127.687 64.968 127.591 67.224C127.543 69.48 127.447 71.976 127.303 74.712C126.679 74.952 125.863 75.144 124.855 75.288C123.847 75.48 122.839 75.576 121.831 75.576C119.719 75.576 118.063 75.24 116.863 74.568C115.711 73.896 115.135 72.672 115.135 70.896L117.223 34.176C117.607 33.552 118.447 32.88 119.743 32.16C121.039 31.44 122.863 31.08 125.215 31.08C127.759 31.08 129.751 31.488 131.191 32.304C132.631 33.072 133.687 34.344 134.359 36.12C134.791 37.272 135.247 38.592 135.727 40.08C136.255 41.568 136.759 43.104 137.239 44.688C137.767 46.272 138.271 47.856 138.751 49.44C139.231 50.976 139.663 52.368 140.047 53.616H140.407C141.559 49.584 142.711 45.696 143.863 41.952C145.015 38.16 146.071 34.992 147.031 32.448C147.751 32.064 148.663 31.752 149.767 31.512C150.919 31.224 152.191 31.08 153.583 31.08C155.935 31.08 157.855 31.44 159.343 32.16C160.831 32.832 161.695 33.816 161.935 35.112C162.127 36.072 162.319 37.56 162.511 39.576C162.751 41.544 162.991 43.776 163.231 46.272C163.471 48.768 163.711 51.408 163.951 54.192C164.191 56.976 164.407 59.664 164.599 62.256C164.839 64.8 165.031 67.152 165.175 69.312C165.319 71.424 165.415 73.056 165.463 74.208C164.647 74.688 163.783 75.024 162.871 75.216C162.007 75.456 160.879 75.576 159.487 75.576C157.663 75.576 156.127 75.264 154.879 74.64C153.631 74.016 152.959 72.792 152.863 70.968C152.575 65.736 152.383 61.032 152.287 56.856C152.239 52.68 152.143 49.176 151.999 46.344H151.639C151.159 48.216 150.463 50.568 149.551 53.4C148.639 56.232 147.535 59.856 146.239 64.272ZM208.444 57.504C208.444 60.48 207.988 63.144 207.076 65.496C206.164 67.8 204.868 69.744 203.188 71.328C201.556 72.912 199.588 74.112 197.284 74.928C194.98 75.744 192.412 76.152 189.58 76.152C186.748 76.152 184.18 75.72 181.876 74.856C179.572 73.992 177.58 72.768 175.9 71.184C174.268 69.552 172.996 67.584 172.084 65.28C171.172 62.976 170.716 60.384 170.716 57.504C170.716 54.672 171.172 52.104 172.084 49.8C172.996 47.496 174.268 45.552 175.9 43.968C177.58 42.336 179.572 41.088 181.876 40.224C184.18 39.36 186.748 38.928 189.58 38.928C192.412 38.928 194.98 39.384 197.284 40.296C199.588 41.16 201.556 42.408 203.188 44.04C204.868 45.624 206.164 47.568 207.076 49.872C207.988 52.176 208.444 54.72 208.444 57.504ZM183.244 57.504C183.244 60.432 183.796 62.688 184.9 64.272C186.052 65.808 187.636 66.576 189.652 66.576C191.668 66.576 193.204 65.784 194.26 64.2C195.364 62.616 195.916 60.384 195.916 57.504C195.916 54.624 195.364 52.416 194.26 50.88C193.156 49.296 191.596 48.504 189.58 48.504C187.564 48.504 186.004 49.296 184.9 50.88C183.796 52.416 183.244 54.624 183.244 57.504ZM236.592 52.824C236.592 51.336 236.16 50.256 235.296 49.584C234.48 48.864 233.352 48.504 231.912 48.504C230.952 48.504 229.992 48.624 229.032 48.864C228.12 49.104 227.328 49.464 226.656 49.944V74.928C226.176 75.072 225.408 75.216 224.352 75.36C223.344 75.504 222.288 75.576 221.184 75.576C220.128 75.576 219.168 75.504 218.304 75.36C217.488 75.216 216.792 74.928 216.216 74.496C215.64 74.064 215.184 73.488 214.848 72.768C214.56 72 214.416 71.016 214.416 69.816V48.216C214.416 46.92 214.68 45.864 215.208 45.048C215.784 44.232 216.552 43.488 217.512 42.816C219.144 41.664 221.184 40.728 223.632 40.008C226.128 39.288 228.888 38.928 231.912 38.928C237.336 38.928 241.512 40.128 244.44 42.528C247.368 44.88 248.832 48.168 248.832 52.392V74.928C248.352 75.072 247.584 75.216 246.528 75.36C245.52 75.504 244.464 75.576 243.36 75.576C242.304 75.576 241.344 75.504 240.48 75.36C239.664 75.216 238.968 74.928 238.392 74.496C237.816 74.064 237.36 73.488 237.024 72.768C236.736 72 236.592 71.016 236.592 69.816V52.824ZM274.896 76.152C272.064 76.152 269.424 75.768 266.976 75C264.576 74.184 262.464 72.984 260.64 71.4C258.864 69.816 257.448 67.824 256.392 65.424C255.384 63.024 254.88 60.216 254.88 57C254.88 53.832 255.384 51.12 256.392 48.864C257.448 46.56 258.816 44.688 260.496 43.248C262.176 41.76 264.096 40.68 266.256 40.008C268.416 39.288 270.624 38.928 272.88 38.928C275.424 38.928 277.728 39.312 279.792 40.08C281.904 40.848 283.704 41.904 285.192 43.248C286.728 44.592 287.904 46.2 288.72 48.072C289.584 49.944 290.016 51.984 290.016 54.192C290.016 55.824 289.56 57.072 288.648 57.936C287.736 58.8 286.464 59.352 284.832 59.592L267.048 62.256C267.576 63.84 268.656 65.04 270.288 65.856C271.92 66.624 273.792 67.008 275.904 67.008C277.872 67.008 279.72 66.768 281.448 66.288C283.224 65.76 284.664 65.16 285.768 64.488C286.536 64.968 287.184 65.64 287.712 66.504C288.24 67.368 288.504 68.28 288.504 69.24C288.504 71.4 287.496 73.008 285.48 74.064C283.944 74.88 282.216 75.432 280.296 75.72C278.376 76.008 276.576 76.152 274.896 76.152ZM272.88 47.856C271.728 47.856 270.72 48.048 269.856 48.432C269.04 48.816 268.368 49.32 267.84 49.944C267.312 50.52 266.904 51.192 266.616 51.96C266.376 52.68 266.232 53.424 266.184 54.192L278.496 52.176C278.352 51.216 277.824 50.256 276.912 49.296C276 48.336 274.656 47.856 272.88 47.856ZM301.099 66.072C300.571 64.872 299.995 63.528 299.371 62.04C298.795 60.552 298.171 58.848 297.499 56.928C296.875 55.008 296.203 52.824 295.483 50.376C294.811 47.88 294.091 45.024 293.323 41.808C293.995 41.136 294.883 40.56 295.987 40.08C297.139 39.552 298.387 39.288 299.731 39.288C301.411 39.288 302.803 39.648 303.907 40.368C305.011 41.04 305.827 42.336 306.355 44.256L312.043 64.056H312.331C312.907 62.424 313.459 60.648 313.987 58.728C314.563 56.808 315.115 54.84 315.643 52.824C316.171 50.76 316.651 48.72 317.083 46.704C317.563 44.64 317.971 42.624 318.307 40.656C320.035 39.744 321.931 39.288 323.995 39.288C325.675 39.288 327.067 39.648 328.171 40.368C329.275 41.088 329.827 42.336 329.827 44.112C329.827 45.408 329.659 46.92 329.323 48.648C328.987 50.328 328.531 52.128 327.955 54.048C327.427 55.968 326.779 57.96 326.011 60.024C325.291 62.04 324.523 64.032 323.707 66C322.891 67.968 322.051 69.84 321.187 71.616C320.323 73.344 319.483 74.904 318.667 76.296C317.323 78.648 316.075 80.568 314.923 82.056C313.771 83.544 312.667 84.696 311.611 85.512C310.555 86.376 309.499 86.952 308.443 87.24C307.387 87.576 306.283 87.744 305.131 87.744C303.115 87.744 301.483 87.144 300.235 85.944C298.987 84.744 298.243 83.184 298.003 81.264C299.539 80.064 301.075 78.72 302.611 77.232C304.147 75.792 305.539 74.304 306.787 72.768C305.971 72.528 305.083 71.976 304.123 71.112C303.211 70.2 302.203 68.52 301.099 66.072Z" fill="url(#paint1_linear_7_643)" shape-rendering="crispEdges"/>
</g>
<path d="M173.153 67.128C167.916 57.6277 171.372 45.6804 180.872 40.4438C190.372 35.2072 202.32 38.6632 207.556 48.1636C212.793 57.6639 209.337 69.61 199.837 74.8478C190.336 80.0844 178.39 76.6284 173.153 67.128Z" fill="#456B41"/>
<path d="M198.866 76.0018C198.624 76.1564 198.378 76.3051 198.128 76.4491C198.044 76.4975 197.959 76.5459 197.874 76.592C197.68 76.7006 197.487 76.8033 197.291 76.9048C187.938 81.6985 176.529 78.0191 171.444 68.3939C166.594 59.2138 169.201 47.8427 177.159 41.8721C177.794 41.3953 178.462 40.9538 179.163 40.5501C179.415 40.4049 179.669 40.2668 179.924 40.1346C180.172 40.0059 180.422 39.8831 180.673 39.7674C181.441 39.4098 182.223 39.1088 183.012 38.8621C184.185 38.4926 185.375 38.2447 186.568 38.1137C190.268 37.7041 193.991 38.41 197.291 40.0944C200.794 41.8816 203.822 44.7724 205.848 48.6053C210.947 58.2576 207.804 70.3298 198.866 76.0018Z" fill="#639C5E"/>
<path d="M198.866 76.0018C198.624 76.1564 198.378 76.3051 198.128 76.4491C198.044 76.4975 197.959 76.5459 197.874 76.592C197.68 76.7006 197.487 76.8033 197.291 76.9048C187.938 81.6985 176.529 78.0191 171.444 68.3939C166.594 59.2138 169.201 47.8427 177.159 41.8721C177.794 41.3953 178.462 40.9538 179.163 40.5501C179.415 40.4049 179.669 40.2668 179.924 40.1346C180.172 40.0059 180.422 39.8831 180.673 39.7674C181.441 39.4098 182.223 39.1088 183.012 38.8621C184.185 38.4926 185.375 38.2447 186.568 38.1137C190.268 37.7041 193.991 38.41 197.291 40.0944C200.794 41.8816 203.822 44.7724 205.848 48.6053C210.947 58.2576 207.804 70.3298 198.866 76.0018Z" fill="#639C5E"/>
<path d="M197.615 60.2744C197.578 60.183 197.536 60.0959 197.495 60.0088C197.182 59.3524 196.79 58.8192 196.321 58.4114C195.791 57.9504 195.175 57.6052 194.473 57.3757C193.772 57.1453 192.988 57.0051 192.125 56.9551C191.261 56.9041 190.32 56.8925 189.305 56.9201C188.677 56.9381 188.14 56.9275 187.695 56.8893C187.249 56.85 186.871 56.7714 186.561 56.6524C186.25 56.5335 185.998 56.3709 185.804 56.1638C185.61 55.9578 185.45 55.706 185.323 55.4086C185.196 55.1102 185.124 54.8149 185.105 54.5217C185.086 54.2296 185.132 53.9524 185.242 53.6879C185.353 53.4256 185.532 53.1823 185.782 52.9593C186.031 52.7362 186.36 52.545 186.769 52.3868C187.524 52.0947 188.229 52.1021 188.884 52.4059C189.538 52.7118 190.071 53.347 190.482 54.3125L194.425 52.7872C194.082 51.9832 193.652 51.3023 193.135 50.7479C192.618 50.1934 192.035 49.7643 191.387 49.4616C190.738 49.1589 190.033 48.9826 189.269 48.9305C188.506 48.8795 187.712 48.956 186.889 49.1621L185.772 46.5417L183.59 47.3861L184.691 49.9704C183.903 50.3602 183.235 50.8127 182.687 51.3289C182.139 51.8461 181.718 52.4059 181.424 53.0071C181.129 53.6093 180.975 54.2402 180.96 54.902C180.945 55.5648 181.083 56.2382 181.375 56.9211C181.711 57.7103 182.145 58.3359 182.675 58.7959C183.205 59.2568 183.82 59.5999 184.521 59.8261C185.221 60.0524 186.004 60.1883 186.87 60.2319C187.737 60.2765 188.679 60.2754 189.697 60.2287C190.288 60.1968 190.801 60.2 191.236 60.2393C191.67 60.2765 192.046 60.3562 192.363 60.4773C192.679 60.5994 192.942 60.7693 193.152 60.9882C193.361 61.207 193.539 61.4852 193.684 61.823C193.811 62.1215 193.873 62.4178 193.872 62.7142C193.871 63.0094 193.801 63.293 193.661 63.5618C193.522 63.8316 193.312 64.0812 193.035 64.3106C192.756 64.5411 192.404 64.7376 191.976 64.9033C191.602 65.0477 191.218 65.1423 190.819 65.1901C190.42 65.2357 190.031 65.1986 189.65 65.0785C189.27 64.9574 188.915 64.7386 188.585 64.4221C188.253 64.1056 187.966 63.6605 187.722 63.0891L183.78 64.6144C184.191 65.5799 184.708 66.3468 185.331 66.9108C185.953 67.4769 186.634 67.8826 187.373 68.1248C188.113 68.3691 188.887 68.4764 189.694 68.4445C190.502 68.4127 191.299 68.2884 192.085 68.0675L193.104 70.4584L195.273 69.6193L194.249 67.2177C195.037 66.8279 195.711 66.3786 196.273 65.8709C196.794 65.4004 197.201 64.8948 197.495 64.351C197.52 64.3063 197.542 64.2628 197.564 64.2182C197.862 63.6244 198.021 62.9967 198.04 62.3318C198.059 61.669 197.918 60.9828 197.615 60.2744" fill="#097200"/>
<path d="M188.622 41.8999C185.776 41.8999 182.891 42.5973 180.227 44.0659C176.145 46.3162 173.183 50.0213 171.888 54.4987C170.593 58.9761 171.118 63.691 173.369 67.773C175.619 71.8551 179.324 74.8166 183.802 76.1123C188.28 77.4069 192.993 76.8812 197.077 74.631C205.504 69.9853 208.579 59.3508 203.935 50.9239C200.757 45.1611 194.779 41.8999 188.622 41.8999ZM188.677 77.2916C187.003 77.2916 185.32 77.0542 183.668 76.5769C179.066 75.2454 175.258 72.2021 172.945 68.0059C170.632 63.8109 170.092 58.9657 171.423 54.365C172.754 49.763 175.798 45.9542 179.993 43.6417C188.654 38.868 199.584 42.0301 204.358 50.6899C209.133 59.3508 205.97 70.2804 197.309 75.0541C194.621 76.5365 191.664 77.2916 188.677 77.2916Z" fill="#437A3E"/>
<defs>
<filter id="filter0_i_7_643" x="-5.95996" y="6.09595" width="336.637" height="21.1841" filterUnits="userSpaceOnUse" color-interpolation-filters="sRGB">
<feFlood flood-opacity="0" result="BackgroundImageFix"/>
<feBlend mode="normal" in="SourceGraphic" in2="BackgroundImageFix" result="shape"/>
<feColorMatrix in="SourceAlpha" type="matrix" values="0 0 0 0 0 0 0 0 0 0 0 0 0 0 0 0 0 0 127 0" result="hardAlpha"/>
<feOffset dx="-8" dy="6"/>
<feGaussianBlur stdDeviation="6"/>
<feComposite in2="hardAlpha" operator="arithmetic" k2="-1" k3="1"/>
<feColorMatrix type="matrix" values="0 0 0 0 0 0 0 0 0 0 0 0 0 0 0 0 0 0 0.25 0"/>
<feBlend mode="normal" in2="shape" result="effect1_innerShadow_7_643"/>
</filter>
<filter id="filter1_d_7_643" x="0.743896" y="31.08" width="333.083" height="64.6641" filterUnits="userSpaceOnUse" color-interpolation-filters="sRGB">
<feFlood flood-opacity="0" result="BackgroundImageFix"/>
<feColorMatrix in="SourceAlpha" type="matrix" values="0 0 0 0 0 0 0 0 0 0 0 0 0 0 0 0 0 0 127 0" result="hardAlpha"/>
<feOffset dy="4"/>
<feGaussianBlur stdDeviation="2"/>
<feComposite in2="hardAlpha" operator="out"/>
<feColorMatrix type="matrix" values="0 0 0 0 0 0 0 0 0 0 0 0 0 0 0 0 0 0 0.25 0"/>
<feBlend mode="normal" in2="BackgroundImageFix" result="effect1_dropShadow_7_643"/>
<feBlend mode="normal" in="SourceGraphic" in2="effect1_dropShadow_7_643" result="shape"/>
</filter>
<linearGradient id="paint0_linear_7_643" x1="1" y1="1" x2="331.964" y2="26.4658" gradientUnits="userSpaceOnUse">
<stop stop-color="#097200"/>
<stop offset="0.255208" stop-color="#097200" stop-opacity="0.744792"/>
<stop offset="1" stop-color="#3B8135"/>
</linearGradient>
<linearGradient id="paint1_linear_7_643" x1="1" y1="0" x2="333.827" y2="5.66574" gradientUnits="userSpaceOnUse">
<stop stop-color="#0E6607"/>
<stop offset="0.255208" stop-color="#053D00" stop-opacity="0.744792"/>
<stop offset="1" stop-color="#097000"/>
</linearGradient>
</defs>
</svg>
