<svg width="143" height="182" viewBox="0 0 143 182" fill="none" xmlns="http://www.w3.org/2000/svg">
<path d="M112.913 175.463C116.738 175.463 119.821 172.328 119.755 168.503L119.687 164.478L117.497 35.9374L117.41 30.8244C117.322 25.6914 113.763 21.4314 109.008 20.2447C109.328 20.7382 109.519 21.3268 109.526 21.9659L111.136 166.307C111.152 167.692 110.126 168.87 108.751 169.038C100.953 169.989 88.2819 170.321 74.3939 170.321C66.7493 170.321 7.77147 166.456 0.000310098 166.303C-0.0208375 168.279 1.20665 170.594 1.15848 172.153L97.0712 175.445L112.905 175.463C112.908 175.463 112.91 175.463 112.913 175.463ZM0.000310098 166.303C1.97469 166.863 2.30183 166.622 4.53408 166.496L7.59206 63.904C4.71481 62.0735 2.80565 58.8579 2.80565 55.1959C2.80565 51.2671 5.00266 47.8518 8.23472 46.1118L8.90203 27.617C8.9596 26.0039 10.2884 24.7468 11.8815 24.7468C11.9414 24.7468 12.0025 24.748 12.0624 24.7515C17.4703 25.0746 23.038 25.2156 28.648 25.2156C54.8241 25.2156 81.8534 22.141 97.0784 20.072L11.7699 21.5254C6.56405 21.6146 2.34158 25.7666 2.16535 30.9701L1.15848 60.7013L0.000310098 166.303Z" fill="url(#paint0_linear_7_435)"/>
<path d="M105.816 18.813C92.9606 20.7803 48.7442 26.9392 12.0619 24.7516C10.3895 24.6522 8.96232 25.942 8.90191 27.6167L3.93924 165.149C3.87054 167.035 5.33685 168.621 7.22243 168.701C22.6458 169.351 86.1583 171.794 108.751 169.038C110.126 168.87 111.152 167.693 111.136 166.307L109.527 21.9659C109.505 20.0045 107.755 18.5169 105.816 18.813Z" fill="#74B36F"/>
<path d="M104.497 22.4018C92.1254 24.294 49.5742 30.2207 14.2743 28.1158C12.6633 28.0193 11.2894 29.2618 11.2313 30.8728L6.45644 163.227C6.39019 165.042 7.80127 166.568 9.61566 166.645C24.4586 167.27 85.5799 169.621 107.321 166.969C108.645 166.807 109.631 165.674 109.617 164.341L108.067 25.4343C108.047 23.5478 106.362 22.1158 104.497 22.4018Z" fill="#BAE1B7"/>
<path d="M15.4215 39.7178C15.4258 39.7178 15.4312 39.7178 15.4355 39.7178L27.6185 39.5097C27.8525 38.8077 28.1404 38.1305 28.479 37.4835L15.5294 37.807C15.0463 37.8178 14.6322 38.2232 14.6074 38.7052L14.6009 38.8551C14.5772 39.3328 14.9449 39.7178 15.4215 39.7178V39.7178ZM53.4348 39.0697L93.7114 38.3839C94.195 38.3753 94.8307 38.055 95.1252 37.6722L96.0397 36.4828C96.3289 36.1065 96.186 35.8078 95.7245 35.8078C95.7154 35.8078 95.7063 35.8078 95.6972 35.8088L52.3974 36.8872C52.805 37.5784 53.1522 38.3084 53.4348 39.0697" fill="#EDFDE5"/>
<path d="M15.5118 45.0033C15.517 45.0033 15.5222 45.0033 15.5274 45.0033L26.9633 44.8088C26.9403 44.4814 26.9278 44.1509 26.9278 43.8183C26.9278 43.4794 26.9403 43.1426 26.9644 42.809L15.6205 43.0914C15.1373 43.1039 14.7221 43.5087 14.6991 43.9919L14.6918 44.1404C14.6688 44.6184 15.0359 45.0033 15.5118 45.0033V45.0033ZM54.2718 44.3433L93.8022 43.6698C94.2852 43.6614 94.9215 43.3414 95.2159 42.9575L96.1305 41.7683C96.4191 41.3929 96.2761 41.0937 95.8152 41.0937C95.8061 41.0937 95.797 41.0937 95.7873 41.0937L54.1776 42.1313C54.2467 42.6835 54.2812 43.2472 54.2812 43.8183C54.2812 43.994 54.278 44.1687 54.2718 44.3433" fill="#EDFDE5"/>
<path d="M95.305 76.6656C95.7197 76.7 96.0954 76.8889 96.3359 77.1852C96.5342 77.427 96.6239 77.7233 96.5881 78.0162L95.5176 86.912C95.4045 87.8547 94.497 88.5606 93.407 88.5547L82.7862 88.4934C82.7794 88.4934 82.7719 88.4934 82.766 88.4934C81.7504 88.4783 80.9202 87.7506 80.911 86.865C80.8698 82.8032 80.8791 78.9983 81.4322 77.0694C81.6773 76.2157 82.6107 75.5929 83.6054 75.6441C85.5419 75.6978 89.0161 76.0478 91.808 76.3282C93.1697 76.465 94.4067 76.5901 95.305 76.6656V76.6656ZM82.7517 89.3605C82.7618 89.3605 82.7719 89.3605 82.7811 89.3605L93.4025 89.421C94.9332 89.4294 96.2124 88.3952 96.3782 87.0153L97.4487 78.1195C97.5125 77.5906 97.3558 77.0643 97.0074 76.6379C96.6194 76.1603 96.0252 75.8565 95.3778 75.8019C94.4828 75.7272 93.2503 75.603 91.8951 75.4662C88.9431 75.169 85.5973 74.8324 83.6297 74.7779C83.6155 74.777 83.6012 74.777 83.5869 74.777C82.1784 74.7552 80.9546 75.5946 80.5996 76.831C80.0137 78.8707 80.0027 82.7453 80.0447 86.8734C80.059 88.2274 81.2711 89.337 82.7517 89.3605" fill="white"/>
<path d="M92.6173 87.7344C93.6554 87.7344 94.5257 87.0386 94.6363 86.117L95.4916 79.0087C95.5801 78.2733 94.9775 77.6114 94.1513 77.5419C91.9234 77.3558 87.0819 76.7891 84.7828 76.7254C84.7605 76.7245 84.739 76.7237 84.7175 76.7237C83.7702 76.7237 82.9396 77.2921 82.7038 78.1144C82.2347 79.7492 82.243 83.0212 82.2736 86.0409C82.2827 86.9459 83.1026 87.6798 84.1169 87.6864L92.6044 87.7344C92.6082 87.7344 92.6128 87.7344 92.6173 87.7344" fill="#EDFDE5"/>
<path d="M72.0995 85.236C72.5782 85.236 73.0713 84.8644 73.2006 84.4032L74.2081 80.8104C74.3374 80.3472 74.0527 79.9718 73.5741 79.9718C73.5712 79.9718 73.5683 79.9718 73.5663 79.9718L43.9732 80.2218C43.1819 81.9491 42.0519 83.4883 40.6671 84.7544L72.085 85.236C72.0899 85.236 72.0947 85.236 72.0995 85.236V85.236ZM21.363 84.4582C20.1895 83.3175 19.2139 81.9732 18.494 80.4842C18.1427 80.6039 17.8802 80.9359 17.8658 81.3199L17.7837 83.524C17.7654 84.0075 18.1456 84.4089 18.6291 84.4167L21.363 84.4582Z" fill="#EDFDE5"/>
<path d="M94.6842 52.8201C95.0989 52.8556 95.4746 53.0448 95.7151 53.3396C95.9134 53.583 96.0031 53.8777 95.9673 54.1705L94.8967 63.0672C94.7837 64.0095 93.8763 64.7162 92.7868 64.7093L82.1657 64.6492C82.1593 64.6482 82.1521 64.6482 82.145 64.6482C81.1297 64.6325 80.2996 63.906 80.2905 63.0199C80.2489 58.9579 80.258 55.1532 80.8118 53.2242C81.0568 52.3706 81.9903 51.7477 82.9848 51.7989C84.9211 51.8522 88.3954 52.2031 91.1878 52.484C92.5489 52.621 93.7859 52.7452 94.6842 52.8201V52.8201ZM82.132 65.5146C82.1418 65.5146 82.1514 65.5146 82.1612 65.5156L92.7817 65.5757C94.3124 65.5846 95.5916 64.5506 95.7573 63.1707L96.8279 54.275C96.8916 53.7457 96.7349 53.2193 96.3872 52.7925C95.9985 52.3154 95.4044 52.0109 94.757 51.9566C93.862 51.8817 92.6302 51.7575 91.2743 51.6205C88.3226 51.3248 84.9771 50.9867 83.0095 50.9325C82.9945 50.9315 82.9802 50.9315 82.9659 50.9315C81.5581 50.9099 80.3335 51.7496 79.9785 52.9857C79.3929 55.026 79.3825 58.9007 79.4241 63.0278C79.4384 64.3821 80.65 65.492 82.132 65.5146" fill="white"/>
<path d="M91.9957 63.89C93.0339 63.89 93.9041 63.1939 94.0147 62.2729L94.8701 55.1637C94.9585 54.4286 94.3559 53.7666 93.5304 53.6984C91.3015 53.5105 86.4603 52.9449 84.1613 52.8806C84.1399 52.8796 84.1178 52.8796 84.0957 52.8796C83.1486 52.8796 82.3186 53.4482 82.082 54.2709C81.6133 55.9046 81.6218 59.1759 81.6523 62.1969C81.6621 63.1004 82.4811 63.8355 83.4951 63.8413L91.9828 63.89C91.9873 63.89 91.9912 63.89 91.9957 63.89" fill="#EDFDE5"/>
<path d="M71.4787 61.3916C71.9565 61.3916 72.4505 61.0197 72.5793 60.559L73.5864 56.9656C73.7161 56.5031 73.4309 56.1273 72.9531 56.1273C72.9503 56.1273 72.9474 56.1273 72.9445 56.1273L70.2256 56.1502C69.044 58.9931 66.2393 60.992 62.9682 60.992C59.7448 60.992 56.9744 59.0503 55.7632 56.2723L46.0834 56.3543C44.405 57.0877 42.552 57.4959 40.6046 57.4959C38.7383 57.4959 36.9597 57.122 35.3394 56.4449L23.3422 56.547C23.1476 58.0309 22.6384 59.4146 21.8831 60.6306L27.7186 60.7202C28.8239 60.4417 29.9807 60.293 31.1718 60.293C32.5146 60.293 33.8135 60.4808 35.0437 60.8328L71.4644 61.3907C71.4692 61.3907 71.473 61.3916 71.4787 61.3916" fill="#EDFDE5"/>
<path d="M94.956 99.425C95.3696 99.4599 95.7453 99.6489 95.9868 99.9442C96.1841 100.188 96.2744 100.482 96.2387 100.776L95.1687 109.672C95.0554 110.615 94.1478 111.321 93.0576 111.314L82.4373 111.254C82.4303 111.253 82.4233 111.253 82.4163 111.253C81.401 111.238 80.571 110.511 80.5619 109.624C80.5207 105.563 80.5298 101.758 81.0826 99.8294C81.3282 98.975 82.261 98.3634 83.2567 98.404C85.193 98.4579 88.6673 98.8078 91.4586 99.0884C92.8203 99.2255 94.0575 99.3494 94.956 99.425V99.425ZM82.403 112.119C82.4128 112.119 82.4226 112.12 82.4324 112.12L93.0534 112.182C94.5837 112.19 95.8636 111.156 96.0287 109.776L97.0994 100.88C97.1624 100.351 97.0063 99.8238 96.6585 99.397C96.2702 98.9197 95.6761 98.616 95.0288 98.5614C94.1338 98.4866 92.9015 98.362 91.5461 98.2263C88.5938 97.9296 85.2482 97.5923 83.2805 97.537C83.2658 97.537 83.2518 97.537 83.2378 97.5363C81.8299 97.5146 80.6053 98.3543 80.2498 99.5908C79.6641 101.631 79.6537 105.505 79.6956 109.632C79.7096 110.987 80.9216 112.097 82.403 112.119" fill="white"/>
<path d="M92.2674 110.495C93.3051 110.495 94.1757 109.799 94.2858 108.877L95.1412 101.769C95.2299 101.033 94.6275 100.371 93.8009 100.302C91.5729 100.116 86.7316 99.5494 84.4327 99.4855C84.4107 99.4848 84.3887 99.4841 84.3674 99.4841C83.4198 99.4841 82.5891 100.053 82.3532 100.875C81.8842 102.509 81.8931 105.781 81.9234 108.801C81.933 109.706 82.7527 110.441 83.7664 110.446L92.2544 110.495C92.2578 110.495 92.2626 110.495 92.2674 110.495" fill="#EDFDE5"/>
<path d="M71.7501 107.995C72.2292 107.995 72.722 107.623 72.8518 107.162L73.8583 103.569C73.988 103.106 73.7032 102.731 73.2249 102.731C73.2218 102.731 73.2195 102.731 73.2172 102.731L49.9227 102.927C49.9611 104.352 50.0033 105.94 50.0479 107.662L71.7363 107.995C71.7409 107.995 71.7455 107.995 71.7501 107.995" fill="#EDFDE5"/>
<path d="M95.6144 121.295C96.0284 121.33 96.4048 121.519 96.6453 121.815C96.8435 122.058 96.9326 122.353 96.8975 122.646L95.8269 131.542C95.7138 132.484 94.8064 133.191 93.717 133.184L83.096 133.124C82.095 133.091 81.2298 132.386 81.2207 131.494C81.1791 127.433 81.1882 123.628 81.7414 121.699C81.9871 120.845 82.9198 120.245 83.915 120.274C85.852 120.327 89.3282 120.678 92.1213 120.958C93.4804 121.096 94.7167 121.22 95.6144 121.295V121.295ZM83.0628 133.99C83.0719 133.99 83.081 133.99 83.0908 133.99L93.7118 134.051C95.2419 134.06 96.5211 133.026 96.6875 131.645L97.7581 122.75C97.8211 122.221 97.6645 121.694 97.3174 121.268C96.9287 120.791 96.3346 120.486 95.6872 120.431C94.7928 120.357 93.5623 120.233 92.2077 120.097C89.401 119.814 85.9072 119.463 83.939 119.408C82.5415 119.38 81.2669 120.212 80.9087 121.461C80.3231 123.501 80.312 127.375 80.3542 131.503C80.3679 132.857 81.5802 133.968 83.0628 133.99" fill="white"/>
<path d="M92.9264 132.364C93.9645 132.364 94.8348 131.668 94.9453 130.747L95.8007 123.638C95.8891 122.903 95.2866 122.241 94.4604 122.172C92.2322 121.986 87.391 121.419 85.0919 121.355C85.0698 121.354 85.0477 121.354 85.0263 121.354C84.0792 121.354 83.2485 121.922 83.0126 122.745C82.5433 124.379 82.5524 127.651 82.5829 130.671C82.592 131.576 83.4117 132.31 84.4257 132.315L92.9127 132.364C92.9173 132.364 92.9219 132.364 92.9264 132.364" fill="#EDFDE5"/>
<path d="M72.4086 129.865C72.8879 129.865 73.381 129.493 73.5109 129.032L74.5177 125.439C74.6469 124.976 74.3618 124.601 73.884 124.601C73.8809 124.601 73.8786 124.601 73.8756 124.601L50.4582 124.798C50.4919 126.354 50.5255 127.932 50.5584 129.53L72.3948 129.865C72.3994 129.865 72.404 129.865 72.4086 129.865" fill="#EDFDE5"/>
<path d="M96.4752 143.852C96.8899 143.887 97.2656 144.075 97.5061 144.371C97.7037 144.614 97.7934 144.909 97.7583 145.202L96.6877 154.098C96.5746 155.041 95.6672 155.747 94.5772 155.741L83.9568 155.68C83.9496 155.68 83.9425 155.68 83.9353 155.68C82.9207 155.664 82.0906 154.937 82.0815 154.051C82.0399 149.99 82.049 146.185 82.6022 144.255C82.8479 143.402 83.78 142.812 84.7758 142.831C86.7121 142.884 90.1864 143.234 92.9782 143.514C94.3393 143.652 95.5769 143.776 96.4752 143.852V143.852ZM83.9223 156.546C83.9321 156.546 83.9418 156.546 83.9516 156.547L94.5726 156.607C96.1034 156.616 97.3826 155.582 97.5483 154.202L98.6189 145.306C98.6819 144.777 98.5259 144.251 98.1775 143.824C97.7895 143.347 97.1947 143.042 96.548 142.988C95.6529 142.913 94.4205 142.789 93.0653 142.652C90.1129 142.355 86.7674 142.019 84.7998 141.964C83.3568 141.961 82.1277 142.769 81.7695 144.017C81.1839 146.058 81.1728 149.932 81.2151 154.059C81.2287 155.413 82.441 156.524 83.9223 156.546" fill="white"/>
<path d="M93.7868 154.921C94.8242 154.921 95.6945 154.224 95.8057 153.303L96.6611 146.194C96.7495 145.459 96.1469 144.797 95.3208 144.728C93.0926 144.541 88.2513 143.975 85.9523 143.911C85.9302 143.91 85.9081 143.91 85.8866 143.91C84.9389 143.91 84.1089 144.478 83.8729 145.301C83.4036 146.935 83.4127 150.207 83.4433 153.227C83.4524 154.131 84.272 154.866 85.286 154.872L93.7731 154.921C93.7777 154.921 93.7822 154.921 93.7868 154.921" fill="#EDFDE5"/>
<path d="M73.2687 152.421C73.7472 152.421 74.2409 152.05 74.3704 151.589L75.3769 147.996C75.5065 147.533 75.2215 147.157 74.743 147.157C74.7407 147.157 74.7384 147.157 74.7354 147.157L50.8661 147.359C50.8874 148.951 50.9072 150.528 50.924 152.079L73.2549 152.421C73.2595 152.421 73.2641 152.421 73.2687 152.421" fill="#EDFDE5"/>
<path d="M57.6195 10.0113C59.0937 9.98664 60.269 8.77171 60.2435 7.29717C60.2182 5.82263 59.0027 4.64793 57.5285 4.67259C56.0543 4.69855 54.8797 5.91349 54.9044 7.38803C54.9297 8.86257 56.1453 10.0373 57.6195 10.0113ZM52.777 2.17003C56.1447 -0.259843 59.1087 -0.262442 61.2056 0.317769C63.1178 0.846059 64.3827 2.66197 64.2351 4.64143L63.5033 14.4765L52.8133 15.6096C52.8133 15.6096 46.1717 6.93373 52.777 2.17003" fill="url(#paint1_linear_7_435)"/>
<path d="M62.7788 7.5311C62.964 7.46008 63.1012 7.28704 63.1167 7.07526L63.2058 5.88591C63.3554 3.8714 62.0579 2.02089 60.1196 1.48498C58.793 1.11824 57.4311 1.08467 56.0726 1.38684C55.7913 1.45399 55.6059 1.73421 55.6704 2.02089C55.734 2.30628 56.0175 2.48707 56.3034 2.4225C57.4903 2.15777 58.6792 2.18747 59.8368 2.50644C61.2883 2.90805 62.26 4.29626 62.1476 5.80843L62.0592 6.99778C62.0378 7.28962 62.2568 7.54401 62.5486 7.56467C62.6292 7.57113 62.7079 7.55822 62.7788 7.5311V7.5311ZM62.5499 10.6007C62.7353 10.5296 62.873 10.3566 62.8885 10.1448L63.005 8.57839C63.0264 8.28654 62.808 8.03214 62.5155 8.01019C62.2236 7.98824 61.9688 8.20777 61.9474 8.50091L61.831 10.0673C61.809 10.3592 62.028 10.6136 62.3198 10.6342C62.401 10.6407 62.4791 10.6278 62.5499 10.6007Z" fill="#8AB987"/>
<path d="M78.2241 20.5736L78.1403 15.6365C78.111 13.933 76.6751 12.592 74.9729 12.6786L40.9524 14.4248C39.4442 14.5029 38.241 15.7158 38.1751 17.2265L37.9726 21.9757L78.2241 20.5736" fill="url(#paint2_linear_7_435)"/>
<path d="M65.4236 14.6631H65.4276L66.8914 14.6389C67.0123 14.6364 67.1092 14.5372 67.1071 14.4149C67.1052 14.295 67.0071 14.1993 66.8875 14.1993H66.8836L65.4198 14.2247C65.2989 14.2259 65.202 14.3265 65.204 14.4475C65.2059 14.5674 65.3041 14.6631 65.4236 14.6631Z" fill="#8AB987"/>
<path d="M76.541 19.2914C76.7425 19.2137 76.8842 19.0159 76.8803 18.7865L76.8458 16.7901C76.8322 15.9697 76.5001 15.204 75.9098 14.6336C75.3203 14.0644 74.5435 13.7573 73.7232 13.7707L68.3412 13.8629C68.05 13.869 67.8154 14.1093 67.8205 14.403C67.8251 14.6955 68.067 14.9285 68.36 14.9236L73.7414 14.8326C74.8497 14.8132 75.7668 15.6991 75.7857 16.8084L75.8195 18.8047C75.8247 19.0984 76.0665 19.3314 76.3591 19.3266C76.4226 19.3254 76.4844 19.3132 76.541 19.2914" fill="#8AB987"/>
<path d="M88.8591 18.5861L29.3345 19.5984C27.1938 19.6351 25.3906 21.2063 25.0614 23.3209L25.0164 23.6133C24.6553 25.9304 26.4704 28.0131 28.8135 27.9728L89.8829 26.9321C91.2862 26.9084 92.3841 25.7161 92.2931 24.3154L92.115 21.5851C92.0038 19.8766 90.5706 18.5565 88.8591 18.5861" fill="url(#paint3_linear_7_435)"/>
<path d="M62.9675 60.9912C66.2383 60.9912 69.0429 58.9916 70.2254 56.1492C70.611 55.2208 70.8232 54.2026 70.8232 53.1344C70.8232 48.7954 67.3065 45.2776 62.9675 45.2776C58.6284 45.2776 55.1107 48.7954 55.1107 53.1344C55.1107 54.2495 55.3433 55.3106 55.7616 56.2716C56.9736 59.0497 59.7435 60.9912 62.9675 60.9912V60.9912ZM62.9675 45.5388C67.1627 45.5388 70.5631 48.9402 70.5631 53.1344C70.5631 57.3296 67.1627 60.729 62.9675 60.729C58.7723 60.729 55.3718 57.3296 55.3718 53.1344C55.3718 48.9402 58.7723 45.5388 62.9675 45.5388Z" fill="url(#paint4_linear_7_435)"/>
<path d="M62.9676 60.7302C67.1623 60.7302 70.5635 57.33 70.5635 53.1343C70.5635 48.9406 67.1623 45.5395 62.9676 45.5395C58.7729 45.5395 55.3717 48.9406 55.3717 53.1343C55.3717 57.33 58.7729 60.7302 62.9676 60.7302ZM62.8026 46.8718C66.3525 46.8718 69.2311 49.7505 69.2311 53.3004C69.2311 56.8513 66.3525 59.7289 62.8026 59.7289C59.2516 59.7289 56.374 56.8513 56.374 53.3004C56.374 49.7505 59.2516 46.8718 62.8026 46.8718ZM62.9676 45.9041C65.7138 45.9041 68.1891 47.428 69.4267 49.8808C69.4817 49.9898 69.4379 50.1212 69.3299 50.1762C69.2973 50.1925 69.2637 50.1997 69.2311 50.1997C69.1506 50.1997 69.0732 50.1549 69.0345 50.0795C67.8712 47.7743 65.5467 46.3432 62.9676 46.3432C62.5561 46.3432 62.1435 46.3808 61.7422 46.4532C61.7289 46.4562 61.7136 46.4572 61.7004 46.4572C61.5975 46.4572 61.5058 46.3829 61.4865 46.2769C61.4651 46.1578 61.5435 46.0437 61.6637 46.0213C62.0905 45.9428 62.5296 45.9041 62.9676 45.9041" fill="url(#paint5_linear_7_435)"/>
<path d="M69.232 50.1995C69.2656 50.1995 69.2991 50.1924 69.3306 50.1761C69.4394 50.1212 69.4831 49.9891 69.4282 49.8813C68.1902 47.4278 65.7153 45.9042 62.969 45.9042C62.531 45.9042 62.0919 45.9428 61.665 46.0221C61.5451 46.0434 61.4668 46.1573 61.4882 46.2772C61.5075 46.3829 61.599 46.4571 61.7016 46.4571C61.7158 46.4571 61.7301 46.4561 61.7433 46.4531C62.1448 46.3809 62.5574 46.3433 62.969 46.3433C65.5476 46.3433 67.8731 47.7754 69.0359 50.0795C69.0745 50.1547 69.1518 50.1995 69.232 50.1995" fill="url(#paint6_linear_7_435)"/>
<path d="M62.8015 59.7296C66.3522 59.7296 69.23 56.8519 69.23 53.3011C69.23 49.7504 66.3522 46.8727 62.8015 46.8727C59.2518 46.8727 56.373 49.7504 56.373 53.3011C56.373 56.8519 59.2518 59.7296 62.8015 59.7296Z" fill="url(#paint7_linear_7_435)"/>
<path d="M63.4335 58.0791V57.3799C64.1627 57.3499 64.8829 57.1791 65.3954 56.9543C65.5782 56.8744 65.6721 56.6687 65.6191 56.4759L65.4413 55.8246C65.3764 55.5858 65.1167 55.462 64.8879 55.5578C64.3804 55.7706 63.7531 55.9394 63.0758 55.9394C62.3746 55.9394 61.8502 55.7017 61.8502 55.2132C61.8502 54.7727 62.2547 54.511 63.2307 54.2493C64.6232 53.8687 65.6231 53.2623 65.6231 52.0356C65.6231 50.9288 64.814 50.0837 63.4095 49.857V49.1577C63.4095 48.933 63.2267 48.7502 63.0019 48.7502H62.5914C62.3656 48.7502 62.1838 48.933 62.1838 49.1577V49.7861C61.5085 49.813 61.0181 49.9289 60.6285 50.0648C60.4277 50.1357 60.3198 50.3505 60.3748 50.5542L60.5376 51.1576C60.6005 51.3903 60.8492 51.5162 61.075 51.4323C61.4336 51.2964 61.9411 51.1546 62.6004 51.1546C63.4335 51.1546 63.6712 51.4992 63.6712 51.8089C63.6712 52.1905 63.1708 52.4522 62.0879 52.7858C60.5416 53.2493 59.8983 53.8926 59.8983 55.0464C59.8983 56.1063 60.6834 57.0582 62.2068 57.296V58.0791C62.2068 58.3039 62.3896 58.4867 62.6143 58.4867H63.0259C63.2507 58.4867 63.4335 58.3039 63.4335 58.0791" fill="url(#paint8_linear_7_435)"/>
<path d="M40.6046 57.4952C42.5525 57.4952 44.4059 57.0879 46.0833 56.3532C50.7583 54.3073 54.0687 49.7225 54.2723 44.3429C54.2779 44.1681 54.2812 43.9934 54.2812 43.8186C54.2812 43.2465 54.2467 42.6833 54.1777 42.1312C54.0475 41.0682 53.7959 40.0441 53.4353 39.0701C53.1537 38.3088 52.8053 37.5786 52.399 36.8874C50.0203 32.8502 45.6291 30.1409 40.6046 30.1409C35.3363 30.1409 30.7648 33.1195 28.4797 37.484C28.1413 38.1307 27.853 38.8075 27.6192 39.5098C27.2719 40.5595 27.0482 41.6637 26.9647 42.809C26.9402 43.1418 26.928 43.4791 26.928 43.8186C26.928 44.1514 26.9402 44.4809 26.9636 44.8082C27.3387 50.0664 30.688 54.5021 35.3397 56.4445C36.9592 57.1212 38.7391 57.4952 40.6046 57.4952V57.4952ZM40.6046 30.5961C47.9065 30.5961 53.8271 36.5156 53.8271 43.8186C53.8271 51.1205 47.9065 57.04 40.6046 57.04C33.3016 57.04 27.3821 51.1205 27.3821 43.8186C27.3821 36.5156 33.3016 30.5961 40.6046 30.5961Z" fill="url(#paint9_linear_7_435)"/>
<path d="M40.6037 57.0403C47.9051 57.0403 53.8252 51.1202 53.8252 43.8188C53.8252 36.5152 47.9051 30.5962 40.6037 30.5962C33.3001 30.5962 27.3811 36.5152 27.3811 43.8188C27.3811 51.1202 33.3001 57.0403 40.6037 57.0403ZM40.315 32.9156C46.4961 32.9156 51.5058 37.9253 51.5058 44.1064C51.5058 50.2863 46.4961 55.2971 40.315 55.2971C34.134 55.2971 29.1243 50.2863 29.1243 44.1064C29.1243 37.9253 34.134 32.9156 40.315 32.9156ZM40.6037 31.3934C45.3214 31.3934 49.575 34.0115 51.7023 38.2273C51.7567 38.335 51.7134 38.4671 51.6046 38.5215C51.5724 38.5382 51.5391 38.546 51.5069 38.546C51.4258 38.546 51.3481 38.5016 51.3104 38.4249C49.2574 34.359 45.1548 31.832 40.6037 31.832C39.8765 31.832 39.1481 31.8975 38.4409 32.0263C38.4264 32.0296 38.412 32.0307 38.3987 32.0307C38.2954 32.0307 38.2044 31.9552 38.1855 31.8509C38.1633 31.7309 38.2421 31.6166 38.3609 31.5944C39.0948 31.4611 39.8498 31.3934 40.6037 31.3934" fill="url(#paint10_linear_7_435)"/>
<path d="M51.5071 38.5447C51.5402 38.5447 51.5734 38.5369 51.6054 38.5215C51.7138 38.4662 51.758 38.3347 51.7027 38.2263C49.5759 34.0114 45.3223 31.3926 40.6044 31.3926C39.8505 31.3926 39.0966 31.4601 38.3626 31.5938C38.2432 31.6159 38.1647 31.7298 38.1868 31.8492C38.2056 31.9553 38.2963 32.0305 38.3991 32.0305C38.4134 32.0305 38.4278 32.0294 38.4422 32.026C39.1485 31.8978 39.877 31.8315 40.6044 31.8315C45.1553 31.8315 49.2586 34.3585 51.3114 38.4242C51.349 38.5005 51.4264 38.5447 51.5071 38.5447" fill="url(#paint11_linear_7_435)"/>
<path d="M40.3159 55.2969C46.4967 55.2969 51.5068 50.2867 51.5068 44.106C51.5068 37.9252 46.4967 32.9151 40.3159 32.9151C34.1363 32.9151 29.1261 37.9252 29.1261 44.106C29.1261 50.2867 34.1363 55.2969 40.3159 55.2969Z" fill="url(#paint12_linear_7_435)"/>
<path d="M41.4136 52.4248V51.2079C42.6822 51.1573 43.9379 50.8571 44.83 50.4665C45.1485 50.3277 45.3099 49.9705 45.2195 49.6348L44.9096 48.5017C44.7955 48.0853 44.3436 47.869 43.9455 48.0369C43.0621 48.407 41.9689 48.7008 40.7917 48.7008C39.5694 48.7008 38.6569 48.2865 38.6569 47.4365C38.6569 46.6703 39.3617 46.2141 41.0607 45.7579C43.4849 45.0951 45.2259 44.0384 45.2259 41.9047C45.2259 39.9776 43.8164 38.5067 41.3717 38.1129V36.8948C41.3717 36.5032 41.0542 36.1857 40.6626 36.1857H39.947C39.5554 36.1857 39.2379 36.5032 39.2379 36.8948V37.988C38.0629 38.0354 37.2086 38.2355 36.5296 38.4744C36.1821 38.5971 35.9927 38.9715 36.0885 39.3266L36.3736 40.3757C36.4834 40.7803 36.9148 41.0019 37.3076 40.8534C37.9317 40.6178 38.8151 40.3714 39.9632 40.3714C41.4136 40.3714 41.8268 40.9718 41.8268 41.5109C41.8268 42.1737 40.9574 42.6299 39.0722 43.2099C36.3779 44.018 35.2599 45.137 35.2599 47.147C35.2599 48.9902 36.6265 50.6483 39.2788 51.0626V52.4248C39.2788 52.8176 39.5963 53.135 39.9879 53.135H40.7045C41.0951 53.135 41.4136 52.8176 41.4136 52.4248" fill="url(#paint13_linear_7_435)"/>
<path d="M31.1715 88.4399C34.8308 88.4399 38.1636 87.0425 40.6668 84.7544C42.0507 83.4878 43.1816 81.9489 43.9724 80.2219C44.7894 78.4387 45.2449 76.4559 45.2449 74.3656C45.2449 67.9365 40.9333 62.5143 35.0431 60.832C33.8133 60.4802 32.5147 60.2922 31.1715 60.2922C29.9795 60.2922 28.8233 60.4405 27.7176 60.7196C21.6151 62.2595 17.0981 67.7853 17.0981 74.3656C17.0981 76.5587 17.6001 78.6335 18.4936 80.4836C19.2136 81.9731 20.1886 83.3172 21.3631 84.4579C23.8973 86.9223 27.3571 88.4399 31.1715 88.4399ZM31.1715 60.7603C38.685 60.7603 44.7768 66.8521 44.7768 74.3656C44.7768 81.88 38.685 87.9719 31.1715 87.9719C23.657 87.9719 17.5662 81.88 17.5662 74.3656C17.5662 66.8521 23.657 60.7603 31.1715 60.7603Z" fill="url(#paint14_linear_7_435)"/>
<path d="M31.1725 87.9718C38.686 87.9718 44.7781 81.8807 44.7781 74.3653C44.7781 66.8518 38.686 60.7607 31.1725 60.7607C23.6581 60.7607 17.5669 66.8518 17.5669 74.3653C17.5669 81.8807 23.6581 87.9718 31.1725 87.9718ZM30.8759 63.1473C37.2356 63.1473 42.3915 68.3021 42.3915 74.6629C42.3915 81.0226 37.2356 86.1775 30.8759 86.1775C24.5161 86.1775 19.3603 81.0226 19.3603 74.6629C19.3603 68.3021 24.5161 63.1473 30.8759 63.1473ZM31.1725 61.5868C36.0249 61.5868 40.3991 64.2807 42.5876 68.6152C42.6417 68.7234 42.5983 68.8558 42.49 68.9099C42.4581 68.9263 42.4253 68.9341 42.3915 68.9341C42.3113 68.9341 42.234 68.8906 42.1953 68.8133C40.0822 64.6266 35.8587 62.0264 31.1725 62.0264C30.4237 62.0264 29.6748 62.0941 28.9463 62.2265C28.9318 62.2294 28.9183 62.2313 28.9048 62.2313C28.8014 62.2313 28.7096 62.1559 28.6903 62.0506C28.668 61.9308 28.7473 61.8158 28.8671 61.7945C29.6227 61.6573 30.3976 61.5868 31.1725 61.5868Z" fill="url(#paint15_linear_7_435)"/>
<path d="M42.3905 68.9343C42.4246 68.9343 42.4577 68.927 42.489 68.9104C42.5976 68.8561 42.6417 68.7236 42.5865 68.615C40.3984 64.2801 36.0248 61.5867 31.1718 61.5867C30.397 61.5867 29.6222 61.6566 28.8667 61.7947C28.7471 61.8158 28.6679 61.9309 28.69 62.0505C28.7094 62.1554 28.8005 62.2308 28.9044 62.2308C28.9182 62.2308 28.9311 62.2299 28.9449 62.2262C29.6746 62.0937 30.4236 62.0266 31.1718 62.0266C35.8582 62.0266 40.0818 64.627 42.1945 68.8138C42.2332 68.8902 42.3105 68.9343 42.3905 68.9343" fill="url(#paint16_linear_7_435)"/>
<path d="M30.8763 86.1777C37.2362 86.1777 42.3916 81.0233 42.3916 74.6634C42.3916 68.3034 37.2362 63.1481 30.8763 63.1481C24.5164 63.1481 19.361 68.3034 19.361 74.6634C19.361 81.0233 24.5164 86.1777 30.8763 86.1777Z" fill="url(#paint17_linear_7_435)"/>
<path d="M32.0048 83.2238V81.971C33.3108 81.9187 34.6021 81.6108 35.5205 81.2085C35.8477 81.0655 36.0145 80.6971 35.921 80.3524L35.602 79.1857C35.4857 78.7577 35.0201 78.5359 34.6113 78.7073C33.7012 79.0895 32.5767 79.391 31.3651 79.391C30.1067 79.391 29.1691 78.964 29.1691 78.0905C29.1691 77.3014 29.8941 76.8322 31.6428 76.3639C34.1366 75.6811 35.9274 74.5941 35.9274 72.3982C35.9274 70.4149 34.4775 68.9008 31.9617 68.4957V67.2429C31.9617 66.8396 31.6354 66.5133 31.2322 66.5133H30.4962C30.093 66.5133 29.7667 66.8396 29.7667 67.2429V68.3683C28.5578 68.4169 27.678 68.6231 26.9796 68.8687C26.6222 68.9943 26.427 69.3792 26.526 69.7458L26.8183 70.8245C26.932 71.2406 27.3765 71.4688 27.7797 71.3167C28.4222 71.0738 29.3314 70.82 30.5127 70.82C32.0048 70.82 32.4319 71.4377 32.4319 71.9922C32.4319 72.675 31.5355 73.1442 29.5953 73.7408C26.8238 74.5721 25.6727 75.7241 25.6727 77.7918C25.6727 79.6889 27.0795 81.3954 29.8089 81.8216V83.2238C29.8089 83.6271 30.1361 83.9534 30.5384 83.9534H31.2753C31.6785 83.9534 32.0048 83.6271 32.0048 83.2238" fill="url(#paint18_linear_7_435)"/>
<path d="M13.1192 65.5071C16.819 65.5071 20.0644 63.5573 21.8831 60.63C22.6387 59.4147 23.1481 58.0303 23.3425 56.5455C23.4007 56.1038 23.4292 55.6525 23.4292 55.195C23.4292 49.501 18.8131 44.8839 13.1192 44.8839C12.2917 44.8839 11.4875 44.9811 10.7171 45.165C9.84102 45.3742 9.00827 45.6944 8.2347 46.1119C5.00304 47.8524 2.80704 51.2669 2.80704 55.195C2.80704 58.8578 4.71561 62.0736 7.59324 63.9029C8.33616 64.3753 9.1446 64.7557 10.0006 65.0273C10.9845 65.338 12.0317 65.5071 13.1192 65.5071ZM13.1192 45.2263C18.624 45.2263 23.0868 49.6891 23.0868 55.195C23.0868 60.7008 18.624 65.1636 13.1192 65.1636C7.61331 65.1636 3.14945 60.7008 3.14945 55.195C3.14945 49.6891 7.61331 45.2263 13.1192 45.2263Z" fill="url(#paint19_linear_7_435)"/>
<path d="M13.118 65.1638C18.6235 65.1638 23.0869 60.7004 23.0869 55.1949C23.0869 49.6894 18.6235 45.2271 13.118 45.2271C7.61253 45.2271 3.14909 49.6894 3.14909 55.1949C3.14909 60.7004 7.61253 65.1638 13.118 65.1638ZM12.9007 46.9757C17.5603 46.9757 21.3382 50.7536 21.3382 55.4122C21.3382 60.0718 17.5603 63.8497 12.9007 63.8497C8.24112 63.8497 4.46323 60.0718 4.46323 55.4122C4.46323 50.7536 8.24112 46.9757 12.9007 46.9757ZM13.118 45.7734C16.6955 45.7734 19.9207 47.7594 21.5334 50.9551C21.5882 51.0637 21.545 51.1955 21.4374 51.2504C21.4047 51.2662 21.3709 51.2736 21.3382 51.2736C21.257 51.2736 21.18 51.2293 21.1421 51.1533C19.6043 48.1063 16.5299 46.2132 13.118 46.2132C12.5727 46.2132 12.0275 46.2628 11.4969 46.3587C11.4832 46.3608 11.4695 46.3619 11.4558 46.3619C11.3524 46.3619 11.2607 46.2881 11.2417 46.1826C11.2206 46.0624 11.2987 45.9485 11.4189 45.9274C11.9747 45.8251 12.5464 45.7734 13.118 45.7734" fill="url(#paint20_linear_7_435)"/>
<path d="M21.3369 51.2732C21.3704 51.2732 21.404 51.2661 21.4355 51.2498C21.5434 51.1959 21.5871 51.0637 21.5322 50.9548C19.9199 47.7588 16.6944 45.7732 13.117 45.7732C12.5453 45.7732 11.9736 45.8251 11.4172 45.9268C11.2972 45.9482 11.2189 46.0621 11.2402 46.1822C11.2596 46.2869 11.3511 46.3622 11.4549 46.3622C11.4681 46.3622 11.4823 46.3612 11.4956 46.3581C12.0265 46.2625 12.5717 46.2127 13.117 46.2127C16.5286 46.2127 19.6026 48.1057 21.1405 51.1532C21.1792 51.2295 21.2565 51.2732 21.3369 51.2732" fill="url(#paint21_linear_7_435)"/>
<path d="M12.9006 63.8501C17.5591 63.8501 21.3374 60.0728 21.3374 55.4122C21.3374 50.7537 17.5591 46.9754 12.9006 46.9754C8.24103 46.9754 4.46273 50.7537 4.46273 55.4122C4.46273 60.0728 8.24103 63.8501 12.9006 63.8501Z" fill="url(#paint22_linear_7_435)"/>
<path d="M13.728 61.6853V60.7678C14.6852 60.7291 15.6321 60.5031 16.3042 60.2088C16.5435 60.1039 16.6657 59.8341 16.5974 59.5816L16.3643 58.7263C16.2787 58.4126 15.9376 58.2507 15.6372 58.377C14.9713 58.656 14.1475 58.877 13.2596 58.877C12.3381 58.877 11.6508 58.5644 11.6508 57.9239C11.6508 57.3465 12.1813 57.0024 13.4633 56.6582C15.29 56.1593 16.6025 55.362 16.6025 53.7532C16.6025 52.3001 15.5405 51.1913 13.6965 50.8939V49.9765C13.6965 49.6812 13.4572 49.4419 13.1619 49.4419H12.6232C12.3269 49.4419 12.0876 49.6812 12.0876 49.9765V50.8013C11.2018 50.8359 10.5582 50.9876 10.0461 51.1678C9.78437 51.2595 9.64182 51.5415 9.71309 51.8093L9.92795 52.6005C10.0104 52.906 10.3373 53.073 10.6326 52.961C11.103 52.7828 11.7689 52.5975 12.6344 52.5975C13.728 52.5975 14.0406 53.0496 14.0406 53.4558C14.0406 53.9558 13.3849 54.3 11.9634 54.7368C9.93201 55.3467 9.08891 56.1898 9.08891 57.705C9.08891 59.0959 10.1194 60.3453 12.1192 60.6579V61.6853C12.1192 61.9806 12.3585 62.2198 12.6538 62.2198H13.1934C13.4887 62.2198 13.728 61.9806 13.728 61.6853" fill="url(#paint23_linear_7_435)"/>
<path d="M118.331 175.355C118.331 175.355 118.727 177.6 118.922 179.822C118.998 180.69 118.328 181.444 117.458 181.48C114.499 181.603 108.17 181.843 105.9 181.742C105.558 181.727 105.335 181.377 105.461 181.059C105.567 180.793 105.772 180.578 106.032 180.459L116.485 175.654L118.331 175.355" fill="url(#paint24_linear_7_435)"/>
<path d="M118.656 174.037L118.337 176.722C118.337 176.722 116.506 177.574 115.255 176.614L116.014 173.623L118.656 174.037Z" fill="url(#paint25_linear_7_435)"/>
<path d="M118.415 123.566C118.553 124.268 119.154 158.551 115.489 173.914C115.43 174.165 115.557 174.423 115.795 174.521C116.357 174.75 117.459 175.083 118.78 175.127C119.189 175.141 119.555 174.875 119.671 174.482C120.718 170.918 125.738 153.059 126.393 135.998C127.124 116.934 126.393 135.349 126.393 135.349L125.963 123.565L118.415 123.566" fill="url(#paint26_linear_7_435)"/>
<path d="M130.356 176.527C130.356 176.527 130.987 177.66 131.598 180.67C131.708 181.214 131.328 181.734 130.776 181.788C129.799 181.885 128.295 182.008 127.091 182C126.535 181.996 126.102 181.513 126.169 180.961C126.302 179.862 126.718 178.059 128.002 176.654L130.356 176.527" fill="url(#paint27_linear_7_435)"/>
<path d="M130.909 173.074L130.165 177.133C130.165 177.133 129.429 177.68 127.973 177.284L128.329 172.916L130.909 173.074Z" fill="url(#paint28_linear_7_435)"/>
<path d="M132.921 124.619C135.918 142.706 132.271 169.325 131.041 174.534C130.965 174.854 130.708 175.098 130.385 175.151C129.836 175.242 128.932 175.317 128.04 175.058C127.733 174.969 127.518 174.692 127.505 174.373C127.34 170.16 127.637 144.303 124.844 134.084C124.703 133.566 124.387 133.114 123.949 132.803L118.529 128.95L118.113 122.721L132.921 124.619Z" fill="url(#paint29_linear_7_435)"/>
<path d="M113.822 90.345C122.804 90.1967 132.715 92.7034 132.715 92.7034C135.392 108.325 133.183 126.345 133.183 126.345C126.229 128.168 118.385 125.23 118.385 125.23C117.229 118.7 111.837 100.323 111.837 100.323C107.448 99.7793 103.833 98.5124 100.856 96.8383C103.127 94.2067 104.198 90.8562 104.662 88.8764C107.838 89.864 111.052 90.391 113.822 90.345" fill="url(#paint30_linear_7_435)"/>
<path d="M87.2916 77.115C88.1738 76.0496 89.2906 76.5537 89.2906 76.5537C90.6122 82.1368 97.5427 86.6636 104.663 88.8765C104.198 90.8564 103.128 94.2067 100.856 96.8383C89.0402 90.1947 87.2916 77.115 87.2916 77.115" fill="url(#paint31_linear_7_435)"/>
<path d="M87.5037 77.3862C87.4114 77.68 88.4807 78.1272 89.1106 76.9266C89.1327 76.3506 89.4824 73.886 89.1385 73.4176C87.3074 70.9213 83.7579 67.7924 83.7579 67.7924C83.158 68.3843 83.652 68.9656 83.652 68.9656L85.3748 70.7598C85.014 71.41 84.5747 71.9604 84.3692 72.7472C84.213 73.3435 84.3083 73.9804 84.6091 74.5229C84.9116 75.068 85.3236 75.7755 85.7135 76.3295C86.4518 77.3783 87.5037 77.3862 87.5037 77.3862" fill="url(#paint32_linear_7_435)"/>
<path d="M86.127 71.9228L87.6966 73.2525L88.1892 74.5771L86.7901 76.1295C86.7901 76.1295 86.3198 73.5018 85.9702 72.9329C85.6206 72.3641 85.8023 72.089 86.127 71.9228" fill="url(#paint33_linear_7_435)"/>
<path d="M129.27 101.401L132.715 92.7036C132.715 92.7036 141.105 98.4036 142.485 105.631C140.899 105.748 138.015 106.161 135.191 107.586C134.571 104.173 129.27 101.401 129.27 101.401" fill="url(#paint34_linear_7_435)"/>
<path d="M121.938 109.584C121.938 109.584 131.358 114.908 134.536 110.362C135.196 109.419 135.354 108.481 135.191 107.586C138.015 106.161 140.899 105.748 142.485 105.631C142.901 107.81 142.681 110.128 141.4 112.47C135.833 122.654 120.692 111.907 120.692 111.907L121.938 109.584" fill="url(#paint35_linear_7_435)"/>
<path d="M123.07 116.319L117.93 98.3664C117.871 98.1621 117.697 98.0134 117.487 97.9895C116.555 97.8803 113.857 97.5752 110.74 97.3124C106.987 96.994 102.628 96.7368 100.023 96.9559C99.6528 96.9869 99.4294 97.3787 99.5936 97.7119C101.075 100.708 107.168 112.899 110.219 116.891C110.32 117.024 110.476 117.101 110.643 117.099L122.57 116.989C122.917 116.986 123.166 116.653 123.07 116.319" fill="#346030"/>
<path d="M110.207 95.755L106.479 95.1342C106.281 95.1013 106.119 95.2899 106.182 95.4821L106.55 96.6001C106.583 96.6966 106.667 96.7673 106.769 96.7816L110.356 97.2602C110.541 97.2852 110.694 97.1159 110.651 96.9338L110.423 95.9579C110.398 95.8529 110.313 95.7721 110.207 95.755" fill="url(#paint36_linear_7_435)"/>
<path d="M112.997 98.9104L112.69 97.3114C112.659 97.1507 112.526 97.0297 112.364 97.0128L104.836 96.2486C104.582 96.2231 104.38 96.4559 104.439 96.7036L104.918 98.696C104.956 98.8552 105.095 98.9706 105.258 98.979L112.615 99.3498C112.854 99.3611 113.042 99.146 112.997 98.9104" fill="url(#paint37_linear_7_435)"/>
<path d="M121.828 111.981C121.828 111.981 122.544 109.037 122.256 107.992C121.967 106.948 121.407 105.604 119.542 105.903C117.676 106.202 115.475 106.987 115.475 106.987C115.475 106.987 115.587 108.348 117.004 107.909L116.125 108.589C116.125 108.589 116.251 109.678 117.448 109.097L116.631 109.999C116.631 109.999 117.145 110.894 118.026 110.32C118.907 109.746 119.33 112.336 121.828 111.981" fill="url(#paint38_linear_7_435)"/>
<path d="M122.92 83.053L125.778 91.3178C125.826 91.455 125.769 91.6064 125.643 91.6766C124.864 92.1079 122.057 93.3521 118.674 91.2082C118.322 90.9843 118.082 90.62 118.029 90.2061L117.103 83.053H122.92" fill="url(#paint39_linear_7_435)"/>
<path d="M115.542 75.7223C115.478 75.8513 114.4 85.3586 114.4 85.3586L119.841 85.8588L122.202 77C122.202 77 116.612 73.5488 115.542 75.7223" fill="url(#paint40_linear_7_435)"/>
<path d="M120.431 78.5691L119.553 83.3298C119.542 83.3908 119.523 83.4484 119.496 83.5043C119.328 83.8456 118.666 84.9769 117.55 84.229C116.537 83.5507 115.603 82.9464 114.826 82.9327C114.478 82.9266 114.182 83.1854 114.142 83.5318C114.045 84.3958 113.86 86.3472 113.959 88.0664C113.979 88.4146 114.265 88.6871 114.614 88.6974C115.667 88.7301 117.888 88.7361 119.676 88.3218C119.919 88.2659 120.111 88.0845 120.178 87.8447C120.504 86.6773 121.507 83.1312 121.94 82.1865C122.345 81.2993 123.656 81.1145 124.211 81.0767C124.394 81.0638 124.561 80.9787 124.678 80.8377C125.091 80.3417 125.833 79.1244 124.346 78.043C124.035 77.8169 123.973 77.382 124.209 77.0776C124.678 76.4725 125.122 75.4598 124.023 74.4652C122.906 73.4542 121.703 73.8342 120.992 74.2296C120.704 74.3895 120.351 74.3122 120.141 74.0594C120.021 73.915 119.837 73.8213 119.555 73.8918C119.176 73.9855 118.801 73.7156 118.747 73.3279C118.642 72.5834 118.228 71.6877 116.877 71.4908C114.479 71.1418 113.404 73.5746 113.524 75.2449C113.644 76.9143 116.265 77.1447 117.73 76.7991C118.843 76.5352 119.857 77.5204 120.279 78.0078C120.413 78.1616 120.468 78.3688 120.431 78.5691" fill="url(#paint41_linear_7_435)"/>
<path d="M121.604 83.9167C121.604 83.9167 121.52 80.9989 122.687 80.6695C123.854 80.3416 125.167 81.1355 124.239 82.9283C123.084 85.1574 121.604 83.9167 121.604 83.9167" fill="url(#paint42_linear_7_435)"/>
<defs>
<linearGradient id="paint0_linear_7_435" x1="85.2975" y1="164.243" x2="-139.177" y2="-121.561" gradientUnits="userSpaceOnUse">
<stop stop-color="#467A42"/>
<stop offset="1" stop-color="#20361E"/>
</linearGradient>
<linearGradient id="paint1_linear_7_435" x1="-91.0178" y1="-234.096" x2="-1.34587" y2="-122.292" gradientUnits="userSpaceOnUse">
<stop stop-color="#467A42"/>
<stop offset="1" stop-color="#467642"/>
</linearGradient>
<linearGradient id="paint2_linear_7_435" x1="-83.5338" y1="-200.699" x2="-0.239093" y2="-94.9094" gradientUnits="userSpaceOnUse">
<stop stop-color="#467642"/>
<stop offset="1" stop-color="#467642"/>
</linearGradient>
<linearGradient id="paint3_linear_7_435" x1="-65.7809" y1="-182.259" x2="-9.49409" y2="-82.962" gradientUnits="userSpaceOnUse">
<stop stop-color="#467642"/>
<stop offset="1" stop-color="#41703D"/>
</linearGradient>
<linearGradient id="paint4_linear_7_435" x1="15.995" y1="-17.5238" x2="-0.54539" y2="-36.7225" gradientUnits="userSpaceOnUse">
<stop stop-color="#2F502C"/>
<stop offset="1" stop-color="#2F502C"/>
</linearGradient>
<linearGradient id="paint5_linear_7_435" x1="-9.60036" y1="-50.3122" x2="39.2331" y2="23.4613" gradientUnits="userSpaceOnUse">
<stop stop-color="#456B41"/>
<stop offset="1" stop-color="#456B41"/>
</linearGradient>
<linearGradient id="paint6_linear_7_435" x1="-9.19363" y1="-49.737" x2="39.5325" y2="23.8745" gradientUnits="userSpaceOnUse">
<stop stop-color="#FFE7E6"/>
<stop offset="1" stop-color="#FFE0DD"/>
</linearGradient>
<linearGradient id="paint7_linear_7_435" x1="-8.11884" y1="-48.2096" x2="40.3226" y2="24.9716" gradientUnits="userSpaceOnUse">
<stop stop-color="#FFE7E6"/>
<stop offset="1" stop-color="#639C5E"/>
</linearGradient>
<linearGradient id="paint8_linear_7_435" x1="-4.60028" y1="-43.1748" x2="20.8996" y2="-0.364827" gradientUnits="userSpaceOnUse">
<stop stop-color="#FF928E"/>
<stop offset="1" stop-color="#097200"/>
</linearGradient>
<linearGradient id="paint9_linear_7_435" x1="-23.1402" y1="-38.5005" x2="-54.5552" y2="-74.9642" gradientUnits="userSpaceOnUse">
<stop stop-color="#2F502C"/>
<stop offset="1" stop-color="#2F502C"/>
</linearGradient>
<linearGradient id="paint10_linear_7_435" x1="-71.6878" y1="-100.774" x2="20.9738" y2="39.2122" gradientUnits="userSpaceOnUse">
<stop stop-color="#456B41"/>
<stop offset="1" stop-color="#456B41"/>
</linearGradient>
<linearGradient id="paint11_linear_7_435" x1="-70.6003" y1="-99.3988" x2="21.6534" y2="39.9706" gradientUnits="userSpaceOnUse">
<stop stop-color="#FFE7E6"/>
<stop offset="1" stop-color="#FFE0DD"/>
</linearGradient>
<linearGradient id="paint12_linear_7_435" x1="-68.5242" y1="-96.7713" x2="22.9499" y2="41.4206" gradientUnits="userSpaceOnUse">
<stop stop-color="#FFE7E6"/>
<stop offset="1" stop-color="#639C5E"/>
</linearGradient>
<linearGradient id="paint13_linear_7_435" x1="-61.3871" y1="-87.2389" x2="-13.5706" y2="-6.96297" gradientUnits="userSpaceOnUse">
<stop stop-color="#075A00"/>
<stop offset="1" stop-color="#097200"/>
</linearGradient>
<linearGradient id="paint14_linear_7_435" x1="-10.756" y1="40.3334" x2="-38.9" y2="7.66629" gradientUnits="userSpaceOnUse">
<stop stop-color="#2F502C"/>
<stop offset="1" stop-color="#2F502C"/>
</linearGradient>
<linearGradient id="paint15_linear_7_435" x1="-54.121" y1="-15.485" x2="28.8548" y2="109.868" gradientUnits="userSpaceOnUse">
<stop stop-color="#456B41"/>
<stop offset="1" stop-color="#456B41"/>
</linearGradient>
<linearGradient id="paint16_linear_7_435" x1="-43.1969" y1="-4.66138" x2="35.8235" y2="114.716" gradientUnits="userSpaceOnUse">
<stop stop-color="#FFE7E6"/>
<stop offset="1" stop-color="#FFE0DD"/>
</linearGradient>
<linearGradient id="paint17_linear_7_435" x1="-51.5105" y1="-12.8989" x2="30.5203" y2="111.026" gradientUnits="userSpaceOnUse">
<stop stop-color="#FFE7E6"/>
<stop offset="1" stop-color="#639C5E"/>
</linearGradient>
<linearGradient id="paint18_linear_7_435" x1="-39.9769" y1="-0.390071" x2="1.93167" y2="69.9675" gradientUnits="userSpaceOnUse">
<stop stop-color="#FF928E"/>
<stop offset="1" stop-color="#097200"/>
</linearGradient>
<linearGradient id="paint19_linear_7_435" x1="-65.2892" y1="-16.0431" x2="-87.7757" y2="-42.1435" gradientUnits="userSpaceOnUse">
<stop stop-color="#2F502C"/>
<stop offset="1" stop-color="#2F502C"/>
</linearGradient>
<linearGradient id="paint20_linear_7_435" x1="-99.9351" y1="-60.6383" x2="-33.5738" y2="39.6146" gradientUnits="userSpaceOnUse">
<stop stop-color="#456B41"/>
<stop offset="1" stop-color="#456B41"/>
</linearGradient>
<linearGradient id="paint21_linear_7_435" x1="-90.1593" y1="-50.9605" x2="-26.1574" y2="45.728" gradientUnits="userSpaceOnUse">
<stop stop-color="#FFE7E6"/>
<stop offset="1" stop-color="#FFE0DD"/>
</linearGradient>
<linearGradient id="paint22_linear_7_435" x1="-97.833" y1="-58.5565" x2="-31.9793" y2="40.9297" gradientUnits="userSpaceOnUse">
<stop stop-color="#FFE7E6"/>
<stop offset="0.979167" stop-color="#639C5E"/>
</linearGradient>
<linearGradient id="paint23_linear_7_435" x1="-88.5219" y1="-48.458" x2="-54.4069" y2="8.81538" gradientUnits="userSpaceOnUse">
<stop stop-color="#097200"/>
<stop offset="1" stop-color="#097200"/>
</linearGradient>
<linearGradient id="paint24_linear_7_435" x1="106.23" y1="172.254" x2="144.512" y2="213.893" gradientUnits="userSpaceOnUse">
<stop/>
<stop offset="1"/>
</linearGradient>
<linearGradient id="paint25_linear_7_435" x1="118.656" y1="175.346" x2="115.255" y2="175.346" gradientUnits="userSpaceOnUse">
<stop stop-color="#FF928E"/>
<stop offset="1" stop-color="#FEB3B1"/>
</linearGradient>
<linearGradient id="paint26_linear_7_435" x1="115.299" y1="127.981" x2="130.673" y2="187.133" gradientUnits="userSpaceOnUse">
<stop stop-color="#242424"/>
<stop offset="1" stop-color="#383838"/>
</linearGradient>
<linearGradient id="paint27_linear_7_435" x1="114.818" y1="164.359" x2="153.099" y2="205.998" gradientUnits="userSpaceOnUse">
<stop/>
<stop offset="1"/>
</linearGradient>
<linearGradient id="paint28_linear_7_435" x1="130.909" y1="175.172" x2="127.973" y2="175.172" gradientUnits="userSpaceOnUse">
<stop stop-color="#FF928E"/>
<stop offset="1" stop-color="#FEB3B1"/>
</linearGradient>
<linearGradient id="paint29_linear_7_435" x1="124.023" y1="125.713" x2="139.397" y2="184.866" gradientUnits="userSpaceOnUse">
<stop stop-color="#242424"/>
<stop offset="1" stop-color="#383838"/>
</linearGradient>
<linearGradient id="paint30_linear_7_435" x1="91.0359" y1="45.4424" x2="125.288" y2="109.368" gradientUnits="userSpaceOnUse">
<stop stop-color="#FF928E"/>
<stop offset="1" stop-color="#FE7062"/>
</linearGradient>
<linearGradient id="paint31_linear_7_435" x1="66.5254" y1="26.397" x2="74.1777" y2="48.261" gradientUnits="userSpaceOnUse">
<stop stop-color="#FF928E"/>
<stop offset="1" stop-color="#FEB3B1"/>
</linearGradient>
<linearGradient id="paint32_linear_7_435" x1="25.9244" y1="15.4695" x2="61.6905" y2="25.3052" gradientUnits="userSpaceOnUse">
<stop stop-color="#FF928E"/>
<stop offset="1" stop-color="#FEB3B1"/>
</linearGradient>
<linearGradient id="paint33_linear_7_435" x1="62.2182" y1="37.0166" x2="56.2616" y2="25.0008" gradientUnits="userSpaceOnUse">
<stop stop-color="#FF928E"/>
<stop offset="1" stop-color="#FEB3B1"/>
</linearGradient>
<linearGradient id="paint34_linear_7_435" x1="106.504" y1="43.7406" x2="139.687" y2="105.672" gradientUnits="userSpaceOnUse">
<stop stop-color="#FF928E"/>
<stop offset="1" stop-color="#FE7062"/>
</linearGradient>
<linearGradient id="paint35_linear_7_435" x1="142.676" y1="111.243" x2="120.692" y2="111.243" gradientUnits="userSpaceOnUse">
<stop stop-color="#FF928E"/>
<stop offset="1" stop-color="#FEB3B1"/>
</linearGradient>
<linearGradient id="paint36_linear_7_435" x1="104.278" y1="84.7646" x2="99.3416" y2="84.7646" gradientUnits="userSpaceOnUse">
<stop stop-color="#3F7E39"/>
<stop offset="1" stop-color="#71B36C"/>
</linearGradient>
<linearGradient id="paint37_linear_7_435" x1="107.51" y1="87.7262" x2="98.1757" y2="87.7262" gradientUnits="userSpaceOnUse">
<stop stop-color="#3F7E39"/>
<stop offset="1" stop-color="#3F7E39"/>
</linearGradient>
<linearGradient id="paint38_linear_7_435" x1="122.324" y1="108.938" x2="115.475" y2="108.938" gradientUnits="userSpaceOnUse">
<stop stop-color="#FF928E"/>
<stop offset="1" stop-color="#FEB3B1"/>
</linearGradient>
<linearGradient id="paint39_linear_7_435" x1="107.595" y1="49.2099" x2="111.147" y2="68.0365" gradientUnits="userSpaceOnUse">
<stop stop-color="#FF928E"/>
<stop offset="1" stop-color="#FEB3B1"/>
</linearGradient>
<linearGradient id="paint40_linear_7_435" x1="100.794" y1="37.7577" x2="105.22" y2="60.7994" gradientUnits="userSpaceOnUse">
<stop stop-color="#FF928E"/>
<stop offset="1" stop-color="#FEB3B1"/>
</linearGradient>
<linearGradient id="paint41_linear_7_435" x1="95.2099" y1="29.8678" x2="111.282" y2="56.203" gradientUnits="userSpaceOnUse">
<stop/>
<stop offset="1" stop-color="#6D3E12"/>
</linearGradient>
<linearGradient id="paint42_linear_7_435" x1="115.384" y1="66.4044" x2="110.553" y2="51.579" gradientUnits="userSpaceOnUse">
<stop stop-color="#FF928E"/>
<stop offset="1" stop-color="#FEB3B1"/>
</linearGradient>
</defs>
</svg>
