<svg width="334" height="331" viewBox="0 0 334 331" fill="none" xmlns="http://www.w3.org/2000/svg">
<path d="M166.5 239C232.498 239 286 185.498 286 119.5C286 53.502 232.498 0 166.5 0C100.502 0 47 53.502 47 119.5C47 185.498 100.502 239 166.5 239Z" fill="#097200"/>
<path d="M114.25 178.457L174.52 238.726C233.97 234.786 281.529 187.374 285.697 127.986L205.281 47.5698L114.25 178.457Z" fill="#3B8135"/>
<path d="M250.257 106.826H242.516C236.494 90.8482 223.421 77.4747 206.332 69.2376V47.0758C206.332 47.0758 191.551 45.3851 183.523 61.8777C178.038 60.8831 172.344 60.3536 166.5 60.3536C135.826 60.3536 109.205 74.803 95.8919 95.9767C94.8611 95.6041 93.9767 95.0617 93.2396 94.3326C90.473 91.5998 90.4536 87.0749 90.4544 86.9606C90.4826 84.9698 88.8973 83.3274 86.9049 83.2887C84.8866 83.234 83.2531 84.8378 83.2128 86.8375C83.1967 87.6117 83.2032 94.5402 88.087 99.424C89.3343 100.672 90.7755 101.639 92.3809 102.356C88.8008 109.905 86.8332 118.132 86.8332 126.742C86.8332 146.403 97.0925 164.065 113.389 176.221V198.63C113.389 202.926 116.872 206.409 121.168 206.409H132.166C136.462 206.409 139.945 202.926 139.945 198.63V189.348C148.252 191.796 157.189 193.131 166.501 193.131C175.813 193.131 184.749 191.796 193.056 189.348V198.63C193.056 202.926 196.539 206.409 200.835 206.409H211.833C216.13 206.409 219.613 202.926 219.613 198.63V176.221C230.158 168.355 238.174 158.186 242.519 146.659H250.259C255.333 146.659 259.447 142.546 259.447 137.472V116.012C259.444 110.939 255.331 106.826 250.257 106.826Z" fill="#DA768E"/>
<path d="M212.972 113.465C216.639 113.465 219.611 110.492 219.611 106.826C219.611 103.159 216.639 100.187 212.972 100.187C209.306 100.187 206.333 103.159 206.333 106.826C206.333 110.492 209.306 113.465 212.972 113.465Z" fill="#595155"/>
<path d="M175.352 79.6668H152.82C150.82 79.6668 149.199 78.0453 149.199 76.0455C149.199 74.0458 150.82 72.4243 152.82 72.4243H175.352C177.352 72.4243 178.973 74.0458 178.973 76.0455C178.973 78.0453 177.352 79.6668 175.352 79.6668Z" fill="#5E345E"/>
<path d="M166.5 54.3182C177.833 54.3182 187.02 45.1311 187.02 33.798C187.02 22.465 177.833 13.2778 166.5 13.2778C155.167 13.2778 145.98 22.465 145.98 33.798C145.98 45.1311 155.167 54.3182 166.5 54.3182Z" fill="#3B8135"/>
<path d="M166.5 49.188C174.999 49.188 181.89 42.2976 181.89 33.7979C181.89 25.2982 174.999 18.4077 166.5 18.4077C158.001 18.4077 151.11 25.2982 151.11 33.7979C151.11 42.2976 158.001 49.188 166.5 49.188Z" fill="#7CBC76"/>
<path d="M161.324 37.9986C161.702 39.9573 164 41.4637 166.78 41.4637C169.823 41.4637 172.291 39.6579 172.291 37.4305C172.291 35.203 169.823 33.3973 166.78 33.3973C163.737 33.3973 161.269 31.5915 161.269 29.364C161.269 27.1366 163.737 25.3308 166.78 25.3308C169.823 25.3308 172.291 27.1366 172.291 29.364" stroke="#097200" stroke-width="6" stroke-miterlimit="10" stroke-linecap="round" stroke-linejoin="round"/>
<path d="M166.948 41.4429V45.0641" stroke="#097200" stroke-width="6" stroke-miterlimit="10" stroke-linecap="round" stroke-linejoin="round"/>
<path d="M166.948 21.7273V25.1216" stroke="#097200" stroke-width="6" stroke-miterlimit="10" stroke-linecap="round" stroke-linejoin="round"/>
<g filter="url(#filter0_d_13_16)">
<path d="M35.848 282.272C35.224 282.8 34.408 283.232 33.4 283.568C32.44 283.856 31.312 284 30.016 284C28.288 284 26.848 283.784 25.696 283.352C24.592 282.92 23.872 282.176 23.536 281.12C22.192 276.896 21.088 273.488 20.224 270.896C19.36 268.256 18.688 265.952 18.208 263.984H17.848C17.704 266.816 17.584 269.408 17.488 271.76C17.44 274.064 17.392 276.32 17.344 278.528C17.344 280.736 17.296 282.968 17.2 285.224C17.152 287.48 17.056 289.976 16.912 292.712C16.288 292.952 15.472 293.144 14.464 293.288C13.456 293.48 12.448 293.576 11.44 293.576C9.328 293.576 7.672 293.24 6.472 292.568C5.32 291.896 4.744 290.672 4.744 288.896L6.832 252.176C7.216 251.552 8.056 250.88 9.352 250.16C10.648 249.44 12.472 249.08 14.824 249.08C17.368 249.08 19.36 249.488 20.8 250.304C22.24 251.072 23.296 252.344 23.968 254.12C24.4 255.272 24.856 256.592 25.336 258.08C25.864 259.568 26.368 261.104 26.848 262.688C27.376 264.272 27.88 265.856 28.36 267.44C28.84 268.976 29.272 270.368 29.656 271.616H30.016C31.168 267.584 32.32 263.696 33.472 259.952C34.624 256.16 35.68 252.992 36.64 250.448C37.36 250.064 38.272 249.752 39.376 249.512C40.528 249.224 41.8 249.08 43.192 249.08C45.544 249.08 47.464 249.44 48.952 250.16C50.44 250.832 51.304 251.816 51.544 253.112C51.736 254.072 51.928 255.56 52.12 257.576C52.36 259.544 52.6 261.776 52.84 264.272C53.08 266.768 53.32 269.408 53.56 272.192C53.8 274.976 54.016 277.664 54.208 280.256C54.448 282.8 54.64 285.152 54.784 287.312C54.928 289.424 55.024 291.056 55.072 292.208C54.256 292.688 53.392 293.024 52.48 293.216C51.616 293.456 50.488 293.576 49.096 293.576C47.272 293.576 45.736 293.264 44.488 292.64C43.24 292.016 42.568 290.792 42.472 288.968C42.184 283.736 41.992 279.032 41.896 274.856C41.848 270.68 41.752 267.176 41.608 264.344H41.248C40.768 266.216 40.072 268.568 39.16 271.4C38.248 274.232 37.144 277.856 35.848 282.272ZM66.5363 284.072C66.0083 282.872 65.4323 281.528 64.8083 280.04C64.2323 278.552 63.6083 276.848 62.9363 274.928C62.3123 273.008 61.6403 270.824 60.9203 268.376C60.2483 265.88 59.5283 263.024 58.7603 259.808C59.4323 259.136 60.3203 258.56 61.4243 258.08C62.5763 257.552 63.8243 257.288 65.1683 257.288C66.8483 257.288 68.2403 257.648 69.3443 258.368C70.4483 259.04 71.2643 260.336 71.7923 262.256L77.4803 282.056H77.7683C78.3443 280.424 78.8963 278.648 79.4243 276.728C80.0003 274.808 80.5523 272.84 81.0803 270.824C81.6083 268.76 82.0883 266.72 82.5203 264.704C83.0003 262.64 83.4083 260.624 83.7443 258.656C85.4723 257.744 87.3683 257.288 89.4323 257.288C91.1123 257.288 92.5043 257.648 93.6083 258.368C94.7123 259.088 95.2643 260.336 95.2643 262.112C95.2643 263.408 95.0963 264.92 94.7603 266.648C94.4243 268.328 93.9683 270.128 93.3923 272.048C92.8643 273.968 92.2163 275.96 91.4483 278.024C90.7283 280.04 89.9603 282.032 89.1443 284C88.3283 285.968 87.4883 287.84 86.6243 289.616C85.7603 291.344 84.9203 292.904 84.1043 294.296C82.7603 296.648 81.5123 298.568 80.3603 300.056C79.2083 301.544 78.1043 302.696 77.0483 303.512C75.9923 304.376 74.9363 304.952 73.8803 305.24C72.8243 305.576 71.7203 305.744 70.5683 305.744C68.5523 305.744 66.9203 305.144 65.6723 303.944C64.4243 302.744 63.6803 301.184 63.4403 299.264C64.9763 298.064 66.5123 296.72 68.0483 295.232C69.5843 293.792 70.9763 292.304 72.2243 290.768C71.4083 290.528 70.5203 289.976 69.5603 289.112C68.6483 288.2 67.6403 286.52 66.5363 284.072ZM146.239 282.272C145.615 282.8 144.799 283.232 143.791 283.568C142.831 283.856 141.703 284 140.407 284C138.679 284 137.239 283.784 136.087 283.352C134.983 282.92 134.263 282.176 133.927 281.12C132.583 276.896 131.479 273.488 130.615 270.896C129.751 268.256 129.079 265.952 128.599 263.984H128.239C128.095 266.816 127.975 269.408 127.879 271.76C127.831 274.064 127.783 276.32 127.735 278.528C127.735 280.736 127.687 282.968 127.591 285.224C127.543 287.48 127.447 289.976 127.303 292.712C126.679 292.952 125.863 293.144 124.855 293.288C123.847 293.48 122.839 293.576 121.831 293.576C119.719 293.576 118.063 293.24 116.863 292.568C115.711 291.896 115.135 290.672 115.135 288.896L117.223 252.176C117.607 251.552 118.447 250.88 119.743 250.16C121.039 249.44 122.863 249.08 125.215 249.08C127.759 249.08 129.751 249.488 131.191 250.304C132.631 251.072 133.687 252.344 134.359 254.12C134.791 255.272 135.247 256.592 135.727 258.08C136.255 259.568 136.759 261.104 137.239 262.688C137.767 264.272 138.271 265.856 138.751 267.44C139.231 268.976 139.663 270.368 140.047 271.616H140.407C141.559 267.584 142.711 263.696 143.863 259.952C145.015 256.16 146.071 252.992 147.031 250.448C147.751 250.064 148.663 249.752 149.767 249.512C150.919 249.224 152.191 249.08 153.583 249.08C155.935 249.08 157.855 249.44 159.343 250.16C160.831 250.832 161.695 251.816 161.935 253.112C162.127 254.072 162.319 255.56 162.511 257.576C162.751 259.544 162.991 261.776 163.231 264.272C163.471 266.768 163.711 269.408 163.951 272.192C164.191 274.976 164.407 277.664 164.599 280.256C164.839 282.8 165.031 285.152 165.175 287.312C165.319 289.424 165.415 291.056 165.463 292.208C164.647 292.688 163.783 293.024 162.871 293.216C162.007 293.456 160.879 293.576 159.487 293.576C157.663 293.576 156.127 293.264 154.879 292.64C153.631 292.016 152.959 290.792 152.863 288.968C152.575 283.736 152.383 279.032 152.287 274.856C152.239 270.68 152.143 267.176 151.999 264.344H151.639C151.159 266.216 150.463 268.568 149.551 271.4C148.639 274.232 147.535 277.856 146.239 282.272ZM208.444 275.504C208.444 278.48 207.988 281.144 207.076 283.496C206.164 285.8 204.868 287.744 203.188 289.328C201.556 290.912 199.588 292.112 197.284 292.928C194.98 293.744 192.412 294.152 189.58 294.152C186.748 294.152 184.18 293.72 181.876 292.856C179.572 291.992 177.58 290.768 175.9 289.184C174.268 287.552 172.996 285.584 172.084 283.28C171.172 280.976 170.716 278.384 170.716 275.504C170.716 272.672 171.172 270.104 172.084 267.8C172.996 265.496 174.268 263.552 175.9 261.968C177.58 260.336 179.572 259.088 181.876 258.224C184.18 257.36 186.748 256.928 189.58 256.928C192.412 256.928 194.98 257.384 197.284 258.296C199.588 259.16 201.556 260.408 203.188 262.04C204.868 263.624 206.164 265.568 207.076 267.872C207.988 270.176 208.444 272.72 208.444 275.504ZM183.244 275.504C183.244 278.432 183.796 280.688 184.9 282.272C186.052 283.808 187.636 284.576 189.652 284.576C191.668 284.576 193.204 283.784 194.26 282.2C195.364 280.616 195.916 278.384 195.916 275.504C195.916 272.624 195.364 270.416 194.26 268.88C193.156 267.296 191.596 266.504 189.58 266.504C187.564 266.504 186.004 267.296 184.9 268.88C183.796 270.416 183.244 272.624 183.244 275.504ZM236.592 270.824C236.592 269.336 236.16 268.256 235.296 267.584C234.48 266.864 233.352 266.504 231.912 266.504C230.952 266.504 229.992 266.624 229.032 266.864C228.12 267.104 227.328 267.464 226.656 267.944V292.928C226.176 293.072 225.408 293.216 224.352 293.36C223.344 293.504 222.288 293.576 221.184 293.576C220.128 293.576 219.168 293.504 218.304 293.36C217.488 293.216 216.792 292.928 216.216 292.496C215.64 292.064 215.184 291.488 214.848 290.768C214.56 290 214.416 289.016 214.416 287.816V266.216C214.416 264.92 214.68 263.864 215.208 263.048C215.784 262.232 216.552 261.488 217.512 260.816C219.144 259.664 221.184 258.728 223.632 258.008C226.128 257.288 228.888 256.928 231.912 256.928C237.336 256.928 241.512 258.128 244.44 260.528C247.368 262.88 248.832 266.168 248.832 270.392V292.928C248.352 293.072 247.584 293.216 246.528 293.36C245.52 293.504 244.464 293.576 243.36 293.576C242.304 293.576 241.344 293.504 240.48 293.36C239.664 293.216 238.968 292.928 238.392 292.496C237.816 292.064 237.36 291.488 237.024 290.768C236.736 290 236.592 289.016 236.592 287.816V270.824ZM274.896 294.152C272.064 294.152 269.424 293.768 266.976 293C264.576 292.184 262.464 290.984 260.64 289.4C258.864 287.816 257.448 285.824 256.392 283.424C255.384 281.024 254.88 278.216 254.88 275C254.88 271.832 255.384 269.12 256.392 266.864C257.448 264.56 258.816 262.688 260.496 261.248C262.176 259.76 264.096 258.68 266.256 258.008C268.416 257.288 270.624 256.928 272.88 256.928C275.424 256.928 277.728 257.312 279.792 258.08C281.904 258.848 283.704 259.904 285.192 261.248C286.728 262.592 287.904 264.2 288.72 266.072C289.584 267.944 290.016 269.984 290.016 272.192C290.016 273.824 289.56 275.072 288.648 275.936C287.736 276.8 286.464 277.352 284.832 277.592L267.048 280.256C267.576 281.84 268.656 283.04 270.288 283.856C271.92 284.624 273.792 285.008 275.904 285.008C277.872 285.008 279.72 284.768 281.448 284.288C283.224 283.76 284.664 283.16 285.768 282.488C286.536 282.968 287.184 283.64 287.712 284.504C288.24 285.368 288.504 286.28 288.504 287.24C288.504 289.4 287.496 291.008 285.48 292.064C283.944 292.88 282.216 293.432 280.296 293.72C278.376 294.008 276.576 294.152 274.896 294.152ZM272.88 265.856C271.728 265.856 270.72 266.048 269.856 266.432C269.04 266.816 268.368 267.32 267.84 267.944C267.312 268.52 266.904 269.192 266.616 269.96C266.376 270.68 266.232 271.424 266.184 272.192L278.496 270.176C278.352 269.216 277.824 268.256 276.912 267.296C276 266.336 274.656 265.856 272.88 265.856ZM301.099 284.072C300.571 282.872 299.995 281.528 299.371 280.04C298.795 278.552 298.171 276.848 297.499 274.928C296.875 273.008 296.203 270.824 295.483 268.376C294.811 265.88 294.091 263.024 293.323 259.808C293.995 259.136 294.883 258.56 295.987 258.08C297.139 257.552 298.387 257.288 299.731 257.288C301.411 257.288 302.803 257.648 303.907 258.368C305.011 259.04 305.827 260.336 306.355 262.256L312.043 282.056H312.331C312.907 280.424 313.459 278.648 313.987 276.728C314.563 274.808 315.115 272.84 315.643 270.824C316.171 268.76 316.651 266.72 317.083 264.704C317.563 262.64 317.971 260.624 318.307 258.656C320.035 257.744 321.931 257.288 323.995 257.288C325.675 257.288 327.067 257.648 328.171 258.368C329.275 259.088 329.827 260.336 329.827 262.112C329.827 263.408 329.659 264.92 329.323 266.648C328.987 268.328 328.531 270.128 327.955 272.048C327.427 273.968 326.779 275.96 326.011 278.024C325.291 280.04 324.523 282.032 323.707 284C322.891 285.968 322.051 287.84 321.187 289.616C320.323 291.344 319.483 292.904 318.667 294.296C317.323 296.648 316.075 298.568 314.923 300.056C313.771 301.544 312.667 302.696 311.611 303.512C310.555 304.376 309.499 304.952 308.443 305.24C307.387 305.576 306.283 305.744 305.131 305.744C303.115 305.744 301.483 305.144 300.235 303.944C298.987 302.744 298.243 301.184 298.003 299.264C299.539 298.064 301.075 296.72 302.611 295.232C304.147 293.792 305.539 292.304 306.787 290.768C305.971 290.528 305.083 289.976 304.123 289.112C303.211 288.2 302.203 286.52 301.099 284.072Z" fill="url(#paint0_linear_13_16)" shape-rendering="crispEdges"/>
</g>
<path d="M173.153 285.128C167.916 275.628 171.372 263.68 180.872 258.444C190.372 253.207 202.32 256.663 207.556 266.164C212.793 275.664 209.337 287.61 199.837 292.848C190.336 298.084 178.39 294.628 173.153 285.128Z" fill="#456B41"/>
<path d="M198.866 294.002C198.624 294.156 198.378 294.305 198.128 294.449C198.044 294.498 197.959 294.546 197.874 294.592C197.68 294.701 197.487 294.803 197.291 294.905C187.938 299.698 176.529 296.019 171.444 286.394C166.594 277.214 169.201 265.843 177.159 259.872C177.794 259.395 178.462 258.954 179.163 258.55C179.415 258.405 179.669 258.267 179.924 258.135C180.172 258.006 180.422 257.883 180.673 257.767C181.441 257.41 182.223 257.109 183.012 256.862C184.185 256.493 185.375 256.245 186.568 256.114C190.268 255.704 193.991 256.41 197.291 258.094C200.794 259.882 203.822 262.772 205.848 266.605C210.947 276.258 207.804 288.33 198.866 294.002Z" fill="#639C5E"/>
<path d="M198.866 294.002C198.624 294.156 198.378 294.305 198.128 294.449C198.044 294.498 197.959 294.546 197.874 294.592C197.68 294.701 197.487 294.803 197.291 294.905C187.938 299.698 176.529 296.019 171.444 286.394C166.594 277.214 169.201 265.843 177.159 259.872C177.794 259.395 178.462 258.954 179.163 258.55C179.415 258.405 179.669 258.267 179.924 258.135C180.172 258.006 180.422 257.883 180.673 257.767C181.441 257.41 182.223 257.109 183.012 256.862C184.185 256.493 185.375 256.245 186.568 256.114C190.268 255.704 193.991 256.41 197.291 258.094C200.794 259.882 203.822 262.772 205.848 266.605C210.947 276.258 207.804 288.33 198.866 294.002Z" fill="#639C5E"/>
<path d="M197.615 278.274C197.578 278.183 197.536 278.096 197.495 278.009C197.182 277.352 196.79 276.819 196.321 276.411C195.791 275.95 195.175 275.605 194.473 275.376C193.772 275.145 192.988 275.005 192.125 274.955C191.261 274.904 190.32 274.892 189.305 274.92C188.677 274.938 188.14 274.928 187.695 274.889C187.249 274.85 186.871 274.771 186.561 274.652C186.25 274.533 185.998 274.371 185.804 274.164C185.61 273.958 185.45 273.706 185.323 273.409C185.196 273.11 185.124 272.815 185.105 272.522C185.086 272.23 185.132 271.952 185.242 271.688C185.353 271.426 185.532 271.182 185.782 270.959C186.031 270.736 186.36 270.545 186.769 270.387C187.524 270.095 188.229 270.102 188.884 270.406C189.538 270.712 190.071 271.347 190.482 272.312L194.425 270.787C194.082 269.983 193.652 269.302 193.135 268.748C192.618 268.193 192.035 267.764 191.387 267.462C190.738 267.159 190.033 266.983 189.269 266.931C188.506 266.88 187.712 266.956 186.889 267.162L185.772 264.542L183.59 265.386L184.691 267.97C183.903 268.36 183.235 268.813 182.687 269.329C182.139 269.846 181.718 270.406 181.424 271.007C181.129 271.609 180.975 272.24 180.96 272.902C180.945 273.565 181.083 274.238 181.375 274.921C181.711 275.71 182.145 276.336 182.675 276.796C183.205 277.257 183.82 277.6 184.521 277.826C185.221 278.052 186.004 278.188 186.87 278.232C187.737 278.277 188.679 278.275 189.697 278.229C190.288 278.197 190.801 278.2 191.236 278.239C191.67 278.277 192.046 278.356 192.363 278.477C192.679 278.599 192.942 278.769 193.152 278.988C193.361 279.207 193.539 279.485 193.684 279.823C193.811 280.121 193.873 280.418 193.872 280.714C193.871 281.009 193.801 281.293 193.661 281.562C193.522 281.832 193.312 282.081 193.035 282.311C192.756 282.541 192.404 282.738 191.976 282.903C191.602 283.048 191.218 283.142 190.819 283.19C190.42 283.236 190.031 283.199 189.65 283.079C189.27 282.957 188.915 282.739 188.585 282.422C188.253 282.106 187.966 281.661 187.722 281.089L183.78 282.614C184.191 283.58 184.708 284.347 185.331 284.911C185.953 285.477 186.634 285.883 187.373 286.125C188.113 286.369 188.887 286.476 189.694 286.445C190.502 286.413 191.299 286.288 192.085 286.067L193.104 288.458L195.273 287.619L194.249 285.218C195.037 284.828 195.711 284.379 196.273 283.871C196.794 283.4 197.201 282.895 197.495 282.351C197.52 282.306 197.542 282.263 197.564 282.218C197.862 281.624 198.021 280.997 198.04 280.332C198.059 279.669 197.918 278.983 197.615 278.274Z" fill="#097200"/>
<path d="M188.622 259.9C185.776 259.9 182.891 260.597 180.227 262.066C176.145 264.316 173.183 268.021 171.888 272.499C170.593 276.976 171.118 281.691 173.369 285.773C175.619 289.855 179.324 292.817 183.802 294.112C188.28 295.407 192.993 294.881 197.077 292.631C205.504 287.985 208.579 277.351 203.935 268.924C200.757 263.161 194.779 259.9 188.622 259.9ZM188.677 295.292C187.003 295.292 185.32 295.054 183.668 294.577C179.066 293.245 175.258 290.202 172.945 286.006C170.632 281.811 170.092 276.966 171.423 272.365C172.754 267.763 175.798 263.954 179.993 261.642C188.654 256.868 199.584 260.03 204.358 268.69C209.133 277.351 205.97 288.28 197.309 293.054C194.621 294.537 191.664 295.292 188.677 295.292Z" fill="#437A3E"/>
<defs>
<filter id="filter0_d_13_16" x="0.743896" y="249.08" width="333.083" height="64.6641" filterUnits="userSpaceOnUse" color-interpolation-filters="sRGB">
<feFlood flood-opacity="0" result="BackgroundImageFix"/>
<feColorMatrix in="SourceAlpha" type="matrix" values="0 0 0 0 0 0 0 0 0 0 0 0 0 0 0 0 0 0 127 0" result="hardAlpha"/>
<feOffset dy="4"/>
<feGaussianBlur stdDeviation="2"/>
<feComposite in2="hardAlpha" operator="out"/>
<feColorMatrix type="matrix" values="0 0 0 0 0 0 0 0 0 0 0 0 0 0 0 0 0 0 0.25 0"/>
<feBlend mode="normal" in2="BackgroundImageFix" result="effect1_dropShadow_13_16"/>
<feBlend mode="normal" in="SourceGraphic" in2="effect1_dropShadow_13_16" result="shape"/>
</filter>
<linearGradient id="paint0_linear_13_16" x1="1" y1="218" x2="333.827" y2="223.666" gradientUnits="userSpaceOnUse">
<stop stop-color="#0E6607"/>
<stop offset="0.255208" stop-color="#053D00" stop-opacity="0.744792"/>
<stop offset="1" stop-color="#097000"/>
</linearGradient>
</defs>
</svg>
